<mxfile host="65bd71144e">
    <diagram id="C5RBs43oDa-KdzZeNtuy" name="Page-1">
        <mxGraphModel dx="2351" dy="2339" grid="1" gridSize="10" guides="1" tooltips="1" connect="1" arrows="1" fold="1" page="1" pageScale="1" pageWidth="827" pageHeight="1169" background="none" math="0" shadow="0">
            <root>
                <mxCell id="WIyWlLk6GJQsqaUBKTNV-0"/>
                <mxCell id="WIyWlLk6GJQsqaUBKTNV-1" parent="WIyWlLk6GJQsqaUBKTNV-0"/>
                <mxCell id="zkfFHV4jXpPFQw0GAbJ--0" value="App - Customer Home Page" style="swimlane;fontStyle=1;align=center;verticalAlign=top;childLayout=stackLayout;horizontal=1;startSize=26;horizontalStack=0;resizeParent=1;resizeLast=0;collapsible=1;marginBottom=0;rounded=0;shadow=0;strokeWidth=1;" parent="WIyWlLk6GJQsqaUBKTNV-1" vertex="1">
                    <mxGeometry x="1230" y="-440" width="300" height="170" as="geometry">
                        <mxRectangle x="230" y="140" width="160" height="26" as="alternateBounds"/>
                    </mxGeometry>
                </mxCell>
                <mxCell id="zkfFHV4jXpPFQw0GAbJ--1" value="- pnl2Cus: JPanel" style="text;align=left;verticalAlign=top;spacingLeft=4;spacingRight=4;overflow=hidden;rotatable=0;points=[[0,0.5],[1,0.5]];portConstraint=eastwest;" parent="zkfFHV4jXpPFQw0GAbJ--0" vertex="1">
                    <mxGeometry y="26" width="300" height="26" as="geometry"/>
                </mxCell>
                <mxCell id="zkfFHV4jXpPFQw0GAbJ--2" value="- btnBookingCus: JButton" style="text;align=left;verticalAlign=top;spacingLeft=4;spacingRight=4;overflow=hidden;rotatable=0;points=[[0,0.5],[1,0.5]];portConstraint=eastwest;rounded=0;shadow=0;html=0;" parent="zkfFHV4jXpPFQw0GAbJ--0" vertex="1">
                    <mxGeometry y="52" width="300" height="26" as="geometry"/>
                </mxCell>
                <mxCell id="zkfFHV4jXpPFQw0GAbJ--3" value="- btnProfileCus: JButton" style="text;align=left;verticalAlign=top;spacingLeft=4;spacingRight=4;overflow=hidden;rotatable=0;points=[[0,0.5],[1,0.5]];portConstraint=eastwest;rounded=0;shadow=0;html=0;" parent="zkfFHV4jXpPFQw0GAbJ--0" vertex="1">
                    <mxGeometry y="78" width="300" height="26" as="geometry"/>
                </mxCell>
                <mxCell id="zkfFHV4jXpPFQw0GAbJ--4" value="" style="line;html=1;strokeWidth=1;align=left;verticalAlign=middle;spacingTop=-1;spacingLeft=3;spacingRight=3;rotatable=0;labelPosition=right;points=[];portConstraint=eastwest;" parent="zkfFHV4jXpPFQw0GAbJ--0" vertex="1">
                    <mxGeometry y="104" width="300" height="8" as="geometry"/>
                </mxCell>
                <mxCell id="Mfn7tafHpo8cdK77_WL3-228" value="+ App()" style="text;strokeColor=none;fillColor=none;align=left;verticalAlign=top;spacingLeft=4;spacingRight=4;overflow=hidden;rotatable=0;points=[[0,0.5],[1,0.5]];portConstraint=eastwest;" parent="zkfFHV4jXpPFQw0GAbJ--0" vertex="1">
                    <mxGeometry y="112" width="300" height="26" as="geometry"/>
                </mxCell>
                <mxCell id="Mfn7tafHpo8cdK77_WL3-229" value="+ mouseClicked(e: MouseEvent): void" style="text;strokeColor=none;fillColor=none;align=left;verticalAlign=top;spacingLeft=4;spacingRight=4;overflow=hidden;rotatable=0;points=[[0,0.5],[1,0.5]];portConstraint=eastwest;" parent="zkfFHV4jXpPFQw0GAbJ--0" vertex="1">
                    <mxGeometry y="138" width="300" height="26" as="geometry"/>
                </mxCell>
                <mxCell id="zkfFHV4jXpPFQw0GAbJ--17" value="Functions" style="swimlane;fontStyle=1;align=center;verticalAlign=top;childLayout=stackLayout;horizontal=1;startSize=26;horizontalStack=0;resizeParent=1;resizeLast=0;collapsible=1;marginBottom=0;rounded=0;shadow=0;strokeWidth=1;" parent="WIyWlLk6GJQsqaUBKTNV-1" vertex="1">
                    <mxGeometry x="-370" y="750" width="390" height="782" as="geometry">
                        <mxRectangle x="550" y="140" width="160" height="26" as="alternateBounds"/>
                    </mxGeometry>
                </mxCell>
                <mxCell id="zkfFHV4jXpPFQw0GAbJ--18" value="-Â  today: String" style="text;align=left;verticalAlign=top;spacingLeft=4;spacingRight=4;overflow=hidden;rotatable=0;points=[[0,0.5],[1,0.5]];portConstraint=eastwest;" parent="zkfFHV4jXpPFQw0GAbJ--17" vertex="1">
                    <mxGeometry y="26" width="390" height="26" as="geometry"/>
                </mxCell>
                <mxCell id="EJakUDDSdxZKXWGw3saw-9" value="- finalPrice: String" style="text;align=left;verticalAlign=top;spacingLeft=4;spacingRight=4;overflow=hidden;rotatable=0;points=[[0,0.5],[1,0.5]];portConstraint=eastwest;" parent="zkfFHV4jXpPFQw0GAbJ--17" vertex="1">
                    <mxGeometry y="52" width="390" height="26" as="geometry"/>
                </mxCell>
                <mxCell id="EJakUDDSdxZKXWGw3saw-8" value="- array: String[]" style="text;align=left;verticalAlign=top;spacingLeft=4;spacingRight=4;overflow=hidden;rotatable=0;points=[[0,0.5],[1,0.5]];portConstraint=eastwest;" parent="zkfFHV4jXpPFQw0GAbJ--17" vertex="1">
                    <mxGeometry y="78" width="390" height="26" as="geometry"/>
                </mxCell>
                <mxCell id="zkfFHV4jXpPFQw0GAbJ--23" value="" style="line;html=1;strokeWidth=1;align=left;verticalAlign=middle;spacingTop=-1;spacingLeft=3;spacingRight=3;rotatable=0;labelPosition=right;points=[];portConstraint=eastwest;" parent="zkfFHV4jXpPFQw0GAbJ--17" vertex="1">
                    <mxGeometry y="104" width="390" height="8" as="geometry"/>
                </mxCell>
                <mxCell id="zkfFHV4jXpPFQw0GAbJ--24" value="+ Functions()" style="text;align=left;verticalAlign=top;spacingLeft=4;spacingRight=4;overflow=hidden;rotatable=0;points=[[0,0.5],[1,0.5]];portConstraint=eastwest;" parent="zkfFHV4jXpPFQw0GAbJ--17" vertex="1">
                    <mxGeometry y="112" width="390" height="26" as="geometry"/>
                </mxCell>
                <mxCell id="zkfFHV4jXpPFQw0GAbJ--25" value="+ returnStatus(): void" style="text;align=left;verticalAlign=top;spacingLeft=4;spacingRight=4;overflow=hidden;rotatable=0;points=[[0,0.5],[1,0.5]];portConstraint=eastwest;" parent="zkfFHV4jXpPFQw0GAbJ--17" vertex="1">
                    <mxGeometry y="138" width="390" height="26" as="geometry"/>
                </mxCell>
                <mxCell id="dF_DScVQPOzMR-qX4pVW-0" value="+ toBooking(array: String[]): void" style="text;align=left;verticalAlign=top;spacingLeft=4;spacingRight=4;overflow=hidden;rotatable=0;points=[[0,0.5],[1,0.5]];portConstraint=eastwest;" parent="zkfFHV4jXpPFQw0GAbJ--17" vertex="1">
                    <mxGeometry y="164" width="390" height="26" as="geometry"/>
                </mxCell>
                <mxCell id="dF_DScVQPOzMR-qX4pVW-1" value="+ toCar(row: String[]) : void" style="text;align=left;verticalAlign=top;spacingLeft=4;spacingRight=4;overflow=hidden;rotatable=0;points=[[0,0.5],[1,0.5]];portConstraint=eastwest;" parent="zkfFHV4jXpPFQw0GAbJ--17" vertex="1">
                    <mxGeometry y="190" width="390" height="26" as="geometry"/>
                </mxCell>
                <mxCell id="dF_DScVQPOzMR-qX4pVW-2" value="+ toUserDetails(array: String[]): void" style="text;align=left;verticalAlign=top;spacingLeft=4;spacingRight=4;overflow=hidden;rotatable=0;points=[[0,0.5],[1,0.5]];portConstraint=eastwest;" parent="zkfFHV4jXpPFQw0GAbJ--17" vertex="1">
                    <mxGeometry y="216" width="390" height="26" as="geometry"/>
                </mxCell>
                <mxCell id="dF_DScVQPOzMR-qX4pVW-3" value="+ toReturnedTable(listOfString: List&lt;String&gt;, &#10;modelRCA1: DefaultTableModel): void" style="text;align=left;verticalAlign=top;spacingLeft=4;spacingRight=4;overflow=hidden;rotatable=0;points=[[0,0.5],[1,0.5]];portConstraint=eastwest;" parent="zkfFHV4jXpPFQw0GAbJ--17" vertex="1">
                    <mxGeometry y="242" width="390" height="40" as="geometry"/>
                </mxCell>
                <mxCell id="dF_DScVQPOzMR-qX4pVW-4" value="+ toOnRentTable(listOfString: List&lt;String&gt;,&#10;modelORCA1: DefaultTableModel): void" style="text;align=left;verticalAlign=top;spacingLeft=4;spacingRight=4;overflow=hidden;rotatable=0;points=[[0,0.5],[1,0.5]];portConstraint=eastwest;" parent="zkfFHV4jXpPFQw0GAbJ--17" vertex="1">
                    <mxGeometry y="282" width="390" height="40" as="geometry"/>
                </mxCell>
                <mxCell id="dF_DScVQPOzMR-qX4pVW-5" value="+ toAddCarTable(listOfString: List&lt;String&gt;,&#10;model1: DefaultTableModel): void" style="text;align=left;verticalAlign=top;spacingLeft=4;spacingRight=4;overflow=hidden;rotatable=0;points=[[0,0.5],[1,0.5]];portConstraint=eastwest;" parent="zkfFHV4jXpPFQw0GAbJ--17" vertex="1">
                    <mxGeometry y="322" width="390" height="40" as="geometry"/>
                </mxCell>
                <mxCell id="dF_DScVQPOzMR-qX4pVW-6" value="+ toViewAllCarTable(listOfString: List&lt;String&gt;,&#10;modelA1: DefaultTableModel): void" style="text;align=left;verticalAlign=top;spacingLeft=4;spacingRight=4;overflow=hidden;rotatable=0;points=[[0,0.5],[1,0.5]];portConstraint=eastwest;" parent="zkfFHV4jXpPFQw0GAbJ--17" vertex="1">
                    <mxGeometry y="362" width="390" height="40" as="geometry"/>
                </mxCell>
                <mxCell id="dF_DScVQPOzMR-qX4pVW-7" value="+ toBookingRequestTable(listOfString: List&lt;String&gt;,&#10;modelBR1: DefaultTableModel): void" style="text;align=left;verticalAlign=top;spacingLeft=4;spacingRight=4;overflow=hidden;rotatable=0;points=[[0,0.5],[1,0.5]];portConstraint=eastwest;" parent="zkfFHV4jXpPFQw0GAbJ--17" vertex="1">
                    <mxGeometry y="402" width="390" height="40" as="geometry"/>
                </mxCell>
                <mxCell id="dF_DScVQPOzMR-qX4pVW-8" value="+ toViewMonthlyReportTable(listOfString: List&lt;String&gt;,&#10;modelBR1: DefaultTableModel): void" style="text;align=left;verticalAlign=top;spacingLeft=4;spacingRight=4;overflow=hidden;rotatable=0;points=[[0,0.5],[1,0.5]];portConstraint=eastwest;" parent="zkfFHV4jXpPFQw0GAbJ--17" vertex="1">
                    <mxGeometry y="442" width="390" height="40" as="geometry"/>
                </mxCell>
                <mxCell id="dF_DScVQPOzMR-qX4pVW-9" value="+ fromUserDetails(listOfStrings: List&lt;String&gt;): List&lt;String&gt;" style="text;align=left;verticalAlign=top;spacingLeft=4;spacingRight=4;overflow=hidden;rotatable=0;points=[[0,0.5],[1,0.5]];portConstraint=eastwest;" parent="zkfFHV4jXpPFQw0GAbJ--17" vertex="1">
                    <mxGeometry y="482" width="390" height="30" as="geometry"/>
                </mxCell>
                <mxCell id="dF_DScVQPOzMR-qX4pVW-10" value="+ fromBooking(listOfStrings: List&lt;String&gt;): List&lt;String&gt;" style="text;align=left;verticalAlign=top;spacingLeft=4;spacingRight=4;overflow=hidden;rotatable=0;points=[[0,0.5],[1,0.5]];portConstraint=eastwest;" parent="zkfFHV4jXpPFQw0GAbJ--17" vertex="1">
                    <mxGeometry y="512" width="390" height="30" as="geometry"/>
                </mxCell>
                <mxCell id="dF_DScVQPOzMR-qX4pVW-11" value="+ fromCar(listOfStrings: List&lt;String&gt;): List&lt;String&gt;" style="text;align=left;verticalAlign=top;spacingLeft=4;spacingRight=4;overflow=hidden;rotatable=0;points=[[0,0.5],[1,0.5]];portConstraint=eastwest;" parent="zkfFHV4jXpPFQw0GAbJ--17" vertex="1">
                    <mxGeometry y="542" width="390" height="30" as="geometry"/>
                </mxCell>
                <mxCell id="dF_DScVQPOzMR-qX4pVW-12" value="+ toHours(s: String): int" style="text;align=left;verticalAlign=top;spacingLeft=4;spacingRight=4;overflow=hidden;rotatable=0;points=[[0,0.5],[1,0.5]];portConstraint=eastwest;" parent="zkfFHV4jXpPFQw0GAbJ--17" vertex="1">
                    <mxGeometry y="572" width="390" height="30" as="geometry"/>
                </mxCell>
                <mxCell id="dF_DScVQPOzMR-qX4pVW-13" value="+ fromDate(start: String, end: String): int" style="text;align=left;verticalAlign=top;spacingLeft=4;spacingRight=4;overflow=hidden;rotatable=0;points=[[0,0.5],[1,0.5]];portConstraint=eastwest;" parent="zkfFHV4jXpPFQw0GAbJ--17" vertex="1">
                    <mxGeometry y="602" width="390" height="30" as="geometry"/>
                </mxCell>
                <mxCell id="dF_DScVQPOzMR-qX4pVW-14" value="+ storeArray(array: String[]): void" style="text;align=left;verticalAlign=top;spacingLeft=4;spacingRight=4;overflow=hidden;rotatable=0;points=[[0,0.5],[1,0.5]];portConstraint=eastwest;" parent="zkfFHV4jXpPFQw0GAbJ--17" vertex="1">
                    <mxGeometry y="632" width="390" height="30" as="geometry"/>
                </mxCell>
                <mxCell id="dF_DScVQPOzMR-qX4pVW-15" value="+ returnArray(): String[]" style="text;align=left;verticalAlign=top;spacingLeft=4;spacingRight=4;overflow=hidden;rotatable=0;points=[[0,0.5],[1,0.5]];portConstraint=eastwest;" parent="zkfFHV4jXpPFQw0GAbJ--17" vertex="1">
                    <mxGeometry y="662" width="390" height="30" as="geometry"/>
                </mxCell>
                <mxCell id="EJakUDDSdxZKXWGw3saw-7" value="+ storePrice(): void" style="text;align=left;verticalAlign=top;spacingLeft=4;spacingRight=4;overflow=hidden;rotatable=0;points=[[0,0.5],[1,0.5]];portConstraint=eastwest;" parent="zkfFHV4jXpPFQw0GAbJ--17" vertex="1">
                    <mxGeometry y="692" width="390" height="30" as="geometry"/>
                </mxCell>
                <mxCell id="EJakUDDSdxZKXWGw3saw-6" value="+ returnPrice(): double" style="text;align=left;verticalAlign=top;spacingLeft=4;spacingRight=4;overflow=hidden;rotatable=0;points=[[0,0.5],[1,0.5]];portConstraint=eastwest;" parent="zkfFHV4jXpPFQw0GAbJ--17" vertex="1">
                    <mxGeometry y="722" width="390" height="30" as="geometry"/>
                </mxCell>
                <mxCell id="EJakUDDSdxZKXWGw3saw-5" value="+ setBookingStatusText(listOfStrings1: List&lt;String&gt;, index: int): String" style="text;align=left;verticalAlign=top;spacingLeft=4;spacingRight=4;overflow=hidden;rotatable=0;points=[[0,0.5],[1,0.5]];portConstraint=eastwest;" parent="zkfFHV4jXpPFQw0GAbJ--17" vertex="1">
                    <mxGeometry y="752" width="390" height="30" as="geometry"/>
                </mxCell>
                <mxCell id="Mfn7tafHpo8cdK77_WL3-38" value="App - Admin Home Page" style="swimlane;fontStyle=1;align=center;verticalAlign=top;childLayout=stackLayout;horizontal=1;startSize=26;horizontalStack=0;resizeParent=1;resizeParentMax=0;resizeLast=0;collapsible=1;marginBottom=0;" parent="WIyWlLk6GJQsqaUBKTNV-1" vertex="1">
                    <mxGeometry x="650" y="-440" width="260" height="840" as="geometry"/>
                </mxCell>
                <mxCell id="Mfn7tafHpo8cdK77_WL3-42" value="- adminHome: JPanel" style="text;align=left;verticalAlign=top;spacingLeft=4;spacingRight=4;overflow=hidden;rotatable=0;points=[[0,0.5],[1,0.5]];portConstraint=eastwest;rounded=0;shadow=0;html=0;" parent="Mfn7tafHpo8cdK77_WL3-38" vertex="1">
                    <mxGeometry y="26" width="260" height="26" as="geometry"/>
                </mxCell>
                <mxCell id="Mfn7tafHpo8cdK77_WL3-69" value="- separator2RBP: JSeparator" style="text;align=left;verticalAlign=top;spacingLeft=4;spacingRight=4;overflow=hidden;rotatable=0;points=[[0,0.5],[1,0.5]];portConstraint=eastwest;rounded=0;shadow=0;html=0;" parent="Mfn7tafHpo8cdK77_WL3-38" vertex="1">
                    <mxGeometry y="52" width="260" height="26" as="geometry"/>
                </mxCell>
                <mxCell id="Mfn7tafHpo8cdK77_WL3-68" value="- separator1RBP: JSeparator" style="text;align=left;verticalAlign=top;spacingLeft=4;spacingRight=4;overflow=hidden;rotatable=0;points=[[0,0.5],[1,0.5]];portConstraint=eastwest;rounded=0;shadow=0;html=0;" parent="Mfn7tafHpo8cdK77_WL3-38" vertex="1">
                    <mxGeometry y="78" width="260" height="26" as="geometry"/>
                </mxCell>
                <mxCell id="Mfn7tafHpo8cdK77_WL3-67" value="- btnReturnCar: JButton" style="text;align=left;verticalAlign=top;spacingLeft=4;spacingRight=4;overflow=hidden;rotatable=0;points=[[0,0.5],[1,0.5]];portConstraint=eastwest;rounded=0;shadow=0;html=0;" parent="Mfn7tafHpo8cdK77_WL3-38" vertex="1">
                    <mxGeometry y="104" width="260" height="26" as="geometry"/>
                </mxCell>
                <mxCell id="Mfn7tafHpo8cdK77_WL3-66" value="- btnBook:JButton" style="text;align=left;verticalAlign=top;spacingLeft=4;spacingRight=4;overflow=hidden;rotatable=0;points=[[0,0.5],[1,0.5]];portConstraint=eastwest;rounded=0;shadow=0;html=0;" parent="Mfn7tafHpo8cdK77_WL3-38" vertex="1">
                    <mxGeometry y="130" width="260" height="26" as="geometry"/>
                </mxCell>
                <mxCell id="Mfn7tafHpo8cdK77_WL3-65" value="- btnReport: JButton" style="text;align=left;verticalAlign=top;spacingLeft=4;spacingRight=4;overflow=hidden;rotatable=0;points=[[0,0.5],[1,0.5]];portConstraint=eastwest;rounded=0;shadow=0;html=0;" parent="Mfn7tafHpo8cdK77_WL3-38" vertex="1">
                    <mxGeometry y="156" width="260" height="26" as="geometry"/>
                </mxCell>
                <mxCell id="Mfn7tafHpo8cdK77_WL3-64" value="- txtReturnCar: JLabel" style="text;align=left;verticalAlign=top;spacingLeft=4;spacingRight=4;overflow=hidden;rotatable=0;points=[[0,0.5],[1,0.5]];portConstraint=eastwest;rounded=0;shadow=0;html=0;" parent="Mfn7tafHpo8cdK77_WL3-38" vertex="1">
                    <mxGeometry y="182" width="260" height="26" as="geometry"/>
                </mxCell>
                <mxCell id="Mfn7tafHpo8cdK77_WL3-63" value="- txtBook: JLabel" style="text;align=left;verticalAlign=top;spacingLeft=4;spacingRight=4;overflow=hidden;rotatable=0;points=[[0,0.5],[1,0.5]];portConstraint=eastwest;rounded=0;shadow=0;html=0;" parent="Mfn7tafHpo8cdK77_WL3-38" vertex="1">
                    <mxGeometry y="208" width="260" height="26" as="geometry"/>
                </mxCell>
                <mxCell id="Mfn7tafHpo8cdK77_WL3-62" value="- txtReport: JLabel" style="text;align=left;verticalAlign=top;spacingLeft=4;spacingRight=4;overflow=hidden;rotatable=0;points=[[0,0.5],[1,0.5]];portConstraint=eastwest;rounded=0;shadow=0;html=0;" parent="Mfn7tafHpo8cdK77_WL3-38" vertex="1">
                    <mxGeometry y="234" width="260" height="26" as="geometry"/>
                </mxCell>
                <mxCell id="Mfn7tafHpo8cdK77_WL3-61" value="- pnlDownRBP: JPanel" style="text;align=left;verticalAlign=top;spacingLeft=4;spacingRight=4;overflow=hidden;rotatable=0;points=[[0,0.5],[1,0.5]];portConstraint=eastwest;rounded=0;shadow=0;html=0;" parent="Mfn7tafHpo8cdK77_WL3-38" vertex="1">
                    <mxGeometry y="260" width="260" height="26" as="geometry"/>
                </mxCell>
                <mxCell id="Mfn7tafHpo8cdK77_WL3-60" value="- pnlRightRBP: JPanel" style="text;align=left;verticalAlign=top;spacingLeft=4;spacingRight=4;overflow=hidden;rotatable=0;points=[[0,0.5],[1,0.5]];portConstraint=eastwest;rounded=0;shadow=0;html=0;" parent="Mfn7tafHpo8cdK77_WL3-38" vertex="1">
                    <mxGeometry y="286" width="260" height="26" as="geometry"/>
                </mxCell>
                <mxCell id="Mfn7tafHpo8cdK77_WL3-59" value="- pnlLeftRBP: JPanel" style="text;align=left;verticalAlign=top;spacingLeft=4;spacingRight=4;overflow=hidden;rotatable=0;points=[[0,0.5],[1,0.5]];portConstraint=eastwest;rounded=0;shadow=0;html=0;" parent="Mfn7tafHpo8cdK77_WL3-38" vertex="1">
                    <mxGeometry y="312" width="260" height="26" as="geometry"/>
                </mxCell>
                <mxCell id="Mfn7tafHpo8cdK77_WL3-58" value="- btnHome: JButton" style="text;align=left;verticalAlign=top;spacingLeft=4;spacingRight=4;overflow=hidden;rotatable=0;points=[[0,0.5],[1,0.5]];portConstraint=eastwest;rounded=0;shadow=0;html=0;" parent="Mfn7tafHpo8cdK77_WL3-38" vertex="1">
                    <mxGeometry y="338" width="260" height="26" as="geometry"/>
                </mxCell>
                <mxCell id="Mfn7tafHpo8cdK77_WL3-57" value="- btnProfile: JButton" style="text;align=left;verticalAlign=top;spacingLeft=4;spacingRight=4;overflow=hidden;rotatable=0;points=[[0,0.5],[1,0.5]];portConstraint=eastwest;rounded=0;shadow=0;html=0;" parent="Mfn7tafHpo8cdK77_WL3-38" vertex="1">
                    <mxGeometry y="364" width="260" height="26" as="geometry"/>
                </mxCell>
                <mxCell id="Mfn7tafHpo8cdK77_WL3-56" value="- txtBook: JLabel" style="text;align=left;verticalAlign=top;spacingLeft=4;spacingRight=4;overflow=hidden;rotatable=0;points=[[0,0.5],[1,0.5]];portConstraint=eastwest;rounded=0;shadow=0;html=0;" parent="Mfn7tafHpo8cdK77_WL3-38" vertex="1">
                    <mxGeometry y="390" width="260" height="26" as="geometry"/>
                </mxCell>
                <mxCell id="Mfn7tafHpo8cdK77_WL3-55" value="- pnl1Admin: JPanel" style="text;align=left;verticalAlign=top;spacingLeft=4;spacingRight=4;overflow=hidden;rotatable=0;points=[[0,0.5],[1,0.5]];portConstraint=eastwest;rounded=0;shadow=0;html=0;" parent="Mfn7tafHpo8cdK77_WL3-38" vertex="1">
                    <mxGeometry y="416" width="260" height="26" as="geometry"/>
                </mxCell>
                <mxCell id="Mfn7tafHpo8cdK77_WL3-54" value="- pnl2Admin: JPanel" style="text;align=left;verticalAlign=top;spacingLeft=4;spacingRight=4;overflow=hidden;rotatable=0;points=[[0,0.5],[1,0.5]];portConstraint=eastwest;rounded=0;shadow=0;html=0;" parent="Mfn7tafHpo8cdK77_WL3-38" vertex="1">
                    <mxGeometry y="442" width="260" height="26" as="geometry"/>
                </mxCell>
                <mxCell id="Mfn7tafHpo8cdK77_WL3-53" value="- adminHome: JPanel" style="text;align=left;verticalAlign=top;spacingLeft=4;spacingRight=4;overflow=hidden;rotatable=0;points=[[0,0.5],[1,0.5]];portConstraint=eastwest;rounded=0;shadow=0;html=0;" parent="Mfn7tafHpo8cdK77_WL3-38" vertex="1">
                    <mxGeometry y="468" width="260" height="26" as="geometry"/>
                </mxCell>
                <mxCell id="Mfn7tafHpo8cdK77_WL3-52" value="- btnRegistration: JButton" style="text;align=left;verticalAlign=top;spacingLeft=4;spacingRight=4;overflow=hidden;rotatable=0;points=[[0,0.5],[1,0.5]];portConstraint=eastwest;rounded=0;shadow=0;html=0;" parent="Mfn7tafHpo8cdK77_WL3-38" vertex="1">
                    <mxGeometry y="494" width="260" height="26" as="geometry"/>
                </mxCell>
                <mxCell id="Mfn7tafHpo8cdK77_WL3-51" value="- btnBooking: JButton" style="text;align=left;verticalAlign=top;spacingLeft=4;spacingRight=4;overflow=hidden;rotatable=0;points=[[0,0.5],[1,0.5]];portConstraint=eastwest;rounded=0;shadow=0;html=0;" parent="Mfn7tafHpo8cdK77_WL3-38" vertex="1">
                    <mxGeometry y="520" width="260" height="26" as="geometry"/>
                </mxCell>
                <mxCell id="Mfn7tafHpo8cdK77_WL3-50" value="- pnl2Admin: JPanel" style="text;align=left;verticalAlign=top;spacingLeft=4;spacingRight=4;overflow=hidden;rotatable=0;points=[[0,0.5],[1,0.5]];portConstraint=eastwest;rounded=0;shadow=0;html=0;" parent="Mfn7tafHpo8cdK77_WL3-38" vertex="1">
                    <mxGeometry y="546" width="260" height="26" as="geometry"/>
                </mxCell>
                <mxCell id="Mfn7tafHpo8cdK77_WL3-49" value="- adminHome: JPanel" style="text;align=left;verticalAlign=top;spacingLeft=4;spacingRight=4;overflow=hidden;rotatable=0;points=[[0,0.5],[1,0.5]];portConstraint=eastwest;rounded=0;shadow=0;html=0;" parent="Mfn7tafHpo8cdK77_WL3-38" vertex="1">
                    <mxGeometry y="572" width="260" height="26" as="geometry"/>
                </mxCell>
                <mxCell id="Mfn7tafHpo8cdK77_WL3-48" value="- pnl1Admin: JPanel" style="text;align=left;verticalAlign=top;spacingLeft=4;spacingRight=4;overflow=hidden;rotatable=0;points=[[0,0.5],[1,0.5]];portConstraint=eastwest;rounded=0;shadow=0;html=0;" parent="Mfn7tafHpo8cdK77_WL3-38" vertex="1">
                    <mxGeometry y="598" width="260" height="26" as="geometry"/>
                </mxCell>
                <mxCell id="Mfn7tafHpo8cdK77_WL3-47" value="- btnReports: JButton" style="text;align=left;verticalAlign=top;spacingLeft=4;spacingRight=4;overflow=hidden;rotatable=0;points=[[0,0.5],[1,0.5]];portConstraint=eastwest;rounded=0;shadow=0;html=0;" parent="Mfn7tafHpo8cdK77_WL3-38" vertex="1">
                    <mxGeometry y="624" width="260" height="26" as="geometry"/>
                </mxCell>
                <mxCell id="Mfn7tafHpo8cdK77_WL3-46" value="- btnRegistration: JButton" style="text;align=left;verticalAlign=top;spacingLeft=4;spacingRight=4;overflow=hidden;rotatable=0;points=[[0,0.5],[1,0.5]];portConstraint=eastwest;rounded=0;shadow=0;html=0;" parent="Mfn7tafHpo8cdK77_WL3-38" vertex="1">
                    <mxGeometry y="650" width="260" height="26" as="geometry"/>
                </mxCell>
                <mxCell id="Mfn7tafHpo8cdK77_WL3-45" value="- btnBooking: JButton" style="text;align=left;verticalAlign=top;spacingLeft=4;spacingRight=4;overflow=hidden;rotatable=0;points=[[0,0.5],[1,0.5]];portConstraint=eastwest;rounded=0;shadow=0;html=0;" parent="Mfn7tafHpo8cdK77_WL3-38" vertex="1">
                    <mxGeometry y="676" width="260" height="26" as="geometry"/>
                </mxCell>
                <mxCell id="Mfn7tafHpo8cdK77_WL3-44" value="- pnl2Admin: JPanel" style="text;align=left;verticalAlign=top;spacingLeft=4;spacingRight=4;overflow=hidden;rotatable=0;points=[[0,0.5],[1,0.5]];portConstraint=eastwest;rounded=0;shadow=0;html=0;" parent="Mfn7tafHpo8cdK77_WL3-38" vertex="1">
                    <mxGeometry y="702" width="260" height="26" as="geometry"/>
                </mxCell>
                <mxCell id="Mfn7tafHpo8cdK77_WL3-43" value="- pnl1Admin: JPanel" style="text;align=left;verticalAlign=top;spacingLeft=4;spacingRight=4;overflow=hidden;rotatable=0;points=[[0,0.5],[1,0.5]];portConstraint=eastwest;rounded=0;shadow=0;html=0;" parent="Mfn7tafHpo8cdK77_WL3-38" vertex="1">
                    <mxGeometry y="728" width="260" height="26" as="geometry"/>
                </mxCell>
                <mxCell id="0" value="+ functions: Function" style="text;align=left;verticalAlign=top;spacingLeft=4;spacingRight=4;overflow=hidden;rotatable=0;points=[[0,0.5],[1,0.5]];portConstraint=eastwest;rounded=0;shadow=0;html=0;" parent="Mfn7tafHpo8cdK77_WL3-38" vertex="1">
                    <mxGeometry y="754" width="260" height="26" as="geometry"/>
                </mxCell>
                <mxCell id="Mfn7tafHpo8cdK77_WL3-40" value="" style="line;strokeWidth=1;fillColor=none;align=left;verticalAlign=middle;spacingTop=-1;spacingLeft=3;spacingRight=3;rotatable=0;labelPosition=right;points=[];portConstraint=eastwest;strokeColor=inherit;" parent="Mfn7tafHpo8cdK77_WL3-38" vertex="1">
                    <mxGeometry y="780" width="260" height="8" as="geometry"/>
                </mxCell>
                <mxCell id="Mfn7tafHpo8cdK77_WL3-41" value="+ App()" style="text;strokeColor=none;fillColor=none;align=left;verticalAlign=top;spacingLeft=4;spacingRight=4;overflow=hidden;rotatable=0;points=[[0,0.5],[1,0.5]];portConstraint=eastwest;" parent="Mfn7tafHpo8cdK77_WL3-38" vertex="1">
                    <mxGeometry y="788" width="260" height="26" as="geometry"/>
                </mxCell>
                <mxCell id="Mfn7tafHpo8cdK77_WL3-70" value="+ mouseClicked(e: MouseEvent): void" style="text;strokeColor=none;fillColor=none;align=left;verticalAlign=top;spacingLeft=4;spacingRight=4;overflow=hidden;rotatable=0;points=[[0,0.5],[1,0.5]];portConstraint=eastwest;" parent="Mfn7tafHpo8cdK77_WL3-38" vertex="1">
                    <mxGeometry y="814" width="260" height="26" as="geometry"/>
                </mxCell>
                <mxCell id="Mfn7tafHpo8cdK77_WL3-71" value="App - Profile Page" style="swimlane;fontStyle=1;align=center;verticalAlign=top;childLayout=stackLayout;horizontal=1;startSize=26;horizontalStack=0;resizeParent=1;resizeParentMax=0;resizeLast=0;collapsible=1;marginBottom=0;" parent="WIyWlLk6GJQsqaUBKTNV-1" vertex="1">
                    <mxGeometry x="1270" y="20" width="270" height="424" as="geometry"/>
                </mxCell>
                <mxCell id="Mfn7tafHpo8cdK77_WL3-75" value="- pnlProfile: JPanel" style="text;align=left;verticalAlign=top;spacingLeft=4;spacingRight=4;overflow=hidden;rotatable=0;points=[[0,0.5],[1,0.5]];portConstraint=eastwest;rounded=0;shadow=0;html=0;" parent="Mfn7tafHpo8cdK77_WL3-71" vertex="1">
                    <mxGeometry y="26" width="270" height="26" as="geometry"/>
                </mxCell>
                <mxCell id="Mfn7tafHpo8cdK77_WL3-84" value="- titleProfile: JLabel" style="text;align=left;verticalAlign=top;spacingLeft=4;spacingRight=4;overflow=hidden;rotatable=0;points=[[0,0.5],[1,0.5]];portConstraint=eastwest;rounded=0;shadow=0;html=0;" parent="Mfn7tafHpo8cdK77_WL3-71" vertex="1">
                    <mxGeometry y="52" width="270" height="26" as="geometry"/>
                </mxCell>
                <mxCell id="Mfn7tafHpo8cdK77_WL3-83" value="- icnEmail: JLabel" style="text;align=left;verticalAlign=top;spacingLeft=4;spacingRight=4;overflow=hidden;rotatable=0;points=[[0,0.5],[1,0.5]];portConstraint=eastwest;rounded=0;shadow=0;html=0;" parent="Mfn7tafHpo8cdK77_WL3-71" vertex="1">
                    <mxGeometry y="78" width="270" height="26" as="geometry"/>
                </mxCell>
                <mxCell id="Mfn7tafHpo8cdK77_WL3-82" value="- icnUsername: JLabel" style="text;align=left;verticalAlign=top;spacingLeft=4;spacingRight=4;overflow=hidden;rotatable=0;points=[[0,0.5],[1,0.5]];portConstraint=eastwest;rounded=0;shadow=0;html=0;" parent="Mfn7tafHpo8cdK77_WL3-71" vertex="1">
                    <mxGeometry y="104" width="270" height="26" as="geometry"/>
                </mxCell>
                <mxCell id="Mfn7tafHpo8cdK77_WL3-81" value="- border2: JLabel" style="text;align=left;verticalAlign=top;spacingLeft=4;spacingRight=4;overflow=hidden;rotatable=0;points=[[0,0.5],[1,0.5]];portConstraint=eastwest;rounded=0;shadow=0;html=0;" parent="Mfn7tafHpo8cdK77_WL3-71" vertex="1">
                    <mxGeometry y="130" width="270" height="26" as="geometry"/>
                </mxCell>
                <mxCell id="Mfn7tafHpo8cdK77_WL3-80" value="- border: JLabel" style="text;align=left;verticalAlign=top;spacingLeft=4;spacingRight=4;overflow=hidden;rotatable=0;points=[[0,0.5],[1,0.5]];portConstraint=eastwest;rounded=0;shadow=0;html=0;" parent="Mfn7tafHpo8cdK77_WL3-71" vertex="1">
                    <mxGeometry y="156" width="270" height="26" as="geometry"/>
                </mxCell>
                <mxCell id="Mfn7tafHpo8cdK77_WL3-79" value="- btnEdit: JButton" style="text;align=left;verticalAlign=top;spacingLeft=4;spacingRight=4;overflow=hidden;rotatable=0;points=[[0,0.5],[1,0.5]];portConstraint=eastwest;rounded=0;shadow=0;html=0;" parent="Mfn7tafHpo8cdK77_WL3-71" vertex="1">
                    <mxGeometry y="182" width="270" height="26" as="geometry"/>
                </mxCell>
                <mxCell id="Mfn7tafHpo8cdK77_WL3-78" value="- lblPhoneNum: JLabel" style="text;align=left;verticalAlign=top;spacingLeft=4;spacingRight=4;overflow=hidden;rotatable=0;points=[[0,0.5],[1,0.5]];portConstraint=eastwest;rounded=0;shadow=0;html=0;" parent="Mfn7tafHpo8cdK77_WL3-71" vertex="1">
                    <mxGeometry y="208" width="270" height="26" as="geometry"/>
                </mxCell>
                <mxCell id="Mfn7tafHpo8cdK77_WL3-77" value="- lblEmail: JLabel" style="text;align=left;verticalAlign=top;spacingLeft=4;spacingRight=4;overflow=hidden;rotatable=0;points=[[0,0.5],[1,0.5]];portConstraint=eastwest;rounded=0;shadow=0;html=0;" parent="Mfn7tafHpo8cdK77_WL3-71" vertex="1">
                    <mxGeometry y="234" width="270" height="26" as="geometry"/>
                </mxCell>
                <mxCell id="Mfn7tafHpo8cdK77_WL3-76" value="- lblUsername: JLabel" style="text;align=left;verticalAlign=top;spacingLeft=4;spacingRight=4;overflow=hidden;rotatable=0;points=[[0,0.5],[1,0.5]];portConstraint=eastwest;rounded=0;shadow=0;html=0;" parent="Mfn7tafHpo8cdK77_WL3-71" vertex="1">
                    <mxGeometry y="260" width="270" height="26" as="geometry"/>
                </mxCell>
                <mxCell id="EJakUDDSdxZKXWGw3saw-4" value="- message: JLabel" style="text;align=left;verticalAlign=top;spacingLeft=4;spacingRight=4;overflow=hidden;rotatable=0;points=[[0,0.5],[1,0.5]];portConstraint=eastwest;rounded=0;shadow=0;html=0;" parent="Mfn7tafHpo8cdK77_WL3-71" vertex="1">
                    <mxGeometry y="286" width="270" height="26" as="geometry"/>
                </mxCell>
                <mxCell id="EJakUDDSdxZKXWGw3saw-3" value="- message2: JLabel" style="text;align=left;verticalAlign=top;spacingLeft=4;spacingRight=4;overflow=hidden;rotatable=0;points=[[0,0.5],[1,0.5]];portConstraint=eastwest;rounded=0;shadow=0;html=0;" parent="Mfn7tafHpo8cdK77_WL3-71" vertex="1">
                    <mxGeometry y="312" width="270" height="26" as="geometry"/>
                </mxCell>
                <mxCell id="EJakUDDSdxZKXWGw3saw-2" value="- message3: JLabel" style="text;align=left;verticalAlign=top;spacingLeft=4;spacingRight=4;overflow=hidden;rotatable=0;points=[[0,0.5],[1,0.5]];portConstraint=eastwest;rounded=0;shadow=0;html=0;" parent="Mfn7tafHpo8cdK77_WL3-71" vertex="1">
                    <mxGeometry y="338" width="270" height="26" as="geometry"/>
                </mxCell>
                <mxCell id="Mfn7tafHpo8cdK77_WL3-73" value="" style="line;strokeWidth=1;fillColor=none;align=left;verticalAlign=middle;spacingTop=-1;spacingLeft=3;spacingRight=3;rotatable=0;labelPosition=right;points=[];portConstraint=eastwest;strokeColor=inherit;" parent="Mfn7tafHpo8cdK77_WL3-71" vertex="1">
                    <mxGeometry y="364" width="270" height="8" as="geometry"/>
                </mxCell>
                <mxCell id="Mfn7tafHpo8cdK77_WL3-85" value="+ App()" style="text;strokeColor=none;fillColor=none;align=left;verticalAlign=top;spacingLeft=4;spacingRight=4;overflow=hidden;rotatable=0;points=[[0,0.5],[1,0.5]];portConstraint=eastwest;" parent="Mfn7tafHpo8cdK77_WL3-71" vertex="1">
                    <mxGeometry y="372" width="270" height="26" as="geometry"/>
                </mxCell>
                <mxCell id="Mfn7tafHpo8cdK77_WL3-86" value="+ mouseClicked(e: MouseEvent): void" style="text;strokeColor=none;fillColor=none;align=left;verticalAlign=top;spacingLeft=4;spacingRight=4;overflow=hidden;rotatable=0;points=[[0,0.5],[1,0.5]];portConstraint=eastwest;" parent="Mfn7tafHpo8cdK77_WL3-71" vertex="1">
                    <mxGeometry y="398" width="270" height="26" as="geometry"/>
                </mxCell>
                <mxCell id="Mfn7tafHpo8cdK77_WL3-87" value="App - Add Page" style="swimlane;fontStyle=1;align=center;verticalAlign=top;childLayout=stackLayout;horizontal=1;startSize=26;horizontalStack=0;resizeParent=1;resizeParentMax=0;resizeLast=0;collapsible=1;marginBottom=0;" parent="WIyWlLk6GJQsqaUBKTNV-1" vertex="1">
                    <mxGeometry x="260" y="-250" width="220" height="294" as="geometry"/>
                </mxCell>
                <mxCell id="Mfn7tafHpo8cdK77_WL3-91" value="- pnlAdd: JPanel" style="text;align=left;verticalAlign=top;spacingLeft=4;spacingRight=4;overflow=hidden;rotatable=0;points=[[0,0.5],[1,0.5]];portConstraint=eastwest;rounded=0;shadow=0;html=0;" parent="Mfn7tafHpo8cdK77_WL3-87" vertex="1">
                    <mxGeometry y="26" width="220" height="26" as="geometry"/>
                </mxCell>
                <mxCell id="Mfn7tafHpo8cdK77_WL3-97" value="- separator1: JSeparator" style="text;align=left;verticalAlign=top;spacingLeft=4;spacingRight=4;overflow=hidden;rotatable=0;points=[[0,0.5],[1,0.5]];portConstraint=eastwest;rounded=0;shadow=0;html=0;" parent="Mfn7tafHpo8cdK77_WL3-87" vertex="1">
                    <mxGeometry y="52" width="220" height="26" as="geometry"/>
                </mxCell>
                <mxCell id="Mfn7tafHpo8cdK77_WL3-96" value="- btnAddCar: JButton" style="text;align=left;verticalAlign=top;spacingLeft=4;spacingRight=4;overflow=hidden;rotatable=0;points=[[0,0.5],[1,0.5]];portConstraint=eastwest;rounded=0;shadow=0;html=0;" parent="Mfn7tafHpo8cdK77_WL3-87" vertex="1">
                    <mxGeometry y="78" width="220" height="26" as="geometry"/>
                </mxCell>
                <mxCell id="Mfn7tafHpo8cdK77_WL3-95" value="- btnAddCus: JButton" style="text;align=left;verticalAlign=top;spacingLeft=4;spacingRight=4;overflow=hidden;rotatable=0;points=[[0,0.5],[1,0.5]];portConstraint=eastwest;rounded=0;shadow=0;html=0;" parent="Mfn7tafHpo8cdK77_WL3-87" vertex="1">
                    <mxGeometry y="104" width="220" height="26" as="geometry"/>
                </mxCell>
                <mxCell id="Mfn7tafHpo8cdK77_WL3-94" value="- txtCar: JLabel" style="text;align=left;verticalAlign=top;spacingLeft=4;spacingRight=4;overflow=hidden;rotatable=0;points=[[0,0.5],[1,0.5]];portConstraint=eastwest;rounded=0;shadow=0;html=0;" parent="Mfn7tafHpo8cdK77_WL3-87" vertex="1">
                    <mxGeometry y="130" width="220" height="26" as="geometry"/>
                </mxCell>
                <mxCell id="Mfn7tafHpo8cdK77_WL3-93" value="- txtCus: JLabel" style="text;align=left;verticalAlign=top;spacingLeft=4;spacingRight=4;overflow=hidden;rotatable=0;points=[[0,0.5],[1,0.5]];portConstraint=eastwest;rounded=0;shadow=0;html=0;" parent="Mfn7tafHpo8cdK77_WL3-87" vertex="1">
                    <mxGeometry y="156" width="220" height="26" as="geometry"/>
                </mxCell>
                <mxCell id="Mfn7tafHpo8cdK77_WL3-98" value="- pnlLeft: JPanel" style="text;align=left;verticalAlign=top;spacingLeft=4;spacingRight=4;overflow=hidden;rotatable=0;points=[[0,0.5],[1,0.5]];portConstraint=eastwest;rounded=0;shadow=0;html=0;" parent="Mfn7tafHpo8cdK77_WL3-87" vertex="1">
                    <mxGeometry y="182" width="220" height="26" as="geometry"/>
                </mxCell>
                <mxCell id="Mfn7tafHpo8cdK77_WL3-92" value="- pnlRight: JPanel" style="text;align=left;verticalAlign=top;spacingLeft=4;spacingRight=4;overflow=hidden;rotatable=0;points=[[0,0.5],[1,0.5]];portConstraint=eastwest;rounded=0;shadow=0;html=0;" parent="Mfn7tafHpo8cdK77_WL3-87" vertex="1">
                    <mxGeometry y="208" width="220" height="26" as="geometry"/>
                </mxCell>
                <mxCell id="Mfn7tafHpo8cdK77_WL3-89" value="" style="line;strokeWidth=1;fillColor=none;align=left;verticalAlign=middle;spacingTop=-1;spacingLeft=3;spacingRight=3;rotatable=0;labelPosition=right;points=[];portConstraint=eastwest;strokeColor=inherit;" parent="Mfn7tafHpo8cdK77_WL3-87" vertex="1">
                    <mxGeometry y="234" width="220" height="8" as="geometry"/>
                </mxCell>
                <mxCell id="Mfn7tafHpo8cdK77_WL3-99" value="+ App()" style="text;strokeColor=none;fillColor=none;align=left;verticalAlign=top;spacingLeft=4;spacingRight=4;overflow=hidden;rotatable=0;points=[[0,0.5],[1,0.5]];portConstraint=eastwest;" parent="Mfn7tafHpo8cdK77_WL3-87" vertex="1">
                    <mxGeometry y="242" width="220" height="26" as="geometry"/>
                </mxCell>
                <mxCell id="Mfn7tafHpo8cdK77_WL3-100" value="+ mouseClicked(e: MouseEvent): void" style="text;strokeColor=none;fillColor=none;align=left;verticalAlign=top;spacingLeft=4;spacingRight=4;overflow=hidden;rotatable=0;points=[[0,0.5],[1,0.5]];portConstraint=eastwest;" parent="Mfn7tafHpo8cdK77_WL3-87" vertex="1">
                    <mxGeometry y="268" width="220" height="26" as="geometry"/>
                </mxCell>
                <mxCell id="Mfn7tafHpo8cdK77_WL3-101" value="App - View Monthly Report Page" style="swimlane;fontStyle=1;align=center;verticalAlign=top;childLayout=stackLayout;horizontal=1;startSize=26;horizontalStack=0;resizeParent=1;resizeParentMax=0;resizeLast=0;collapsible=1;marginBottom=0;" parent="WIyWlLk6GJQsqaUBKTNV-1" vertex="1">
                    <mxGeometry x="220" y="-706" width="250" height="372" as="geometry"/>
                </mxCell>
                <mxCell id="Mfn7tafHpo8cdK77_WL3-105" value="- pnlVMP: JPanel" style="text;align=left;verticalAlign=top;spacingLeft=4;spacingRight=4;overflow=hidden;rotatable=0;points=[[0,0.5],[1,0.5]];portConstraint=eastwest;rounded=0;shadow=0;html=0;" parent="Mfn7tafHpo8cdK77_WL3-101" vertex="1">
                    <mxGeometry y="26" width="250" height="26" as="geometry"/>
                </mxCell>
                <mxCell id="Mfn7tafHpo8cdK77_WL3-115" value="- borderVMP: Border" style="text;align=left;verticalAlign=top;spacingLeft=4;spacingRight=4;overflow=hidden;rotatable=0;points=[[0,0.5],[1,0.5]];portConstraint=eastwest;rounded=0;shadow=0;html=0;" parent="Mfn7tafHpo8cdK77_WL3-101" vertex="1">
                    <mxGeometry y="52" width="250" height="26" as="geometry"/>
                </mxCell>
                <mxCell id="Mfn7tafHpo8cdK77_WL3-114" value="- tablePnl: JPanel" style="text;align=left;verticalAlign=top;spacingLeft=4;spacingRight=4;overflow=hidden;rotatable=0;points=[[0,0.5],[1,0.5]];portConstraint=eastwest;rounded=0;shadow=0;html=0;" parent="Mfn7tafHpo8cdK77_WL3-101" vertex="1">
                    <mxGeometry y="78" width="250" height="26" as="geometry"/>
                </mxCell>
                <mxCell id="Mfn7tafHpo8cdK77_WL3-113" value="- pane: JScrollPane" style="text;align=left;verticalAlign=top;spacingLeft=4;spacingRight=4;overflow=hidden;rotatable=0;points=[[0,0.5],[1,0.5]];portConstraint=eastwest;rounded=0;shadow=0;html=0;" parent="Mfn7tafHpo8cdK77_WL3-101" vertex="1">
                    <mxGeometry y="104" width="250" height="26" as="geometry"/>
                </mxCell>
                <mxCell id="Mfn7tafHpo8cdK77_WL3-112" value="- table: JTable" style="text;align=left;verticalAlign=top;spacingLeft=4;spacingRight=4;overflow=hidden;rotatable=0;points=[[0,0.5],[1,0.5]];portConstraint=eastwest;rounded=0;shadow=0;html=0;" parent="Mfn7tafHpo8cdK77_WL3-101" vertex="1">
                    <mxGeometry y="130" width="250" height="26" as="geometry"/>
                </mxCell>
                <mxCell id="Mfn7tafHpo8cdK77_WL3-111" value="- uncompleted: JCheckBox" style="text;align=left;verticalAlign=top;spacingLeft=4;spacingRight=4;overflow=hidden;rotatable=0;points=[[0,0.5],[1,0.5]];portConstraint=eastwest;rounded=0;shadow=0;html=0;" parent="Mfn7tafHpo8cdK77_WL3-101" vertex="1">
                    <mxGeometry y="156" width="250" height="26" as="geometry"/>
                </mxCell>
                <mxCell id="Mfn7tafHpo8cdK77_WL3-110" value="- completed: JCheckBox" style="text;align=left;verticalAlign=top;spacingLeft=4;spacingRight=4;overflow=hidden;rotatable=0;points=[[0,0.5],[1,0.5]];portConstraint=eastwest;rounded=0;shadow=0;html=0;" parent="Mfn7tafHpo8cdK77_WL3-101" vertex="1">
                    <mxGeometry y="182" width="250" height="26" as="geometry"/>
                </mxCell>
                <mxCell id="Mfn7tafHpo8cdK77_WL3-109" value="- txtTotalIncome: JLabel" style="text;align=left;verticalAlign=top;spacingLeft=4;spacingRight=4;overflow=hidden;rotatable=0;points=[[0,0.5],[1,0.5]];portConstraint=eastwest;rounded=0;shadow=0;html=0;" parent="Mfn7tafHpo8cdK77_WL3-101" vertex="1">
                    <mxGeometry y="208" width="250" height="26" as="geometry"/>
                </mxCell>
                <mxCell id="Mfn7tafHpo8cdK77_WL3-108" value="- totalIncome: JLabel" style="text;align=left;verticalAlign=top;spacingLeft=4;spacingRight=4;overflow=hidden;rotatable=0;points=[[0,0.5],[1,0.5]];portConstraint=eastwest;rounded=0;shadow=0;html=0;" parent="Mfn7tafHpo8cdK77_WL3-101" vertex="1">
                    <mxGeometry y="234" width="250" height="26" as="geometry"/>
                </mxCell>
                <mxCell id="Mfn7tafHpo8cdK77_WL3-107" value="- btnSearch: JButton" style="text;align=left;verticalAlign=top;spacingLeft=4;spacingRight=4;overflow=hidden;rotatable=0;points=[[0,0.5],[1,0.5]];portConstraint=eastwest;rounded=0;shadow=0;html=0;" parent="Mfn7tafHpo8cdK77_WL3-101" vertex="1">
                    <mxGeometry y="260" width="250" height="26" as="geometry"/>
                </mxCell>
                <mxCell id="Mfn7tafHpo8cdK77_WL3-106" value="- btnClear: JButton" style="text;align=left;verticalAlign=top;spacingLeft=4;spacingRight=4;overflow=hidden;rotatable=0;points=[[0,0.5],[1,0.5]];portConstraint=eastwest;rounded=0;shadow=0;html=0;" parent="Mfn7tafHpo8cdK77_WL3-101" vertex="1">
                    <mxGeometry y="286" width="250" height="26" as="geometry"/>
                </mxCell>
                <mxCell id="Mfn7tafHpo8cdK77_WL3-103" value="" style="line;strokeWidth=1;fillColor=none;align=left;verticalAlign=middle;spacingTop=-1;spacingLeft=3;spacingRight=3;rotatable=0;labelPosition=right;points=[];portConstraint=eastwest;strokeColor=inherit;" parent="Mfn7tafHpo8cdK77_WL3-101" vertex="1">
                    <mxGeometry y="312" width="250" height="8" as="geometry"/>
                </mxCell>
                <mxCell id="Mfn7tafHpo8cdK77_WL3-117" value="+ mouseClicked(e: MouseEvent): void" style="text;strokeColor=none;fillColor=none;align=left;verticalAlign=top;spacingLeft=4;spacingRight=4;overflow=hidden;rotatable=0;points=[[0,0.5],[1,0.5]];portConstraint=eastwest;" parent="Mfn7tafHpo8cdK77_WL3-101" vertex="1">
                    <mxGeometry y="320" width="250" height="26" as="geometry"/>
                </mxCell>
                <mxCell id="Mfn7tafHpo8cdK77_WL3-116" value="+ App()" style="text;strokeColor=none;fillColor=none;align=left;verticalAlign=top;spacingLeft=4;spacingRight=4;overflow=hidden;rotatable=0;points=[[0,0.5],[1,0.5]];portConstraint=eastwest;" parent="Mfn7tafHpo8cdK77_WL3-101" vertex="1">
                    <mxGeometry y="346" width="250" height="26" as="geometry"/>
                </mxCell>
                <mxCell id="Mfn7tafHpo8cdK77_WL3-118" value="App - View All Car Page" style="swimlane;fontStyle=1;align=center;verticalAlign=top;childLayout=stackLayout;horizontal=1;startSize=26;horizontalStack=0;resizeParent=1;resizeParentMax=0;resizeLast=0;collapsible=1;marginBottom=0;" parent="WIyWlLk6GJQsqaUBKTNV-1" vertex="1">
                    <mxGeometry x="960" y="20" width="260" height="424" as="geometry"/>
                </mxCell>
                <mxCell id="Mfn7tafHpo8cdK77_WL3-122" value="- btnLearnMoreACP: JButton" style="text;align=left;verticalAlign=top;spacingLeft=4;spacingRight=4;overflow=hidden;rotatable=0;points=[[0,0.5],[1,0.5]];portConstraint=eastwest;rounded=0;shadow=0;html=0;" parent="Mfn7tafHpo8cdK77_WL3-118" vertex="1">
                    <mxGeometry y="26" width="260" height="26" as="geometry"/>
                </mxCell>
                <mxCell id="Mfn7tafHpo8cdK77_WL3-134" value="- pnlViewAllCar: JPanel" style="text;align=left;verticalAlign=top;spacingLeft=4;spacingRight=4;overflow=hidden;rotatable=0;points=[[0,0.5],[1,0.5]];portConstraint=eastwest;rounded=0;shadow=0;html=0;" parent="Mfn7tafHpo8cdK77_WL3-118" vertex="1">
                    <mxGeometry y="52" width="260" height="26" as="geometry"/>
                </mxCell>
                <mxCell id="Mfn7tafHpo8cdK77_WL3-133" value="- tableA: JTabel" style="text;align=left;verticalAlign=top;spacingLeft=4;spacingRight=4;overflow=hidden;rotatable=0;points=[[0,0.5],[1,0.5]];portConstraint=eastwest;rounded=0;shadow=0;html=0;" parent="Mfn7tafHpo8cdK77_WL3-118" vertex="1">
                    <mxGeometry y="78" width="260" height="26" as="geometry"/>
                </mxCell>
                <mxCell id="Mfn7tafHpo8cdK77_WL3-132" value="- paneACP: JScrillPane" style="text;align=left;verticalAlign=top;spacingLeft=4;spacingRight=4;overflow=hidden;rotatable=0;points=[[0,0.5],[1,0.5]];portConstraint=eastwest;rounded=0;shadow=0;html=0;" parent="Mfn7tafHpo8cdK77_WL3-118" vertex="1">
                    <mxGeometry y="104" width="260" height="26" as="geometry"/>
                </mxCell>
                <mxCell id="Mfn7tafHpo8cdK77_WL3-131" value="- tablePnlACP: JPanel" style="text;align=left;verticalAlign=top;spacingLeft=4;spacingRight=4;overflow=hidden;rotatable=0;points=[[0,0.5],[1,0.5]];portConstraint=eastwest;rounded=0;shadow=0;html=0;" parent="Mfn7tafHpo8cdK77_WL3-118" vertex="1">
                    <mxGeometry y="130" width="260" height="26" as="geometry"/>
                </mxCell>
                <mxCell id="Mfn7tafHpo8cdK77_WL3-130" value="- txtCarYear: JLabel" style="text;align=left;verticalAlign=top;spacingLeft=4;spacingRight=4;overflow=hidden;rotatable=0;points=[[0,0.5],[1,0.5]];portConstraint=eastwest;rounded=0;shadow=0;html=0;" parent="Mfn7tafHpo8cdK77_WL3-118" vertex="1">
                    <mxGeometry y="156" width="260" height="26" as="geometry"/>
                </mxCell>
                <mxCell id="Mfn7tafHpo8cdK77_WL3-129" value="- txtCarSeats: JLabel" style="text;align=left;verticalAlign=top;spacingLeft=4;spacingRight=4;overflow=hidden;rotatable=0;points=[[0,0.5],[1,0.5]];portConstraint=eastwest;rounded=0;shadow=0;html=0;" parent="Mfn7tafHpo8cdK77_WL3-118" vertex="1">
                    <mxGeometry y="182" width="260" height="26" as="geometry"/>
                </mxCell>
                <mxCell id="Mfn7tafHpo8cdK77_WL3-128" value="- txtCarPrice: JLabel" style="text;align=left;verticalAlign=top;spacingLeft=4;spacingRight=4;overflow=hidden;rotatable=0;points=[[0,0.5],[1,0.5]];portConstraint=eastwest;rounded=0;shadow=0;html=0;" parent="Mfn7tafHpo8cdK77_WL3-118" vertex="1">
                    <mxGeometry y="208" width="260" height="26" as="geometry"/>
                </mxCell>
                <mxCell id="Mfn7tafHpo8cdK77_WL3-127" value="- txtCarModel: JLabel" style="text;align=left;verticalAlign=top;spacingLeft=4;spacingRight=4;overflow=hidden;rotatable=0;points=[[0,0.5],[1,0.5]];portConstraint=eastwest;rounded=0;shadow=0;html=0;" parent="Mfn7tafHpo8cdK77_WL3-118" vertex="1">
                    <mxGeometry y="234" width="260" height="26" as="geometry"/>
                </mxCell>
                <mxCell id="Mfn7tafHpo8cdK77_WL3-126" value="- lblCarPrice: JLabel" style="text;align=left;verticalAlign=top;spacingLeft=4;spacingRight=4;overflow=hidden;rotatable=0;points=[[0,0.5],[1,0.5]];portConstraint=eastwest;rounded=0;shadow=0;html=0;" parent="Mfn7tafHpo8cdK77_WL3-118" vertex="1">
                    <mxGeometry y="260" width="260" height="26" as="geometry"/>
                </mxCell>
                <mxCell id="Mfn7tafHpo8cdK77_WL3-125" value="- lblCarSeats: JLabel" style="text;align=left;verticalAlign=top;spacingLeft=4;spacingRight=4;overflow=hidden;rotatable=0;points=[[0,0.5],[1,0.5]];portConstraint=eastwest;rounded=0;shadow=0;html=0;" parent="Mfn7tafHpo8cdK77_WL3-118" vertex="1">
                    <mxGeometry y="286" width="260" height="26" as="geometry"/>
                </mxCell>
                <mxCell id="Mfn7tafHpo8cdK77_WL3-124" value="- lblCarYear: JLabel" style="text;align=left;verticalAlign=top;spacingLeft=4;spacingRight=4;overflow=hidden;rotatable=0;points=[[0,0.5],[1,0.5]];portConstraint=eastwest;rounded=0;shadow=0;html=0;" parent="Mfn7tafHpo8cdK77_WL3-118" vertex="1">
                    <mxGeometry y="312" width="260" height="26" as="geometry"/>
                </mxCell>
                <mxCell id="Mfn7tafHpo8cdK77_WL3-123" value="- lblCarModel: JLabel" style="text;align=left;verticalAlign=top;spacingLeft=4;spacingRight=4;overflow=hidden;rotatable=0;points=[[0,0.5],[1,0.5]];portConstraint=eastwest;rounded=0;shadow=0;html=0;" parent="Mfn7tafHpo8cdK77_WL3-118" vertex="1">
                    <mxGeometry y="338" width="260" height="26" as="geometry"/>
                </mxCell>
                <mxCell id="Mfn7tafHpo8cdK77_WL3-120" value="" style="line;strokeWidth=1;fillColor=none;align=left;verticalAlign=middle;spacingTop=-1;spacingLeft=3;spacingRight=3;rotatable=0;labelPosition=right;points=[];portConstraint=eastwest;strokeColor=inherit;" parent="Mfn7tafHpo8cdK77_WL3-118" vertex="1">
                    <mxGeometry y="364" width="260" height="8" as="geometry"/>
                </mxCell>
                <mxCell id="Mfn7tafHpo8cdK77_WL3-135" value="+ App()" style="text;strokeColor=none;fillColor=none;align=left;verticalAlign=top;spacingLeft=4;spacingRight=4;overflow=hidden;rotatable=0;points=[[0,0.5],[1,0.5]];portConstraint=eastwest;" parent="Mfn7tafHpo8cdK77_WL3-118" vertex="1">
                    <mxGeometry y="372" width="260" height="26" as="geometry"/>
                </mxCell>
                <mxCell id="Mfn7tafHpo8cdK77_WL3-136" value="+ mouseClicked(e: MouseEvent): void" style="text;strokeColor=none;fillColor=none;align=left;verticalAlign=top;spacingLeft=4;spacingRight=4;overflow=hidden;rotatable=0;points=[[0,0.5],[1,0.5]];portConstraint=eastwest;" parent="Mfn7tafHpo8cdK77_WL3-118" vertex="1">
                    <mxGeometry y="398" width="260" height="26" as="geometry"/>
                </mxCell>
                <mxCell id="Mfn7tafHpo8cdK77_WL3-137" value="App - Registration Page" style="swimlane;fontStyle=1;align=center;verticalAlign=top;childLayout=stackLayout;horizontal=1;startSize=26;horizontalStack=0;resizeParent=1;resizeParentMax=0;resizeLast=0;collapsible=1;marginBottom=0;" parent="WIyWlLk6GJQsqaUBKTNV-1" vertex="1">
                    <mxGeometry x="-220" y="-750" width="240" height="528" as="geometry"/>
                </mxCell>
                <mxCell id="Mfn7tafHpo8cdK77_WL3-141" value="- pnlR: JPanel" style="text;align=left;verticalAlign=top;spacingLeft=4;spacingRight=4;overflow=hidden;rotatable=0;points=[[0,0.5],[1,0.5]];portConstraint=eastwest;rounded=0;shadow=0;html=0;" parent="Mfn7tafHpo8cdK77_WL3-137" vertex="1">
                    <mxGeometry y="26" width="240" height="26" as="geometry"/>
                </mxCell>
                <mxCell id="Mfn7tafHpo8cdK77_WL3-157" value="- icnPasswordR: JLabel" style="text;align=left;verticalAlign=top;spacingLeft=4;spacingRight=4;overflow=hidden;rotatable=0;points=[[0,0.5],[1,0.5]];portConstraint=eastwest;rounded=0;shadow=0;html=0;" parent="Mfn7tafHpo8cdK77_WL3-137" vertex="1">
                    <mxGeometry y="52" width="240" height="26" as="geometry"/>
                </mxCell>
                <mxCell id="Mfn7tafHpo8cdK77_WL3-156" value="- icnEmailR: JLabel" style="text;align=left;verticalAlign=top;spacingLeft=4;spacingRight=4;overflow=hidden;rotatable=0;points=[[0,0.5],[1,0.5]];portConstraint=eastwest;rounded=0;shadow=0;html=0;" parent="Mfn7tafHpo8cdK77_WL3-137" vertex="1">
                    <mxGeometry y="78" width="240" height="26" as="geometry"/>
                </mxCell>
                <mxCell id="Mfn7tafHpo8cdK77_WL3-155" value="- icnPhoneNumR: JLabel" style="text;align=left;verticalAlign=top;spacingLeft=4;spacingRight=4;overflow=hidden;rotatable=0;points=[[0,0.5],[1,0.5]];portConstraint=eastwest;rounded=0;shadow=0;html=0;" parent="Mfn7tafHpo8cdK77_WL3-137" vertex="1">
                    <mxGeometry y="104" width="240" height="26" as="geometry"/>
                </mxCell>
                <mxCell id="Mfn7tafHpo8cdK77_WL3-154" value="- icnUsernameR: JLabel" style="text;align=left;verticalAlign=top;spacingLeft=4;spacingRight=4;overflow=hidden;rotatable=0;points=[[0,0.5],[1,0.5]];portConstraint=eastwest;rounded=0;shadow=0;html=0;" parent="Mfn7tafHpo8cdK77_WL3-137" vertex="1">
                    <mxGeometry y="130" width="240" height="26" as="geometry"/>
                </mxCell>
                <mxCell id="Mfn7tafHpo8cdK77_WL3-153" value="- car2R: JLabel" style="text;align=left;verticalAlign=top;spacingLeft=4;spacingRight=4;overflow=hidden;rotatable=0;points=[[0,0.5],[1,0.5]];portConstraint=eastwest;rounded=0;shadow=0;html=0;" parent="Mfn7tafHpo8cdK77_WL3-137" vertex="1">
                    <mxGeometry y="156" width="240" height="26" as="geometry"/>
                </mxCell>
                <mxCell id="Mfn7tafHpo8cdK77_WL3-152" value="- car1R: JLabel" style="text;align=left;verticalAlign=top;spacingLeft=4;spacingRight=4;overflow=hidden;rotatable=0;points=[[0,0.5],[1,0.5]];portConstraint=eastwest;rounded=0;shadow=0;html=0;" parent="Mfn7tafHpo8cdK77_WL3-137" vertex="1">
                    <mxGeometry y="182" width="240" height="26" as="geometry"/>
                </mxCell>
                <mxCell id="Mfn7tafHpo8cdK77_WL3-151" value="- pageTitleR: JLabel" style="text;align=left;verticalAlign=top;spacingLeft=4;spacingRight=4;overflow=hidden;rotatable=0;points=[[0,0.5],[1,0.5]];portConstraint=eastwest;rounded=0;shadow=0;html=0;" parent="Mfn7tafHpo8cdK77_WL3-137" vertex="1">
                    <mxGeometry y="208" width="240" height="26" as="geometry"/>
                </mxCell>
                <mxCell id="Mfn7tafHpo8cdK77_WL3-150" value="- txtPhoneNumR: JTextField" style="text;align=left;verticalAlign=top;spacingLeft=4;spacingRight=4;overflow=hidden;rotatable=0;points=[[0,0.5],[1,0.5]];portConstraint=eastwest;rounded=0;shadow=0;html=0;" parent="Mfn7tafHpo8cdK77_WL3-137" vertex="1">
                    <mxGeometry y="234" width="240" height="26" as="geometry"/>
                </mxCell>
                <mxCell id="Mfn7tafHpo8cdK77_WL3-149" value="- txtEmailR: JTextField" style="text;align=left;verticalAlign=top;spacingLeft=4;spacingRight=4;overflow=hidden;rotatable=0;points=[[0,0.5],[1,0.5]];portConstraint=eastwest;rounded=0;shadow=0;html=0;" parent="Mfn7tafHpo8cdK77_WL3-137" vertex="1">
                    <mxGeometry y="260" width="240" height="26" as="geometry"/>
                </mxCell>
                <mxCell id="Mfn7tafHpo8cdK77_WL3-148" value="- txtPasswordR: JTextField" style="text;align=left;verticalAlign=top;spacingLeft=4;spacingRight=4;overflow=hidden;rotatable=0;points=[[0,0.5],[1,0.5]];portConstraint=eastwest;rounded=0;shadow=0;html=0;" parent="Mfn7tafHpo8cdK77_WL3-137" vertex="1">
                    <mxGeometry y="286" width="240" height="26" as="geometry"/>
                </mxCell>
                <mxCell id="Mfn7tafHpo8cdK77_WL3-147" value="- txtUsernameR: JTextField" style="text;align=left;verticalAlign=top;spacingLeft=4;spacingRight=4;overflow=hidden;rotatable=0;points=[[0,0.5],[1,0.5]];portConstraint=eastwest;rounded=0;shadow=0;html=0;" parent="Mfn7tafHpo8cdK77_WL3-137" vertex="1">
                    <mxGeometry y="312" width="240" height="26" as="geometry"/>
                </mxCell>
                <mxCell id="Mfn7tafHpo8cdK77_WL3-146" value="- separator4R: JSeparator" style="text;align=left;verticalAlign=top;spacingLeft=4;spacingRight=4;overflow=hidden;rotatable=0;points=[[0,0.5],[1,0.5]];portConstraint=eastwest;rounded=0;shadow=0;html=0;" parent="Mfn7tafHpo8cdK77_WL3-137" vertex="1">
                    <mxGeometry y="338" width="240" height="26" as="geometry"/>
                </mxCell>
                <mxCell id="Mfn7tafHpo8cdK77_WL3-145" value="- separator3R: JSeparator" style="text;align=left;verticalAlign=top;spacingLeft=4;spacingRight=4;overflow=hidden;rotatable=0;points=[[0,0.5],[1,0.5]];portConstraint=eastwest;rounded=0;shadow=0;html=0;" parent="Mfn7tafHpo8cdK77_WL3-137" vertex="1">
                    <mxGeometry y="364" width="240" height="26" as="geometry"/>
                </mxCell>
                <mxCell id="Mfn7tafHpo8cdK77_WL3-144" value="- separator2R: JSeparator" style="text;align=left;verticalAlign=top;spacingLeft=4;spacingRight=4;overflow=hidden;rotatable=0;points=[[0,0.5],[1,0.5]];portConstraint=eastwest;rounded=0;shadow=0;html=0;" parent="Mfn7tafHpo8cdK77_WL3-137" vertex="1">
                    <mxGeometry y="390" width="240" height="26" as="geometry"/>
                </mxCell>
                <mxCell id="Mfn7tafHpo8cdK77_WL3-143" value="- separator1R: JSeparator" style="text;align=left;verticalAlign=top;spacingLeft=4;spacingRight=4;overflow=hidden;rotatable=0;points=[[0,0.5],[1,0.5]];portConstraint=eastwest;rounded=0;shadow=0;html=0;" parent="Mfn7tafHpo8cdK77_WL3-137" vertex="1">
                    <mxGeometry y="416" width="240" height="26" as="geometry"/>
                </mxCell>
                <mxCell id="Mfn7tafHpo8cdK77_WL3-142" value="- btnRegisterR: JButton" style="text;align=left;verticalAlign=top;spacingLeft=4;spacingRight=4;overflow=hidden;rotatable=0;points=[[0,0.5],[1,0.5]];portConstraint=eastwest;rounded=0;shadow=0;html=0;" parent="Mfn7tafHpo8cdK77_WL3-137" vertex="1">
                    <mxGeometry y="442" width="240" height="26" as="geometry"/>
                </mxCell>
                <mxCell id="Mfn7tafHpo8cdK77_WL3-139" value="" style="line;strokeWidth=1;fillColor=none;align=left;verticalAlign=middle;spacingTop=-1;spacingLeft=3;spacingRight=3;rotatable=0;labelPosition=right;points=[];portConstraint=eastwest;strokeColor=inherit;" parent="Mfn7tafHpo8cdK77_WL3-137" vertex="1">
                    <mxGeometry y="468" width="240" height="8" as="geometry"/>
                </mxCell>
                <mxCell id="Mfn7tafHpo8cdK77_WL3-158" value="+ App()" style="text;strokeColor=none;fillColor=none;align=left;verticalAlign=top;spacingLeft=4;spacingRight=4;overflow=hidden;rotatable=0;points=[[0,0.5],[1,0.5]];portConstraint=eastwest;" parent="Mfn7tafHpo8cdK77_WL3-137" vertex="1">
                    <mxGeometry y="476" width="240" height="26" as="geometry"/>
                </mxCell>
                <mxCell id="Mfn7tafHpo8cdK77_WL3-159" value="+ mouseClicked(e: MouseEvent): void" style="text;strokeColor=none;fillColor=none;align=left;verticalAlign=top;spacingLeft=4;spacingRight=4;overflow=hidden;rotatable=0;points=[[0,0.5],[1,0.5]];portConstraint=eastwest;" parent="Mfn7tafHpo8cdK77_WL3-137" vertex="1">
                    <mxGeometry y="502" width="240" height="26" as="geometry"/>
                </mxCell>
                <mxCell id="Mfn7tafHpo8cdK77_WL3-160" value="App - Add Car Admin Page" style="swimlane;fontStyle=1;align=center;verticalAlign=top;childLayout=stackLayout;horizontal=1;startSize=26;horizontalStack=0;resizeParent=1;resizeParentMax=0;resizeLast=0;collapsible=1;marginBottom=0;" parent="WIyWlLk6GJQsqaUBKTNV-1" vertex="1">
                    <mxGeometry x="-210" y="-140" width="240" height="762" as="geometry"/>
                </mxCell>
                <mxCell id="Mfn7tafHpo8cdK77_WL3-189" value="- borderAC: Border" style="text;align=left;verticalAlign=top;spacingLeft=4;spacingRight=4;overflow=hidden;rotatable=0;points=[[0,0.5],[1,0.5]];portConstraint=eastwest;rounded=0;shadow=0;html=0;" parent="Mfn7tafHpo8cdK77_WL3-160" vertex="1">
                    <mxGeometry y="26" width="240" height="26" as="geometry"/>
                </mxCell>
                <mxCell id="Mfn7tafHpo8cdK77_WL3-188" value="- paneAC: JScrollPane" style="text;align=left;verticalAlign=top;spacingLeft=4;spacingRight=4;overflow=hidden;rotatable=0;points=[[0,0.5],[1,0.5]];portConstraint=eastwest;rounded=0;shadow=0;html=0;" parent="Mfn7tafHpo8cdK77_WL3-160" vertex="1">
                    <mxGeometry y="52" width="240" height="26" as="geometry"/>
                </mxCell>
                <mxCell id="Mfn7tafHpo8cdK77_WL3-187" value="- separator6AC: JSeparator" style="text;align=left;verticalAlign=top;spacingLeft=4;spacingRight=4;overflow=hidden;rotatable=0;points=[[0,0.5],[1,0.5]];portConstraint=eastwest;rounded=0;shadow=0;html=0;" parent="Mfn7tafHpo8cdK77_WL3-160" vertex="1">
                    <mxGeometry y="78" width="240" height="26" as="geometry"/>
                </mxCell>
                <mxCell id="Mfn7tafHpo8cdK77_WL3-186" value="- separator5AC: JSeparator" style="text;align=left;verticalAlign=top;spacingLeft=4;spacingRight=4;overflow=hidden;rotatable=0;points=[[0,0.5],[1,0.5]];portConstraint=eastwest;rounded=0;shadow=0;html=0;" parent="Mfn7tafHpo8cdK77_WL3-160" vertex="1">
                    <mxGeometry y="104" width="240" height="26" as="geometry"/>
                </mxCell>
                <mxCell id="Mfn7tafHpo8cdK77_WL3-185" value="- separator4AC: JSeparator" style="text;align=left;verticalAlign=top;spacingLeft=4;spacingRight=4;overflow=hidden;rotatable=0;points=[[0,0.5],[1,0.5]];portConstraint=eastwest;rounded=0;shadow=0;html=0;" parent="Mfn7tafHpo8cdK77_WL3-160" vertex="1">
                    <mxGeometry y="130" width="240" height="26" as="geometry"/>
                </mxCell>
                <mxCell id="Mfn7tafHpo8cdK77_WL3-184" value="- separator3AC: JSeparator" style="text;align=left;verticalAlign=top;spacingLeft=4;spacingRight=4;overflow=hidden;rotatable=0;points=[[0,0.5],[1,0.5]];portConstraint=eastwest;rounded=0;shadow=0;html=0;" parent="Mfn7tafHpo8cdK77_WL3-160" vertex="1">
                    <mxGeometry y="156" width="240" height="26" as="geometry"/>
                </mxCell>
                <mxCell id="Mfn7tafHpo8cdK77_WL3-183" value="- separator2AC: JSeparator" style="text;align=left;verticalAlign=top;spacingLeft=4;spacingRight=4;overflow=hidden;rotatable=0;points=[[0,0.5],[1,0.5]];portConstraint=eastwest;rounded=0;shadow=0;html=0;" parent="Mfn7tafHpo8cdK77_WL3-160" vertex="1">
                    <mxGeometry y="182" width="240" height="26" as="geometry"/>
                </mxCell>
                <mxCell id="Mfn7tafHpo8cdK77_WL3-182" value="- separator1AC: JSeparator" style="text;align=left;verticalAlign=top;spacingLeft=4;spacingRight=4;overflow=hidden;rotatable=0;points=[[0,0.5],[1,0.5]];portConstraint=eastwest;rounded=0;shadow=0;html=0;" parent="Mfn7tafHpo8cdK77_WL3-160" vertex="1">
                    <mxGeometry y="208" width="240" height="26" as="geometry"/>
                </mxCell>
                <mxCell id="Mfn7tafHpo8cdK77_WL3-181" value="- tablePnlAC: JPanel" style="text;align=left;verticalAlign=top;spacingLeft=4;spacingRight=4;overflow=hidden;rotatable=0;points=[[0,0.5],[1,0.5]];portConstraint=eastwest;rounded=0;shadow=0;html=0;" parent="Mfn7tafHpo8cdK77_WL3-160" vertex="1">
                    <mxGeometry y="234" width="240" height="26" as="geometry"/>
                </mxCell>
                <mxCell id="Mfn7tafHpo8cdK77_WL3-180" value="- tableAC: JTable" style="text;align=left;verticalAlign=top;spacingLeft=4;spacingRight=4;overflow=hidden;rotatable=0;points=[[0,0.5],[1,0.5]];portConstraint=eastwest;rounded=0;shadow=0;html=0;" parent="Mfn7tafHpo8cdK77_WL3-160" vertex="1">
                    <mxGeometry y="260" width="240" height="26" as="geometry"/>
                </mxCell>
                <mxCell id="Mfn7tafHpo8cdK77_WL3-179" value="- btnAddAC: JButton" style="text;align=left;verticalAlign=top;spacingLeft=4;spacingRight=4;overflow=hidden;rotatable=0;points=[[0,0.5],[1,0.5]];portConstraint=eastwest;rounded=0;shadow=0;html=0;" parent="Mfn7tafHpo8cdK77_WL3-160" vertex="1">
                    <mxGeometry y="286" width="240" height="26" as="geometry"/>
                </mxCell>
                <mxCell id="Mfn7tafHpo8cdK77_WL3-178" value="- btnCancelAC: JButton" style="text;align=left;verticalAlign=top;spacingLeft=4;spacingRight=4;overflow=hidden;rotatable=0;points=[[0,0.5],[1,0.5]];portConstraint=eastwest;rounded=0;shadow=0;html=0;" parent="Mfn7tafHpo8cdK77_WL3-160" vertex="1">
                    <mxGeometry y="312" width="240" height="26" as="geometry"/>
                </mxCell>
                <mxCell id="Mfn7tafHpo8cdK77_WL3-177" value="- btnClearAC: JButton" style="text;align=left;verticalAlign=top;spacingLeft=4;spacingRight=4;overflow=hidden;rotatable=0;points=[[0,0.5],[1,0.5]];portConstraint=eastwest;rounded=0;shadow=0;html=0;" parent="Mfn7tafHpo8cdK77_WL3-160" vertex="1">
                    <mxGeometry y="338" width="240" height="26" as="geometry"/>
                </mxCell>
                <mxCell id="Mfn7tafHpo8cdK77_WL3-176" value="- txtCarPriceAC: JTextField" style="text;align=left;verticalAlign=top;spacingLeft=4;spacingRight=4;overflow=hidden;rotatable=0;points=[[0,0.5],[1,0.5]];portConstraint=eastwest;rounded=0;shadow=0;html=0;" parent="Mfn7tafHpo8cdK77_WL3-160" vertex="1">
                    <mxGeometry y="364" width="240" height="26" as="geometry"/>
                </mxCell>
                <mxCell id="Mfn7tafHpo8cdK77_WL3-175" value="- txtCarSeatAC: JTextField" style="text;align=left;verticalAlign=top;spacingLeft=4;spacingRight=4;overflow=hidden;rotatable=0;points=[[0,0.5],[1,0.5]];portConstraint=eastwest;rounded=0;shadow=0;html=0;" parent="Mfn7tafHpo8cdK77_WL3-160" vertex="1">
                    <mxGeometry y="390" width="240" height="26" as="geometry"/>
                </mxCell>
                <mxCell id="Mfn7tafHpo8cdK77_WL3-174" value="- txtCarYearAC: JTextField" style="text;align=left;verticalAlign=top;spacingLeft=4;spacingRight=4;overflow=hidden;rotatable=0;points=[[0,0.5],[1,0.5]];portConstraint=eastwest;rounded=0;shadow=0;html=0;" parent="Mfn7tafHpo8cdK77_WL3-160" vertex="1">
                    <mxGeometry y="416" width="240" height="26" as="geometry"/>
                </mxCell>
                <mxCell id="Mfn7tafHpo8cdK77_WL3-173" value="- txtCarPlateNumAC: JTextField" style="text;align=left;verticalAlign=top;spacingLeft=4;spacingRight=4;overflow=hidden;rotatable=0;points=[[0,0.5],[1,0.5]];portConstraint=eastwest;rounded=0;shadow=0;html=0;" parent="Mfn7tafHpo8cdK77_WL3-160" vertex="1">
                    <mxGeometry y="442" width="240" height="26" as="geometry"/>
                </mxCell>
                <mxCell id="Mfn7tafHpo8cdK77_WL3-172" value="- txtCarModelAC: JTextField" style="text;align=left;verticalAlign=top;spacingLeft=4;spacingRight=4;overflow=hidden;rotatable=0;points=[[0,0.5],[1,0.5]];portConstraint=eastwest;rounded=0;shadow=0;html=0;" parent="Mfn7tafHpo8cdK77_WL3-160" vertex="1">
                    <mxGeometry y="468" width="240" height="26" as="geometry"/>
                </mxCell>
                <mxCell id="Mfn7tafHpo8cdK77_WL3-171" value="- txtCarBrandAC: JTextField" style="text;align=left;verticalAlign=top;spacingLeft=4;spacingRight=4;overflow=hidden;rotatable=0;points=[[0,0.5],[1,0.5]];portConstraint=eastwest;rounded=0;shadow=0;html=0;" parent="Mfn7tafHpo8cdK77_WL3-160" vertex="1">
                    <mxGeometry y="494" width="240" height="26" as="geometry"/>
                </mxCell>
                <mxCell id="Mfn7tafHpo8cdK77_WL3-170" value="- carPriceAC: JLabel" style="text;align=left;verticalAlign=top;spacingLeft=4;spacingRight=4;overflow=hidden;rotatable=0;points=[[0,0.5],[1,0.5]];portConstraint=eastwest;rounded=0;shadow=0;html=0;" parent="Mfn7tafHpo8cdK77_WL3-160" vertex="1">
                    <mxGeometry y="520" width="240" height="26" as="geometry"/>
                </mxCell>
                <mxCell id="Mfn7tafHpo8cdK77_WL3-169" value="- carSeatAC: JLabel" style="text;align=left;verticalAlign=top;spacingLeft=4;spacingRight=4;overflow=hidden;rotatable=0;points=[[0,0.5],[1,0.5]];portConstraint=eastwest;rounded=0;shadow=0;html=0;" parent="Mfn7tafHpo8cdK77_WL3-160" vertex="1">
                    <mxGeometry y="546" width="240" height="26" as="geometry"/>
                </mxCell>
                <mxCell id="Mfn7tafHpo8cdK77_WL3-168" value="- carYearAC: JLabel" style="text;align=left;verticalAlign=top;spacingLeft=4;spacingRight=4;overflow=hidden;rotatable=0;points=[[0,0.5],[1,0.5]];portConstraint=eastwest;rounded=0;shadow=0;html=0;" parent="Mfn7tafHpo8cdK77_WL3-160" vertex="1">
                    <mxGeometry y="572" width="240" height="26" as="geometry"/>
                </mxCell>
                <mxCell id="Mfn7tafHpo8cdK77_WL3-167" value="- carPlateNumAC: JLabel" style="text;align=left;verticalAlign=top;spacingLeft=4;spacingRight=4;overflow=hidden;rotatable=0;points=[[0,0.5],[1,0.5]];portConstraint=eastwest;rounded=0;shadow=0;html=0;" parent="Mfn7tafHpo8cdK77_WL3-160" vertex="1">
                    <mxGeometry y="598" width="240" height="26" as="geometry"/>
                </mxCell>
                <mxCell id="Mfn7tafHpo8cdK77_WL3-166" value="- carModelAC: JLabel" style="text;align=left;verticalAlign=top;spacingLeft=4;spacingRight=4;overflow=hidden;rotatable=0;points=[[0,0.5],[1,0.5]];portConstraint=eastwest;rounded=0;shadow=0;html=0;" parent="Mfn7tafHpo8cdK77_WL3-160" vertex="1">
                    <mxGeometry y="624" width="240" height="26" as="geometry"/>
                </mxCell>
                <mxCell id="Mfn7tafHpo8cdK77_WL3-165" value="- carBrandAC: JLabel" style="text;align=left;verticalAlign=top;spacingLeft=4;spacingRight=4;overflow=hidden;rotatable=0;points=[[0,0.5],[1,0.5]];portConstraint=eastwest;rounded=0;shadow=0;html=0;" parent="Mfn7tafHpo8cdK77_WL3-160" vertex="1">
                    <mxGeometry y="650" width="240" height="26" as="geometry"/>
                </mxCell>
                <mxCell id="Mfn7tafHpo8cdK77_WL3-164" value="- pnlAC: JPanel" style="text;align=left;verticalAlign=top;spacingLeft=4;spacingRight=4;overflow=hidden;rotatable=0;points=[[0,0.5],[1,0.5]];portConstraint=eastwest;rounded=0;shadow=0;html=0;" parent="Mfn7tafHpo8cdK77_WL3-160" vertex="1">
                    <mxGeometry y="676" width="240" height="26" as="geometry"/>
                </mxCell>
                <mxCell id="Mfn7tafHpo8cdK77_WL3-162" value="" style="line;strokeWidth=1;fillColor=none;align=left;verticalAlign=middle;spacingTop=-1;spacingLeft=3;spacingRight=3;rotatable=0;labelPosition=right;points=[];portConstraint=eastwest;strokeColor=inherit;" parent="Mfn7tafHpo8cdK77_WL3-160" vertex="1">
                    <mxGeometry y="702" width="240" height="8" as="geometry"/>
                </mxCell>
                <mxCell id="Mfn7tafHpo8cdK77_WL3-190" value="+ App()" style="text;strokeColor=none;fillColor=none;align=left;verticalAlign=top;spacingLeft=4;spacingRight=4;overflow=hidden;rotatable=0;points=[[0,0.5],[1,0.5]];portConstraint=eastwest;" parent="Mfn7tafHpo8cdK77_WL3-160" vertex="1">
                    <mxGeometry y="710" width="240" height="26" as="geometry"/>
                </mxCell>
                <mxCell id="Mfn7tafHpo8cdK77_WL3-191" value="+ mouseClicked(e: MouseEvent): void" style="text;strokeColor=none;fillColor=none;align=left;verticalAlign=top;spacingLeft=4;spacingRight=4;overflow=hidden;rotatable=0;points=[[0,0.5],[1,0.5]];portConstraint=eastwest;" parent="Mfn7tafHpo8cdK77_WL3-160" vertex="1">
                    <mxGeometry y="736" width="240" height="26" as="geometry"/>
                </mxCell>
                <mxCell id="Mfn7tafHpo8cdK77_WL3-192" value="App - Edit Profile Page" style="swimlane;fontStyle=1;align=center;verticalAlign=top;childLayout=stackLayout;horizontal=1;startSize=26;horizontalStack=0;resizeParent=1;resizeParentMax=0;resizeLast=0;collapsible=1;marginBottom=0;" parent="WIyWlLk6GJQsqaUBKTNV-1" vertex="1">
                    <mxGeometry x="1330" y="530" width="240" height="476" as="geometry"/>
                </mxCell>
                <mxCell id="Mfn7tafHpo8cdK77_WL3-196" value="- pnlEP: JPanel" style="text;align=left;verticalAlign=top;spacingLeft=4;spacingRight=4;overflow=hidden;rotatable=0;points=[[0,0.5],[1,0.5]];portConstraint=eastwest;rounded=0;shadow=0;html=0;" parent="Mfn7tafHpo8cdK77_WL3-192" vertex="1">
                    <mxGeometry y="26" width="240" height="26" as="geometry"/>
                </mxCell>
                <mxCell id="Mfn7tafHpo8cdK77_WL3-210" value="- carPicEP: JLabel" style="text;align=left;verticalAlign=top;spacingLeft=4;spacingRight=4;overflow=hidden;rotatable=0;points=[[0,0.5],[1,0.5]];portConstraint=eastwest;rounded=0;shadow=0;html=0;" parent="Mfn7tafHpo8cdK77_WL3-192" vertex="1">
                    <mxGeometry y="52" width="240" height="26" as="geometry"/>
                </mxCell>
                <mxCell id="Mfn7tafHpo8cdK77_WL3-209" value="- icnEmailEP: JLabel" style="text;align=left;verticalAlign=top;spacingLeft=4;spacingRight=4;overflow=hidden;rotatable=0;points=[[0,0.5],[1,0.5]];portConstraint=eastwest;rounded=0;shadow=0;html=0;" parent="Mfn7tafHpo8cdK77_WL3-192" vertex="1">
                    <mxGeometry y="78" width="240" height="26" as="geometry"/>
                </mxCell>
                <mxCell id="Mfn7tafHpo8cdK77_WL3-208" value="- icnPhoneNumEP: JLabel" style="text;align=left;verticalAlign=top;spacingLeft=4;spacingRight=4;overflow=hidden;rotatable=0;points=[[0,0.5],[1,0.5]];portConstraint=eastwest;rounded=0;shadow=0;html=0;" parent="Mfn7tafHpo8cdK77_WL3-192" vertex="1">
                    <mxGeometry y="104" width="240" height="26" as="geometry"/>
                </mxCell>
                <mxCell id="Mfn7tafHpo8cdK77_WL3-207" value="- icnUsernameEP: JLabel" style="text;align=left;verticalAlign=top;spacingLeft=4;spacingRight=4;overflow=hidden;rotatable=0;points=[[0,0.5],[1,0.5]];portConstraint=eastwest;rounded=0;shadow=0;html=0;" parent="Mfn7tafHpo8cdK77_WL3-192" vertex="1">
                    <mxGeometry y="130" width="240" height="26" as="geometry"/>
                </mxCell>
                <mxCell id="Mfn7tafHpo8cdK77_WL3-206" value="- separator3EP: JSeparator" style="text;align=left;verticalAlign=top;spacingLeft=4;spacingRight=4;overflow=hidden;rotatable=0;points=[[0,0.5],[1,0.5]];portConstraint=eastwest;rounded=0;shadow=0;html=0;" parent="Mfn7tafHpo8cdK77_WL3-192" vertex="1">
                    <mxGeometry y="156" width="240" height="26" as="geometry"/>
                </mxCell>
                <mxCell id="Mfn7tafHpo8cdK77_WL3-205" value="- separator2EP: JSeparator" style="text;align=left;verticalAlign=top;spacingLeft=4;spacingRight=4;overflow=hidden;rotatable=0;points=[[0,0.5],[1,0.5]];portConstraint=eastwest;rounded=0;shadow=0;html=0;" parent="Mfn7tafHpo8cdK77_WL3-192" vertex="1">
                    <mxGeometry y="182" width="240" height="26" as="geometry"/>
                </mxCell>
                <mxCell id="Mfn7tafHpo8cdK77_WL3-204" value="- separator1EP: JSeparator" style="text;align=left;verticalAlign=top;spacingLeft=4;spacingRight=4;overflow=hidden;rotatable=0;points=[[0,0.5],[1,0.5]];portConstraint=eastwest;rounded=0;shadow=0;html=0;" parent="Mfn7tafHpo8cdK77_WL3-192" vertex="1">
                    <mxGeometry y="208" width="240" height="26" as="geometry"/>
                </mxCell>
                <mxCell id="Mfn7tafHpo8cdK77_WL3-203" value="- pageTitleEP: JLabel" style="text;align=left;verticalAlign=top;spacingLeft=4;spacingRight=4;overflow=hidden;rotatable=0;points=[[0,0.5],[1,0.5]];portConstraint=eastwest;rounded=0;shadow=0;html=0;" parent="Mfn7tafHpo8cdK77_WL3-192" vertex="1">
                    <mxGeometry y="234" width="240" height="26" as="geometry"/>
                </mxCell>
                <mxCell id="Mfn7tafHpo8cdK77_WL3-202" value="- btnDefaultEP: JButton" style="text;align=left;verticalAlign=top;spacingLeft=4;spacingRight=4;overflow=hidden;rotatable=0;points=[[0,0.5],[1,0.5]];portConstraint=eastwest;rounded=0;shadow=0;html=0;" parent="Mfn7tafHpo8cdK77_WL3-192" vertex="1">
                    <mxGeometry y="260" width="240" height="26" as="geometry"/>
                </mxCell>
                <mxCell id="Mfn7tafHpo8cdK77_WL3-201" value="- btnChangePwdEP: JButton" style="text;align=left;verticalAlign=top;spacingLeft=4;spacingRight=4;overflow=hidden;rotatable=0;points=[[0,0.5],[1,0.5]];portConstraint=eastwest;rounded=0;shadow=0;html=0;" parent="Mfn7tafHpo8cdK77_WL3-192" vertex="1">
                    <mxGeometry y="286" width="240" height="26" as="geometry"/>
                </mxCell>
                <mxCell id="Mfn7tafHpo8cdK77_WL3-200" value="- btnChangeEP: JButton" style="text;align=left;verticalAlign=top;spacingLeft=4;spacingRight=4;overflow=hidden;rotatable=0;points=[[0,0.5],[1,0.5]];portConstraint=eastwest;rounded=0;shadow=0;html=0;" parent="Mfn7tafHpo8cdK77_WL3-192" vertex="1">
                    <mxGeometry y="312" width="240" height="26" as="geometry"/>
                </mxCell>
                <mxCell id="Mfn7tafHpo8cdK77_WL3-199" value="- lblEmailEP: JTextField" style="text;align=left;verticalAlign=top;spacingLeft=4;spacingRight=4;overflow=hidden;rotatable=0;points=[[0,0.5],[1,0.5]];portConstraint=eastwest;rounded=0;shadow=0;html=0;" parent="Mfn7tafHpo8cdK77_WL3-192" vertex="1">
                    <mxGeometry y="338" width="240" height="26" as="geometry"/>
                </mxCell>
                <mxCell id="Mfn7tafHpo8cdK77_WL3-198" value="- lblPhoneNumEP: JTextField" style="text;align=left;verticalAlign=top;spacingLeft=4;spacingRight=4;overflow=hidden;rotatable=0;points=[[0,0.5],[1,0.5]];portConstraint=eastwest;rounded=0;shadow=0;html=0;" parent="Mfn7tafHpo8cdK77_WL3-192" vertex="1">
                    <mxGeometry y="364" width="240" height="26" as="geometry"/>
                </mxCell>
                <mxCell id="Mfn7tafHpo8cdK77_WL3-197" value="- lblUsernameEP: JTextField" style="text;align=left;verticalAlign=top;spacingLeft=4;spacingRight=4;overflow=hidden;rotatable=0;points=[[0,0.5],[1,0.5]];portConstraint=eastwest;rounded=0;shadow=0;html=0;" parent="Mfn7tafHpo8cdK77_WL3-192" vertex="1">
                    <mxGeometry y="390" width="240" height="26" as="geometry"/>
                </mxCell>
                <mxCell id="Mfn7tafHpo8cdK77_WL3-194" value="" style="line;strokeWidth=1;fillColor=none;align=left;verticalAlign=middle;spacingTop=-1;spacingLeft=3;spacingRight=3;rotatable=0;labelPosition=right;points=[];portConstraint=eastwest;strokeColor=inherit;" parent="Mfn7tafHpo8cdK77_WL3-192" vertex="1">
                    <mxGeometry y="416" width="240" height="8" as="geometry"/>
                </mxCell>
                <mxCell id="Mfn7tafHpo8cdK77_WL3-211" value="+ App()" style="text;strokeColor=none;fillColor=none;align=left;verticalAlign=top;spacingLeft=4;spacingRight=4;overflow=hidden;rotatable=0;points=[[0,0.5],[1,0.5]];portConstraint=eastwest;" parent="Mfn7tafHpo8cdK77_WL3-192" vertex="1">
                    <mxGeometry y="424" width="240" height="26" as="geometry"/>
                </mxCell>
                <mxCell id="Mfn7tafHpo8cdK77_WL3-212" value="+ mouseClicked(e: MouseEvent): void" style="text;strokeColor=none;fillColor=none;align=left;verticalAlign=top;spacingLeft=4;spacingRight=4;overflow=hidden;rotatable=0;points=[[0,0.5],[1,0.5]];portConstraint=eastwest;" parent="Mfn7tafHpo8cdK77_WL3-192" vertex="1">
                    <mxGeometry y="450" width="240" height="26" as="geometry"/>
                </mxCell>
                <mxCell id="Mfn7tafHpo8cdK77_WL3-213" value="App - Change Password Page" style="swimlane;fontStyle=1;align=center;verticalAlign=top;childLayout=stackLayout;horizontal=1;startSize=26;horizontalStack=0;resizeParent=1;resizeParentMax=0;resizeLast=0;collapsible=1;marginBottom=0;" parent="WIyWlLk6GJQsqaUBKTNV-1" vertex="1">
                    <mxGeometry x="1700" y="530" width="220" height="320" as="geometry"/>
                </mxCell>
                <mxCell id="Mfn7tafHpo8cdK77_WL3-217" value="- pnlCP: JPanel" style="text;align=left;verticalAlign=top;spacingLeft=4;spacingRight=4;overflow=hidden;rotatable=0;points=[[0,0.5],[1,0.5]];portConstraint=eastwest;rounded=0;shadow=0;html=0;" parent="Mfn7tafHpo8cdK77_WL3-213" vertex="1">
                    <mxGeometry y="26" width="220" height="26" as="geometry"/>
                </mxCell>
                <mxCell id="Mfn7tafHpo8cdK77_WL3-225" value="- btnChangeCP: JButton" style="text;align=left;verticalAlign=top;spacingLeft=4;spacingRight=4;overflow=hidden;rotatable=0;points=[[0,0.5],[1,0.5]];portConstraint=eastwest;rounded=0;shadow=0;html=0;" parent="Mfn7tafHpo8cdK77_WL3-213" vertex="1">
                    <mxGeometry y="52" width="220" height="26" as="geometry"/>
                </mxCell>
                <mxCell id="Mfn7tafHpo8cdK77_WL3-224" value="- btnCancelCP: JButton" style="text;align=left;verticalAlign=top;spacingLeft=4;spacingRight=4;overflow=hidden;rotatable=0;points=[[0,0.5],[1,0.5]];portConstraint=eastwest;rounded=0;shadow=0;html=0;" parent="Mfn7tafHpo8cdK77_WL3-213" vertex="1">
                    <mxGeometry y="78" width="220" height="26" as="geometry"/>
                </mxCell>
                <mxCell id="Mfn7tafHpo8cdK77_WL3-223" value="- separator2CP: JSeparator" style="text;align=left;verticalAlign=top;spacingLeft=4;spacingRight=4;overflow=hidden;rotatable=0;points=[[0,0.5],[1,0.5]];portConstraint=eastwest;rounded=0;shadow=0;html=0;" parent="Mfn7tafHpo8cdK77_WL3-213" vertex="1">
                    <mxGeometry y="104" width="220" height="26" as="geometry"/>
                </mxCell>
                <mxCell id="Mfn7tafHpo8cdK77_WL3-222" value="- separator1CP: JSeparator" style="text;align=left;verticalAlign=top;spacingLeft=4;spacingRight=4;overflow=hidden;rotatable=0;points=[[0,0.5],[1,0.5]];portConstraint=eastwest;rounded=0;shadow=0;html=0;" parent="Mfn7tafHpo8cdK77_WL3-213" vertex="1">
                    <mxGeometry y="130" width="220" height="26" as="geometry"/>
                </mxCell>
                <mxCell id="Mfn7tafHpo8cdK77_WL3-221" value="- pwdPicCP: JLabel" style="text;align=left;verticalAlign=top;spacingLeft=4;spacingRight=4;overflow=hidden;rotatable=0;points=[[0,0.5],[1,0.5]];portConstraint=eastwest;rounded=0;shadow=0;html=0;" parent="Mfn7tafHpo8cdK77_WL3-213" vertex="1">
                    <mxGeometry y="156" width="220" height="26" as="geometry"/>
                </mxCell>
                <mxCell id="Mfn7tafHpo8cdK77_WL3-220" value="- pageTitleCP: JLabel" style="text;align=left;verticalAlign=top;spacingLeft=4;spacingRight=4;overflow=hidden;rotatable=0;points=[[0,0.5],[1,0.5]];portConstraint=eastwest;rounded=0;shadow=0;html=0;" parent="Mfn7tafHpo8cdK77_WL3-213" vertex="1">
                    <mxGeometry y="182" width="220" height="26" as="geometry"/>
                </mxCell>
                <mxCell id="Mfn7tafHpo8cdK77_WL3-219" value="- confirmPwdCP: JTextField" style="text;align=left;verticalAlign=top;spacingLeft=4;spacingRight=4;overflow=hidden;rotatable=0;points=[[0,0.5],[1,0.5]];portConstraint=eastwest;rounded=0;shadow=0;html=0;" parent="Mfn7tafHpo8cdK77_WL3-213" vertex="1">
                    <mxGeometry y="208" width="220" height="26" as="geometry"/>
                </mxCell>
                <mxCell id="Mfn7tafHpo8cdK77_WL3-218" value="- passwordCP: JTextField" style="text;align=left;verticalAlign=top;spacingLeft=4;spacingRight=4;overflow=hidden;rotatable=0;points=[[0,0.5],[1,0.5]];portConstraint=eastwest;rounded=0;shadow=0;html=0;" parent="Mfn7tafHpo8cdK77_WL3-213" vertex="1">
                    <mxGeometry y="234" width="220" height="26" as="geometry"/>
                </mxCell>
                <mxCell id="Mfn7tafHpo8cdK77_WL3-215" value="" style="line;strokeWidth=1;fillColor=none;align=left;verticalAlign=middle;spacingTop=-1;spacingLeft=3;spacingRight=3;rotatable=0;labelPosition=right;points=[];portConstraint=eastwest;strokeColor=inherit;" parent="Mfn7tafHpo8cdK77_WL3-213" vertex="1">
                    <mxGeometry y="260" width="220" height="8" as="geometry"/>
                </mxCell>
                <mxCell id="Mfn7tafHpo8cdK77_WL3-226" value="+ App()" style="text;strokeColor=none;fillColor=none;align=left;verticalAlign=top;spacingLeft=4;spacingRight=4;overflow=hidden;rotatable=0;points=[[0,0.5],[1,0.5]];portConstraint=eastwest;" parent="Mfn7tafHpo8cdK77_WL3-213" vertex="1">
                    <mxGeometry y="268" width="220" height="26" as="geometry"/>
                </mxCell>
                <mxCell id="Mfn7tafHpo8cdK77_WL3-227" value="+ mouseClicked(e: MouseEvent): void" style="text;strokeColor=none;fillColor=none;align=left;verticalAlign=top;spacingLeft=4;spacingRight=4;overflow=hidden;rotatable=0;points=[[0,0.5],[1,0.5]];portConstraint=eastwest;" parent="Mfn7tafHpo8cdK77_WL3-213" vertex="1">
                    <mxGeometry y="294" width="220" height="26" as="geometry"/>
                </mxCell>
                <mxCell id="Mfn7tafHpo8cdK77_WL3-230" value="App - View Booking Request Page" style="swimlane;fontStyle=1;align=center;verticalAlign=top;childLayout=stackLayout;horizontal=1;startSize=26;horizontalStack=0;resizeParent=1;resizeParentMax=0;resizeLast=0;collapsible=1;marginBottom=0;" parent="WIyWlLk6GJQsqaUBKTNV-1" vertex="1">
                    <mxGeometry x="110" y="135" width="320" height="658" as="geometry"/>
                </mxCell>
                <mxCell id="Mfn7tafHpo8cdK77_WL3-231" value="- pnlBR: JPanel" style="text;strokeColor=none;fillColor=none;align=left;verticalAlign=top;spacingLeft=4;spacingRight=4;overflow=hidden;rotatable=0;points=[[0,0.5],[1,0.5]];portConstraint=eastwest;" parent="Mfn7tafHpo8cdK77_WL3-230" vertex="1">
                    <mxGeometry y="26" width="320" height="26" as="geometry"/>
                </mxCell>
                <mxCell id="Mfn7tafHpo8cdK77_WL3-248" value="- lblUserIDBR: JLabel" style="text;strokeColor=none;fillColor=none;align=left;verticalAlign=top;spacingLeft=4;spacingRight=4;overflow=hidden;rotatable=0;points=[[0,0.5],[1,0.5]];portConstraint=eastwest;" parent="Mfn7tafHpo8cdK77_WL3-230" vertex="1">
                    <mxGeometry y="52" width="320" height="26" as="geometry"/>
                </mxCell>
                <mxCell id="Mfn7tafHpo8cdK77_WL3-247" value="- lblStartTimeBR: JLabel" style="text;strokeColor=none;fillColor=none;align=left;verticalAlign=top;spacingLeft=4;spacingRight=4;overflow=hidden;rotatable=0;points=[[0,0.5],[1,0.5]];portConstraint=eastwest;" parent="Mfn7tafHpo8cdK77_WL3-230" vertex="1">
                    <mxGeometry y="78" width="320" height="26" as="geometry"/>
                </mxCell>
                <mxCell id="Mfn7tafHpo8cdK77_WL3-246" value="- lblEndTimeBR: JLabel" style="text;strokeColor=none;fillColor=none;align=left;verticalAlign=top;spacingLeft=4;spacingRight=4;overflow=hidden;rotatable=0;points=[[0,0.5],[1,0.5]];portConstraint=eastwest;" parent="Mfn7tafHpo8cdK77_WL3-230" vertex="1">
                    <mxGeometry y="104" width="320" height="26" as="geometry"/>
                </mxCell>
                <mxCell id="Mfn7tafHpo8cdK77_WL3-245" value="- lblUserNameBR: JLabel" style="text;strokeColor=none;fillColor=none;align=left;verticalAlign=top;spacingLeft=4;spacingRight=4;overflow=hidden;rotatable=0;points=[[0,0.5],[1,0.5]];portConstraint=eastwest;" parent="Mfn7tafHpo8cdK77_WL3-230" vertex="1">
                    <mxGeometry y="130" width="320" height="26" as="geometry"/>
                </mxCell>
                <mxCell id="Mfn7tafHpo8cdK77_WL3-244" value="- lblCarInfoBR: JLabel" style="text;strokeColor=none;fillColor=none;align=left;verticalAlign=top;spacingLeft=4;spacingRight=4;overflow=hidden;rotatable=0;points=[[0,0.5],[1,0.5]];portConstraint=eastwest;" parent="Mfn7tafHpo8cdK77_WL3-230" vertex="1">
                    <mxGeometry y="156" width="320" height="26" as="geometry"/>
                </mxCell>
                <mxCell id="Mfn7tafHpo8cdK77_WL3-243" value="- lblRentDateBR: JLabel" style="text;strokeColor=none;fillColor=none;align=left;verticalAlign=top;spacingLeft=4;spacingRight=4;overflow=hidden;rotatable=0;points=[[0,0.5],[1,0.5]];portConstraint=eastwest;" parent="Mfn7tafHpo8cdK77_WL3-230" vertex="1">
                    <mxGeometry y="182" width="320" height="26" as="geometry"/>
                </mxCell>
                <mxCell id="Mfn7tafHpo8cdK77_WL3-242" value="- lblReturnDateBR: JLabel" style="text;strokeColor=none;fillColor=none;align=left;verticalAlign=top;spacingLeft=4;spacingRight=4;overflow=hidden;rotatable=0;points=[[0,0.5],[1,0.5]];portConstraint=eastwest;" parent="Mfn7tafHpo8cdK77_WL3-230" vertex="1">
                    <mxGeometry y="208" width="320" height="26" as="geometry"/>
                </mxCell>
                <mxCell id="Mfn7tafHpo8cdK77_WL3-255" value="- txtReturnDateBR: JLabel" style="text;strokeColor=none;fillColor=none;align=left;verticalAlign=top;spacingLeft=4;spacingRight=4;overflow=hidden;rotatable=0;points=[[0,0.5],[1,0.5]];portConstraint=eastwest;" parent="Mfn7tafHpo8cdK77_WL3-230" vertex="1">
                    <mxGeometry y="234" width="320" height="26" as="geometry"/>
                </mxCell>
                <mxCell id="Mfn7tafHpo8cdK77_WL3-254" value="- txtRentDateBR: JLabel" style="text;strokeColor=none;fillColor=none;align=left;verticalAlign=top;spacingLeft=4;spacingRight=4;overflow=hidden;rotatable=0;points=[[0,0.5],[1,0.5]];portConstraint=eastwest;" parent="Mfn7tafHpo8cdK77_WL3-230" vertex="1">
                    <mxGeometry y="260" width="320" height="26" as="geometry"/>
                </mxCell>
                <mxCell id="Mfn7tafHpo8cdK77_WL3-253" value="- txtCarInfoBR: JLabel" style="text;strokeColor=none;fillColor=none;align=left;verticalAlign=top;spacingLeft=4;spacingRight=4;overflow=hidden;rotatable=0;points=[[0,0.5],[1,0.5]];portConstraint=eastwest;" parent="Mfn7tafHpo8cdK77_WL3-230" vertex="1">
                    <mxGeometry y="286" width="320" height="26" as="geometry"/>
                </mxCell>
                <mxCell id="Mfn7tafHpo8cdK77_WL3-252" value="- txtUserNameBR: JLabel" style="text;strokeColor=none;fillColor=none;align=left;verticalAlign=top;spacingLeft=4;spacingRight=4;overflow=hidden;rotatable=0;points=[[0,0.5],[1,0.5]];portConstraint=eastwest;" parent="Mfn7tafHpo8cdK77_WL3-230" vertex="1">
                    <mxGeometry y="312" width="320" height="26" as="geometry"/>
                </mxCell>
                <mxCell id="Mfn7tafHpo8cdK77_WL3-251" value="- txtEndTimeBR: JLabel" style="text;strokeColor=none;fillColor=none;align=left;verticalAlign=top;spacingLeft=4;spacingRight=4;overflow=hidden;rotatable=0;points=[[0,0.5],[1,0.5]];portConstraint=eastwest;" parent="Mfn7tafHpo8cdK77_WL3-230" vertex="1">
                    <mxGeometry y="338" width="320" height="26" as="geometry"/>
                </mxCell>
                <mxCell id="Mfn7tafHpo8cdK77_WL3-250" value="- txtStartTimeBR: JLabel" style="text;strokeColor=none;fillColor=none;align=left;verticalAlign=top;spacingLeft=4;spacingRight=4;overflow=hidden;rotatable=0;points=[[0,0.5],[1,0.5]];portConstraint=eastwest;" parent="Mfn7tafHpo8cdK77_WL3-230" vertex="1">
                    <mxGeometry y="364" width="320" height="26" as="geometry"/>
                </mxCell>
                <mxCell id="Mfn7tafHpo8cdK77_WL3-249" value="- txtUserIDBR: JLabel" style="text;strokeColor=none;fillColor=none;align=left;verticalAlign=top;spacingLeft=4;spacingRight=4;overflow=hidden;rotatable=0;points=[[0,0.5],[1,0.5]];portConstraint=eastwest;" parent="Mfn7tafHpo8cdK77_WL3-230" vertex="1">
                    <mxGeometry y="390" width="320" height="26" as="geometry"/>
                </mxCell>
                <mxCell id="Mfn7tafHpo8cdK77_WL3-241" value="- btnCancelBR: JButton" style="text;strokeColor=none;fillColor=none;align=left;verticalAlign=top;spacingLeft=4;spacingRight=4;overflow=hidden;rotatable=0;points=[[0,0.5],[1,0.5]];portConstraint=eastwest;" parent="Mfn7tafHpo8cdK77_WL3-230" vertex="1">
                    <mxGeometry y="416" width="320" height="26" as="geometry"/>
                </mxCell>
                <mxCell id="Mfn7tafHpo8cdK77_WL3-240" value="- btnDeclineBR: JButton" style="text;strokeColor=none;fillColor=none;align=left;verticalAlign=top;spacingLeft=4;spacingRight=4;overflow=hidden;rotatable=0;points=[[0,0.5],[1,0.5]];portConstraint=eastwest;" parent="Mfn7tafHpo8cdK77_WL3-230" vertex="1">
                    <mxGeometry y="442" width="320" height="26" as="geometry"/>
                </mxCell>
                <mxCell id="Mfn7tafHpo8cdK77_WL3-239" value="- btnAcceptBR: JButton" style="text;strokeColor=none;fillColor=none;align=left;verticalAlign=top;spacingLeft=4;spacingRight=4;overflow=hidden;rotatable=0;points=[[0,0.5],[1,0.5]];portConstraint=eastwest;" parent="Mfn7tafHpo8cdK77_WL3-230" vertex="1">
                    <mxGeometry y="468" width="320" height="26" as="geometry"/>
                </mxCell>
                <mxCell id="Mfn7tafHpo8cdK77_WL3-238" value="- tableBR: JTable" style="text;strokeColor=none;fillColor=none;align=left;verticalAlign=top;spacingLeft=4;spacingRight=4;overflow=hidden;rotatable=0;points=[[0,0.5],[1,0.5]];portConstraint=eastwest;" parent="Mfn7tafHpo8cdK77_WL3-230" vertex="1">
                    <mxGeometry y="494" width="320" height="26" as="geometry"/>
                </mxCell>
                <mxCell id="Mfn7tafHpo8cdK77_WL3-237" value="- panelBR: JScrollPane" style="text;strokeColor=none;fillColor=none;align=left;verticalAlign=top;spacingLeft=4;spacingRight=4;overflow=hidden;rotatable=0;points=[[0,0.5],[1,0.5]];portConstraint=eastwest;" parent="Mfn7tafHpo8cdK77_WL3-230" vertex="1">
                    <mxGeometry y="520" width="320" height="26" as="geometry"/>
                </mxCell>
                <mxCell id="Mfn7tafHpo8cdK77_WL3-236" value="- tableBRPnl: JPanel" style="text;strokeColor=none;fillColor=none;align=left;verticalAlign=top;spacingLeft=4;spacingRight=4;overflow=hidden;rotatable=0;points=[[0,0.5],[1,0.5]];portConstraint=eastwest;" parent="Mfn7tafHpo8cdK77_WL3-230" vertex="1">
                    <mxGeometry y="546" width="320" height="26" as="geometry"/>
                </mxCell>
                <mxCell id="Mfn7tafHpo8cdK77_WL3-235" value="- borderBR: Border" style="text;strokeColor=none;fillColor=none;align=left;verticalAlign=top;spacingLeft=4;spacingRight=4;overflow=hidden;rotatable=0;points=[[0,0.5],[1,0.5]];portConstraint=eastwest;" parent="Mfn7tafHpo8cdK77_WL3-230" vertex="1">
                    <mxGeometry y="572" width="320" height="26" as="geometry"/>
                </mxCell>
                <mxCell id="Mfn7tafHpo8cdK77_WL3-232" value="" style="line;strokeWidth=1;fillColor=none;align=left;verticalAlign=middle;spacingTop=-1;spacingLeft=3;spacingRight=3;rotatable=0;labelPosition=right;points=[];portConstraint=eastwest;strokeColor=inherit;" parent="Mfn7tafHpo8cdK77_WL3-230" vertex="1">
                    <mxGeometry y="598" width="320" height="8" as="geometry"/>
                </mxCell>
                <mxCell id="Mfn7tafHpo8cdK77_WL3-256" value="+ App()" style="text;strokeColor=none;fillColor=none;align=left;verticalAlign=top;spacingLeft=4;spacingRight=4;overflow=hidden;rotatable=0;points=[[0,0.5],[1,0.5]];portConstraint=eastwest;" parent="Mfn7tafHpo8cdK77_WL3-230" vertex="1">
                    <mxGeometry y="606" width="320" height="26" as="geometry"/>
                </mxCell>
                <mxCell id="Mfn7tafHpo8cdK77_WL3-257" value="+ mouseClicked(e: MouseEvent): void" style="text;strokeColor=none;fillColor=none;align=left;verticalAlign=top;spacingLeft=4;spacingRight=4;overflow=hidden;rotatable=0;points=[[0,0.5],[1,0.5]];portConstraint=eastwest;" parent="Mfn7tafHpo8cdK77_WL3-230" vertex="1">
                    <mxGeometry y="632" width="320" height="26" as="geometry"/>
                </mxCell>
                <mxCell id="Mfn7tafHpo8cdK77_WL3-258" value="App - Booking Page" style="swimlane;fontStyle=1;align=center;verticalAlign=top;childLayout=stackLayout;horizontal=1;startSize=26;horizontalStack=0;resizeParent=1;resizeParentMax=0;resizeLast=0;collapsible=1;marginBottom=0;" parent="WIyWlLk6GJQsqaUBKTNV-1" vertex="1">
                    <mxGeometry x="920" y="520" width="310" height="710" as="geometry"/>
                </mxCell>
                <mxCell id="Mfn7tafHpo8cdK77_WL3-259" value="- pnlB: JPanel" style="text;strokeColor=none;fillColor=none;align=left;verticalAlign=top;spacingLeft=4;spacingRight=4;overflow=hidden;rotatable=0;points=[[0,0.5],[1,0.5]];portConstraint=eastwest;" parent="Mfn7tafHpo8cdK77_WL3-258" vertex="1">
                    <mxGeometry y="26" width="310" height="26" as="geometry"/>
                </mxCell>
                <mxCell id="Mfn7tafHpo8cdK77_WL3-274" value="- pnlDate: JPanel" style="text;strokeColor=none;fillColor=none;align=left;verticalAlign=top;spacingLeft=4;spacingRight=4;overflow=hidden;rotatable=0;points=[[0,0.5],[1,0.5]];portConstraint=eastwest;" parent="Mfn7tafHpo8cdK77_WL3-258" vertex="1">
                    <mxGeometry y="52" width="310" height="26" as="geometry"/>
                </mxCell>
                <mxCell id="Mfn7tafHpo8cdK77_WL3-286" value="- pnlHour: JPanel" style="text;strokeColor=none;fillColor=none;align=left;verticalAlign=top;spacingLeft=4;spacingRight=4;overflow=hidden;rotatable=0;points=[[0,0.5],[1,0.5]];portConstraint=eastwest;" parent="Mfn7tafHpo8cdK77_WL3-258" vertex="1">
                    <mxGeometry y="78" width="310" height="26" as="geometry"/>
                </mxCell>
                <mxCell id="Mfn7tafHpo8cdK77_WL3-273" value="- pnlHour: JPanel" style="text;strokeColor=none;fillColor=none;align=left;verticalAlign=top;spacingLeft=4;spacingRight=4;overflow=hidden;rotatable=0;points=[[0,0.5],[1,0.5]];portConstraint=eastwest;" parent="Mfn7tafHpo8cdK77_WL3-258" vertex="1">
                    <mxGeometry y="104" width="310" height="26" as="geometry"/>
                </mxCell>
                <mxCell id="Mfn7tafHpo8cdK77_WL3-272" value="- carModelB: JLabel" style="text;strokeColor=none;fillColor=none;align=left;verticalAlign=top;spacingLeft=4;spacingRight=4;overflow=hidden;rotatable=0;points=[[0,0.5],[1,0.5]];portConstraint=eastwest;" parent="Mfn7tafHpo8cdK77_WL3-258" vertex="1">
                    <mxGeometry y="130" width="310" height="26" as="geometry"/>
                </mxCell>
                <mxCell id="Mfn7tafHpo8cdK77_WL3-271" value="- bookingDateB: JLabel" style="text;strokeColor=none;fillColor=none;align=left;verticalAlign=top;spacingLeft=4;spacingRight=4;overflow=hidden;rotatable=0;points=[[0,0.5],[1,0.5]];portConstraint=eastwest;" parent="Mfn7tafHpo8cdK77_WL3-258" vertex="1">
                    <mxGeometry y="156" width="310" height="26" as="geometry"/>
                </mxCell>
                <mxCell id="Mfn7tafHpo8cdK77_WL3-270" value="- endBookingDateB: JLabel" style="text;strokeColor=none;fillColor=none;align=left;verticalAlign=top;spacingLeft=4;spacingRight=4;overflow=hidden;rotatable=0;points=[[0,0.5],[1,0.5]];portConstraint=eastwest;" parent="Mfn7tafHpo8cdK77_WL3-258" vertex="1">
                    <mxGeometry y="182" width="310" height="26" as="geometry"/>
                </mxCell>
                <mxCell id="Mfn7tafHpo8cdK77_WL3-269" value="- bookingHourB: JLabel" style="text;strokeColor=none;fillColor=none;align=left;verticalAlign=top;spacingLeft=4;spacingRight=4;overflow=hidden;rotatable=0;points=[[0,0.5],[1,0.5]];portConstraint=eastwest;" parent="Mfn7tafHpo8cdK77_WL3-258" vertex="1">
                    <mxGeometry y="208" width="310" height="26" as="geometry"/>
                </mxCell>
                <mxCell id="Mfn7tafHpo8cdK77_WL3-268" value="- endBookingHourB: JLabel" style="text;strokeColor=none;fillColor=none;align=left;verticalAlign=top;spacingLeft=4;spacingRight=4;overflow=hidden;rotatable=0;points=[[0,0.5],[1,0.5]];portConstraint=eastwest;" parent="Mfn7tafHpo8cdK77_WL3-258" vertex="1">
                    <mxGeometry y="234" width="310" height="26" as="geometry"/>
                </mxCell>
                <mxCell id="Mfn7tafHpo8cdK77_WL3-267" value="- pageTitleB: JLabel" style="text;strokeColor=none;fillColor=none;align=left;verticalAlign=top;spacingLeft=4;spacingRight=4;overflow=hidden;rotatable=0;points=[[0,0.5],[1,0.5]];portConstraint=eastwest;" parent="Mfn7tafHpo8cdK77_WL3-258" vertex="1">
                    <mxGeometry y="260" width="310" height="26" as="geometry"/>
                </mxCell>
                <mxCell id="Mfn7tafHpo8cdK77_WL3-266" value="- txtCarModelB: JTextField" style="text;strokeColor=none;fillColor=none;align=left;verticalAlign=top;spacingLeft=4;spacingRight=4;overflow=hidden;rotatable=0;points=[[0,0.5],[1,0.5]];portConstraint=eastwest;" parent="Mfn7tafHpo8cdK77_WL3-258" vertex="1">
                    <mxGeometry y="286" width="310" height="26" as="geometry"/>
                </mxCell>
                <mxCell id="Mfn7tafHpo8cdK77_WL3-265" value="- txtStartDateB: JTextField" style="text;strokeColor=none;fillColor=none;align=left;verticalAlign=top;spacingLeft=4;spacingRight=4;overflow=hidden;rotatable=0;points=[[0,0.5],[1,0.5]];portConstraint=eastwest;" parent="Mfn7tafHpo8cdK77_WL3-258" vertex="1">
                    <mxGeometry y="312" width="310" height="26" as="geometry"/>
                </mxCell>
                <mxCell id="Mfn7tafHpo8cdK77_WL3-264" value="- txtEndDateB: JTextField" style="text;strokeColor=none;fillColor=none;align=left;verticalAlign=top;spacingLeft=4;spacingRight=4;overflow=hidden;rotatable=0;points=[[0,0.5],[1,0.5]];portConstraint=eastwest;" parent="Mfn7tafHpo8cdK77_WL3-258" vertex="1">
                    <mxGeometry y="338" width="310" height="26" as="geometry"/>
                </mxCell>
                <mxCell id="Mfn7tafHpo8cdK77_WL3-263" value="- txtStartHourB: JTextField" style="text;strokeColor=none;fillColor=none;align=left;verticalAlign=top;spacingLeft=4;spacingRight=4;overflow=hidden;rotatable=0;points=[[0,0.5],[1,0.5]];portConstraint=eastwest;" parent="Mfn7tafHpo8cdK77_WL3-258" vertex="1">
                    <mxGeometry y="364" width="310" height="26" as="geometry"/>
                </mxCell>
                <mxCell id="Mfn7tafHpo8cdK77_WL3-262" value="- txtEndHourB: JTextField" style="text;strokeColor=none;fillColor=none;align=left;verticalAlign=top;spacingLeft=4;spacingRight=4;overflow=hidden;rotatable=0;points=[[0,0.5],[1,0.5]];portConstraint=eastwest;" parent="Mfn7tafHpo8cdK77_WL3-258" vertex="1">
                    <mxGeometry y="390" width="310" height="26" as="geometry"/>
                </mxCell>
                <mxCell id="Mfn7tafHpo8cdK77_WL3-278" value="- btnBookB: JButton" style="text;strokeColor=none;fillColor=none;align=left;verticalAlign=top;spacingLeft=4;spacingRight=4;overflow=hidden;rotatable=0;points=[[0,0.5],[1,0.5]];portConstraint=eastwest;" parent="Mfn7tafHpo8cdK77_WL3-258" vertex="1">
                    <mxGeometry y="416" width="310" height="26" as="geometry"/>
                </mxCell>
                <mxCell id="Mfn7tafHpo8cdK77_WL3-277" value="- btnHourB: JButton" style="text;strokeColor=none;fillColor=none;align=left;verticalAlign=top;spacingLeft=4;spacingRight=4;overflow=hidden;rotatable=0;points=[[0,0.5],[1,0.5]];portConstraint=eastwest;" parent="Mfn7tafHpo8cdK77_WL3-258" vertex="1">
                    <mxGeometry y="442" width="310" height="26" as="geometry"/>
                </mxCell>
                <mxCell id="Mfn7tafHpo8cdK77_WL3-276" value="- btnDateB: JButton" style="text;strokeColor=none;fillColor=none;align=left;verticalAlign=top;spacingLeft=4;spacingRight=4;overflow=hidden;rotatable=0;points=[[0,0.5],[1,0.5]];portConstraint=eastwest;" parent="Mfn7tafHpo8cdK77_WL3-258" vertex="1">
                    <mxGeometry y="468" width="310" height="26" as="geometry"/>
                </mxCell>
                <mxCell id="Mfn7tafHpo8cdK77_WL3-279" value="- separator1B: JSeparator" style="text;strokeColor=none;fillColor=none;align=left;verticalAlign=top;spacingLeft=4;spacingRight=4;overflow=hidden;rotatable=0;points=[[0,0.5],[1,0.5]];portConstraint=eastwest;" parent="Mfn7tafHpo8cdK77_WL3-258" vertex="1">
                    <mxGeometry y="494" width="310" height="26" as="geometry"/>
                </mxCell>
                <mxCell id="Mfn7tafHpo8cdK77_WL3-280" value="- separator2B: JSeparator" style="text;strokeColor=none;fillColor=none;align=left;verticalAlign=top;spacingLeft=4;spacingRight=4;overflow=hidden;rotatable=0;points=[[0,0.5],[1,0.5]];portConstraint=eastwest;" parent="Mfn7tafHpo8cdK77_WL3-258" vertex="1">
                    <mxGeometry y="520" width="310" height="26" as="geometry"/>
                </mxCell>
                <mxCell id="Mfn7tafHpo8cdK77_WL3-281" value="- separator3B: JSeparator" style="text;strokeColor=none;fillColor=none;align=left;verticalAlign=top;spacingLeft=4;spacingRight=4;overflow=hidden;rotatable=0;points=[[0,0.5],[1,0.5]];portConstraint=eastwest;" parent="Mfn7tafHpo8cdK77_WL3-258" vertex="1">
                    <mxGeometry y="546" width="310" height="26" as="geometry"/>
                </mxCell>
                <mxCell id="Mfn7tafHpo8cdK77_WL3-282" value="- separator4B: JSeparator" style="text;strokeColor=none;fillColor=none;align=left;verticalAlign=top;spacingLeft=4;spacingRight=4;overflow=hidden;rotatable=0;points=[[0,0.5],[1,0.5]];portConstraint=eastwest;" parent="Mfn7tafHpo8cdK77_WL3-258" vertex="1">
                    <mxGeometry y="572" width="310" height="26" as="geometry"/>
                </mxCell>
                <mxCell id="Mfn7tafHpo8cdK77_WL3-275" value="- separator5B: JSeparator" style="text;strokeColor=none;fillColor=none;align=left;verticalAlign=top;spacingLeft=4;spacingRight=4;overflow=hidden;rotatable=0;points=[[0,0.5],[1,0.5]];portConstraint=eastwest;" parent="Mfn7tafHpo8cdK77_WL3-258" vertex="1">
                    <mxGeometry y="598" width="310" height="26" as="geometry"/>
                </mxCell>
                <mxCell id="Mfn7tafHpo8cdK77_WL3-283" value="- calendarPic: JLabel" style="text;strokeColor=none;fillColor=none;align=left;verticalAlign=top;spacingLeft=4;spacingRight=4;overflow=hidden;rotatable=0;points=[[0,0.5],[1,0.5]];portConstraint=eastwest;" parent="Mfn7tafHpo8cdK77_WL3-258" vertex="1">
                    <mxGeometry y="624" width="310" height="26" as="geometry"/>
                </mxCell>
                <mxCell id="Mfn7tafHpo8cdK77_WL3-260" value="" style="line;strokeWidth=1;fillColor=none;align=left;verticalAlign=middle;spacingTop=-1;spacingLeft=3;spacingRight=3;rotatable=0;labelPosition=right;points=[];portConstraint=eastwest;strokeColor=inherit;" parent="Mfn7tafHpo8cdK77_WL3-258" vertex="1">
                    <mxGeometry y="650" width="310" height="8" as="geometry"/>
                </mxCell>
                <mxCell id="Mfn7tafHpo8cdK77_WL3-284" value="+ App()" style="text;strokeColor=none;fillColor=none;align=left;verticalAlign=top;spacingLeft=4;spacingRight=4;overflow=hidden;rotatable=0;points=[[0,0.5],[1,0.5]];portConstraint=eastwest;" parent="Mfn7tafHpo8cdK77_WL3-258" vertex="1">
                    <mxGeometry y="658" width="310" height="26" as="geometry"/>
                </mxCell>
                <mxCell id="Mfn7tafHpo8cdK77_WL3-285" value="+ mouseClicked(e: MouseEvent): void" style="text;strokeColor=none;fillColor=none;align=left;verticalAlign=top;spacingLeft=4;spacingRight=4;overflow=hidden;rotatable=0;points=[[0,0.5],[1,0.5]];portConstraint=eastwest;" parent="Mfn7tafHpo8cdK77_WL3-258" vertex="1">
                    <mxGeometry y="684" width="310" height="26" as="geometry"/>
                </mxCell>
                <mxCell id="PWljNEWxttzajhteRaMD-0" value="App - Return Car Admin Page" style="swimlane;fontStyle=1;align=center;verticalAlign=top;childLayout=stackLayout;horizontal=1;startSize=26;horizontalStack=0;resizeParent=1;resizeParentMax=0;resizeLast=0;collapsible=1;marginBottom=0;" parent="WIyWlLk6GJQsqaUBKTNV-1" vertex="1">
                    <mxGeometry x="2481" y="803" width="260" height="632" as="geometry"/>
                </mxCell>
                <mxCell id="PWljNEWxttzajhteRaMD-1" value="- pnlRCA: JPanel" style="text;strokeColor=none;fillColor=none;align=left;verticalAlign=top;spacingLeft=4;spacingRight=4;overflow=hidden;rotatable=0;points=[[0,0.5],[1,0.5]];portConstraint=eastwest;" parent="PWljNEWxttzajhteRaMD-0" vertex="1">
                    <mxGeometry y="26" width="260" height="26" as="geometry"/>
                </mxCell>
                <mxCell id="PWljNEWxttzajhteRaMD-12" value="- usernameRCA: JLabel" style="text;strokeColor=none;fillColor=none;align=left;verticalAlign=top;spacingLeft=4;spacingRight=4;overflow=hidden;rotatable=0;points=[[0,0.5],[1,0.5]];portConstraint=eastwest;" parent="PWljNEWxttzajhteRaMD-0" vertex="1">
                    <mxGeometry y="52" width="260" height="26" as="geometry"/>
                </mxCell>
                <mxCell id="PWljNEWxttzajhteRaMD-11" value="- carModelRCA: JLabel" style="text;strokeColor=none;fillColor=none;align=left;verticalAlign=top;spacingLeft=4;spacingRight=4;overflow=hidden;rotatable=0;points=[[0,0.5],[1,0.5]];portConstraint=eastwest;" parent="PWljNEWxttzajhteRaMD-0" vertex="1">
                    <mxGeometry y="78" width="260" height="26" as="geometry"/>
                </mxCell>
                <mxCell id="PWljNEWxttzajhteRaMD-10" value="- dateRCA: JLabel" style="text;strokeColor=none;fillColor=none;align=left;verticalAlign=top;spacingLeft=4;spacingRight=4;overflow=hidden;rotatable=0;points=[[0,0.5],[1,0.5]];portConstraint=eastwest;" parent="PWljNEWxttzajhteRaMD-0" vertex="1">
                    <mxGeometry y="104" width="260" height="26" as="geometry"/>
                </mxCell>
                <mxCell id="PWljNEWxttzajhteRaMD-9" value="- onRentTitleRCA: JLabel" style="text;strokeColor=none;fillColor=none;align=left;verticalAlign=top;spacingLeft=4;spacingRight=4;overflow=hidden;rotatable=0;points=[[0,0.5],[1,0.5]];portConstraint=eastwest;" parent="PWljNEWxttzajhteRaMD-0" vertex="1">
                    <mxGeometry y="130" width="260" height="26" as="geometry"/>
                </mxCell>
                <mxCell id="PWljNEWxttzajhteRaMD-8" value="- returnedTitleRCA: JLabel" style="text;strokeColor=none;fillColor=none;align=left;verticalAlign=top;spacingLeft=4;spacingRight=4;overflow=hidden;rotatable=0;points=[[0,0.5],[1,0.5]];portConstraint=eastwest;" parent="PWljNEWxttzajhteRaMD-0" vertex="1">
                    <mxGeometry y="156" width="260" height="26" as="geometry"/>
                </mxCell>
                <mxCell id="PWljNEWxttzajhteRaMD-7" value="- onRentRCA: JTabel" style="text;strokeColor=none;fillColor=none;align=left;verticalAlign=top;spacingLeft=4;spacingRight=4;overflow=hidden;rotatable=0;points=[[0,0.5],[1,0.5]];portConstraint=eastwest;" parent="PWljNEWxttzajhteRaMD-0" vertex="1">
                    <mxGeometry y="182" width="260" height="26" as="geometry"/>
                </mxCell>
                <mxCell id="PWljNEWxttzajhteRaMD-6" value="- returnedRCA: JTable" style="text;strokeColor=none;fillColor=none;align=left;verticalAlign=top;spacingLeft=4;spacingRight=4;overflow=hidden;rotatable=0;points=[[0,0.5],[1,0.5]];portConstraint=eastwest;" parent="PWljNEWxttzajhteRaMD-0" vertex="1">
                    <mxGeometry y="208" width="260" height="26" as="geometry"/>
                </mxCell>
                <mxCell id="PWljNEWxttzajhteRaMD-5" value="- txtUsernameRCA: JTextField" style="text;strokeColor=none;fillColor=none;align=left;verticalAlign=top;spacingLeft=4;spacingRight=4;overflow=hidden;rotatable=0;points=[[0,0.5],[1,0.5]];portConstraint=eastwest;" parent="PWljNEWxttzajhteRaMD-0" vertex="1">
                    <mxGeometry y="234" width="260" height="26" as="geometry"/>
                </mxCell>
                <mxCell id="PWljNEWxttzajhteRaMD-4" value="- txtCarModelRCA: JTextField" style="text;strokeColor=none;fillColor=none;align=left;verticalAlign=top;spacingLeft=4;spacingRight=4;overflow=hidden;rotatable=0;points=[[0,0.5],[1,0.5]];portConstraint=eastwest;" parent="PWljNEWxttzajhteRaMD-0" vertex="1">
                    <mxGeometry y="260" width="260" height="26" as="geometry"/>
                </mxCell>
                <mxCell id="PWljNEWxttzajhteRaMD-18" value="- txtDateRCA: JTextField" style="text;strokeColor=none;fillColor=none;align=left;verticalAlign=top;spacingLeft=4;spacingRight=4;overflow=hidden;rotatable=0;points=[[0,0.5],[1,0.5]];portConstraint=eastwest;" parent="PWljNEWxttzajhteRaMD-0" vertex="1">
                    <mxGeometry y="286" width="260" height="26" as="geometry"/>
                </mxCell>
                <mxCell id="PWljNEWxttzajhteRaMD-17" value="- btnResetRCA: JButton" style="text;strokeColor=none;fillColor=none;align=left;verticalAlign=top;spacingLeft=4;spacingRight=4;overflow=hidden;rotatable=0;points=[[0,0.5],[1,0.5]];portConstraint=eastwest;" parent="PWljNEWxttzajhteRaMD-0" vertex="1">
                    <mxGeometry y="312" width="260" height="26" as="geometry"/>
                </mxCell>
                <mxCell id="PWljNEWxttzajhteRaMD-16" value="- btnProceedRCA: JButton" style="text;strokeColor=none;fillColor=none;align=left;verticalAlign=top;spacingLeft=4;spacingRight=4;overflow=hidden;rotatable=0;points=[[0,0.5],[1,0.5]];portConstraint=eastwest;" parent="PWljNEWxttzajhteRaMD-0" vertex="1">
                    <mxGeometry y="338" width="260" height="26" as="geometry"/>
                </mxCell>
                <mxCell id="PWljNEWxttzajhteRaMD-15" value="- separator1RCA: JSeparator" style="text;strokeColor=none;fillColor=none;align=left;verticalAlign=top;spacingLeft=4;spacingRight=4;overflow=hidden;rotatable=0;points=[[0,0.5],[1,0.5]];portConstraint=eastwest;" parent="PWljNEWxttzajhteRaMD-0" vertex="1">
                    <mxGeometry y="364" width="260" height="26" as="geometry"/>
                </mxCell>
                <mxCell id="PWljNEWxttzajhteRaMD-19" value="- separator2RCA: JSeparator" style="text;strokeColor=none;fillColor=none;align=left;verticalAlign=top;spacingLeft=4;spacingRight=4;overflow=hidden;rotatable=0;points=[[0,0.5],[1,0.5]];portConstraint=eastwest;" parent="PWljNEWxttzajhteRaMD-0" vertex="1">
                    <mxGeometry y="390" width="260" height="26" as="geometry"/>
                </mxCell>
                <mxCell id="PWljNEWxttzajhteRaMD-20" value="- separator3RCA: JSeparator" style="text;strokeColor=none;fillColor=none;align=left;verticalAlign=top;spacingLeft=4;spacingRight=4;overflow=hidden;rotatable=0;points=[[0,0.5],[1,0.5]];portConstraint=eastwest;" parent="PWljNEWxttzajhteRaMD-0" vertex="1">
                    <mxGeometry y="416" width="260" height="26" as="geometry"/>
                </mxCell>
                <mxCell id="PWljNEWxttzajhteRaMD-14" value="- paneRCA1: JScrollPane" style="text;strokeColor=none;fillColor=none;align=left;verticalAlign=top;spacingLeft=4;spacingRight=4;overflow=hidden;rotatable=0;points=[[0,0.5],[1,0.5]];portConstraint=eastwest;" parent="PWljNEWxttzajhteRaMD-0" vertex="1">
                    <mxGeometry y="442" width="260" height="26" as="geometry"/>
                </mxCell>
                <mxCell id="PWljNEWxttzajhteRaMD-13" value="- paneRCA2: JScrillPane" style="text;strokeColor=none;fillColor=none;align=left;verticalAlign=top;spacingLeft=4;spacingRight=4;overflow=hidden;rotatable=0;points=[[0,0.5],[1,0.5]];portConstraint=eastwest;" parent="PWljNEWxttzajhteRaMD-0" vertex="1">
                    <mxGeometry y="468" width="260" height="26" as="geometry"/>
                </mxCell>
                <mxCell id="PWljNEWxttzajhteRaMD-24" value="- onRentPnlRCA: JPanel" style="text;strokeColor=none;fillColor=none;align=left;verticalAlign=top;spacingLeft=4;spacingRight=4;overflow=hidden;rotatable=0;points=[[0,0.5],[1,0.5]];portConstraint=eastwest;" parent="PWljNEWxttzajhteRaMD-0" vertex="1">
                    <mxGeometry y="494" width="260" height="26" as="geometry"/>
                </mxCell>
                <mxCell id="PWljNEWxttzajhteRaMD-23" value="- returnedPnlRCA: JPanel" style="text;strokeColor=none;fillColor=none;align=left;verticalAlign=top;spacingLeft=4;spacingRight=4;overflow=hidden;rotatable=0;points=[[0,0.5],[1,0.5]];portConstraint=eastwest;" parent="PWljNEWxttzajhteRaMD-0" vertex="1">
                    <mxGeometry y="520" width="260" height="26" as="geometry"/>
                </mxCell>
                <mxCell id="PWljNEWxttzajhteRaMD-22" value="- borderRCA: Border" style="text;strokeColor=none;fillColor=none;align=left;verticalAlign=top;spacingLeft=4;spacingRight=4;overflow=hidden;rotatable=0;points=[[0,0.5],[1,0.5]];portConstraint=eastwest;" parent="PWljNEWxttzajhteRaMD-0" vertex="1">
                    <mxGeometry y="546" width="260" height="26" as="geometry"/>
                </mxCell>
                <mxCell id="PWljNEWxttzajhteRaMD-2" value="" style="line;strokeWidth=1;fillColor=none;align=left;verticalAlign=middle;spacingTop=-1;spacingLeft=3;spacingRight=3;rotatable=0;labelPosition=right;points=[];portConstraint=eastwest;strokeColor=inherit;" parent="PWljNEWxttzajhteRaMD-0" vertex="1">
                    <mxGeometry y="572" width="260" height="8" as="geometry"/>
                </mxCell>
                <mxCell id="PWljNEWxttzajhteRaMD-25" value="+ mouseClicked(e: MouseEvent): void" style="text;strokeColor=none;fillColor=none;align=left;verticalAlign=top;spacingLeft=4;spacingRight=4;overflow=hidden;rotatable=0;points=[[0,0.5],[1,0.5]];portConstraint=eastwest;" parent="PWljNEWxttzajhteRaMD-0" vertex="1">
                    <mxGeometry y="580" width="260" height="26" as="geometry"/>
                </mxCell>
                <mxCell id="PWljNEWxttzajhteRaMD-26" value="+ App()" style="text;strokeColor=none;fillColor=none;align=left;verticalAlign=top;spacingLeft=4;spacingRight=4;overflow=hidden;rotatable=0;points=[[0,0.5],[1,0.5]];portConstraint=eastwest;" parent="PWljNEWxttzajhteRaMD-0" vertex="1">
                    <mxGeometry y="606" width="260" height="26" as="geometry"/>
                </mxCell>
                <mxCell id="PWljNEWxttzajhteRaMD-27" value="App - Billing Page&#10;" style="swimlane;fontStyle=1;align=center;verticalAlign=top;childLayout=stackLayout;horizontal=1;startSize=26;horizontalStack=0;resizeParent=1;resizeParentMax=0;resizeLast=0;collapsible=1;marginBottom=0;" parent="WIyWlLk6GJQsqaUBKTNV-1" vertex="1">
                    <mxGeometry x="500" y="426" width="240" height="684" as="geometry"/>
                </mxCell>
                <mxCell id="PWljNEWxttzajhteRaMD-28" value="- pnlBill: JPanel" style="text;strokeColor=none;fillColor=none;align=left;verticalAlign=top;spacingLeft=4;spacingRight=4;overflow=hidden;rotatable=0;points=[[0,0.5],[1,0.5]];portConstraint=eastwest;" parent="PWljNEWxttzajhteRaMD-27" vertex="1">
                    <mxGeometry y="26" width="240" height="26" as="geometry"/>
                </mxCell>
                <mxCell id="PWljNEWxttzajhteRaMD-45" value="- titleBill: JLabel" style="text;strokeColor=none;fillColor=none;align=left;verticalAlign=top;spacingLeft=4;spacingRight=4;overflow=hidden;rotatable=0;points=[[0,0.5],[1,0.5]];portConstraint=eastwest;" parent="PWljNEWxttzajhteRaMD-27" vertex="1">
                    <mxGeometry y="52" width="240" height="26" as="geometry"/>
                </mxCell>
                <mxCell id="PWljNEWxttzajhteRaMD-44" value="- titlePaymentDetails: JLabel" style="text;strokeColor=none;fillColor=none;align=left;verticalAlign=top;spacingLeft=4;spacingRight=4;overflow=hidden;rotatable=0;points=[[0,0.5],[1,0.5]];portConstraint=eastwest;" parent="PWljNEWxttzajhteRaMD-27" vertex="1">
                    <mxGeometry y="78" width="240" height="26" as="geometry"/>
                </mxCell>
                <mxCell id="PWljNEWxttzajhteRaMD-43" value="- titleRentalDetials: JLabel" style="text;strokeColor=none;fillColor=none;align=left;verticalAlign=top;spacingLeft=4;spacingRight=4;overflow=hidden;rotatable=0;points=[[0,0.5],[1,0.5]];portConstraint=eastwest;" parent="PWljNEWxttzajhteRaMD-27" vertex="1">
                    <mxGeometry y="104" width="240" height="26" as="geometry"/>
                </mxCell>
                <mxCell id="PWljNEWxttzajhteRaMD-42" value="- carInfoBill: JLabel" style="text;strokeColor=none;fillColor=none;align=left;verticalAlign=top;spacingLeft=4;spacingRight=4;overflow=hidden;rotatable=0;points=[[0,0.5],[1,0.5]];portConstraint=eastwest;" parent="PWljNEWxttzajhteRaMD-27" vertex="1">
                    <mxGeometry y="130" width="240" height="26" as="geometry"/>
                </mxCell>
                <mxCell id="PWljNEWxttzajhteRaMD-41" value="- rentralDurationBill: JLabel" style="text;strokeColor=none;fillColor=none;align=left;verticalAlign=top;spacingLeft=4;spacingRight=4;overflow=hidden;rotatable=0;points=[[0,0.5],[1,0.5]];portConstraint=eastwest;" parent="PWljNEWxttzajhteRaMD-27" vertex="1">
                    <mxGeometry y="156" width="240" height="26" as="geometry"/>
                </mxCell>
                <mxCell id="PWljNEWxttzajhteRaMD-40" value="- priceBillL JLabel" style="text;strokeColor=none;fillColor=none;align=left;verticalAlign=top;spacingLeft=4;spacingRight=4;overflow=hidden;rotatable=0;points=[[0,0.5],[1,0.5]];portConstraint=eastwest;" parent="PWljNEWxttzajhteRaMD-27" vertex="1">
                    <mxGeometry y="182" width="240" height="26" as="geometry"/>
                </mxCell>
                <mxCell id="PWljNEWxttzajhteRaMD-39" value="- usernameBill: JLabel" style="text;strokeColor=none;fillColor=none;align=left;verticalAlign=top;spacingLeft=4;spacingRight=4;overflow=hidden;rotatable=0;points=[[0,0.5],[1,0.5]];portConstraint=eastwest;" parent="PWljNEWxttzajhteRaMD-27" vertex="1">
                    <mxGeometry y="208" width="240" height="26" as="geometry"/>
                </mxCell>
                <mxCell id="PWljNEWxttzajhteRaMD-38" value="- phoneNumBill: JLabel" style="text;strokeColor=none;fillColor=none;align=left;verticalAlign=top;spacingLeft=4;spacingRight=4;overflow=hidden;rotatable=0;points=[[0,0.5],[1,0.5]];portConstraint=eastwest;" parent="PWljNEWxttzajhteRaMD-27" vertex="1">
                    <mxGeometry y="234" width="240" height="26" as="geometry"/>
                </mxCell>
                <mxCell id="PWljNEWxttzajhteRaMD-37" value="- paymentMethodBill: JLabel" style="text;strokeColor=none;fillColor=none;align=left;verticalAlign=top;spacingLeft=4;spacingRight=4;overflow=hidden;rotatable=0;points=[[0,0.5],[1,0.5]];portConstraint=eastwest;" parent="PWljNEWxttzajhteRaMD-27" vertex="1">
                    <mxGeometry y="260" width="240" height="26" as="geometry"/>
                </mxCell>
                <mxCell id="PWljNEWxttzajhteRaMD-46" value="- txtCarInfoBill: JLabel" style="text;strokeColor=none;fillColor=none;align=left;verticalAlign=top;spacingLeft=4;spacingRight=4;overflow=hidden;rotatable=0;points=[[0,0.5],[1,0.5]];portConstraint=eastwest;" parent="PWljNEWxttzajhteRaMD-27" vertex="1">
                    <mxGeometry y="286" width="240" height="26" as="geometry"/>
                </mxCell>
                <mxCell id="PWljNEWxttzajhteRaMD-50" value="- txtPhoneNumBill: JLabel" style="text;strokeColor=none;fillColor=none;align=left;verticalAlign=top;spacingLeft=4;spacingRight=4;overflow=hidden;rotatable=0;points=[[0,0.5],[1,0.5]];portConstraint=eastwest;" parent="PWljNEWxttzajhteRaMD-27" vertex="1">
                    <mxGeometry y="312" width="240" height="26" as="geometry"/>
                </mxCell>
                <mxCell id="PWljNEWxttzajhteRaMD-49" value="- txtUsernameBill: JLabel" style="text;strokeColor=none;fillColor=none;align=left;verticalAlign=top;spacingLeft=4;spacingRight=4;overflow=hidden;rotatable=0;points=[[0,0.5],[1,0.5]];portConstraint=eastwest;" parent="PWljNEWxttzajhteRaMD-27" vertex="1">
                    <mxGeometry y="338" width="240" height="26" as="geometry"/>
                </mxCell>
                <mxCell id="PWljNEWxttzajhteRaMD-48" value="- txtPriceBillL JLabel" style="text;strokeColor=none;fillColor=none;align=left;verticalAlign=top;spacingLeft=4;spacingRight=4;overflow=hidden;rotatable=0;points=[[0,0.5],[1,0.5]];portConstraint=eastwest;" parent="PWljNEWxttzajhteRaMD-27" vertex="1">
                    <mxGeometry y="364" width="240" height="26" as="geometry"/>
                </mxCell>
                <mxCell id="PWljNEWxttzajhteRaMD-47" value="- txtRentralDurationBill: JLabel" style="text;strokeColor=none;fillColor=none;align=left;verticalAlign=top;spacingLeft=4;spacingRight=4;overflow=hidden;rotatable=0;points=[[0,0.5],[1,0.5]];portConstraint=eastwest;" parent="PWljNEWxttzajhteRaMD-27" vertex="1">
                    <mxGeometry y="390" width="240" height="26" as="geometry"/>
                </mxCell>
                <mxCell id="PWljNEWxttzajhteRaMD-36" value="- btnGroupBill: ButtonGroup" style="text;strokeColor=none;fillColor=none;align=left;verticalAlign=top;spacingLeft=4;spacingRight=4;overflow=hidden;rotatable=0;points=[[0,0.5],[1,0.5]];portConstraint=eastwest;" parent="PWljNEWxttzajhteRaMD-27" vertex="1">
                    <mxGeometry y="416" width="240" height="26" as="geometry"/>
                </mxCell>
                <mxCell id="PWljNEWxttzajhteRaMD-35" value="- CashBill: JRadioButton" style="text;strokeColor=none;fillColor=none;align=left;verticalAlign=top;spacingLeft=4;spacingRight=4;overflow=hidden;rotatable=0;points=[[0,0.5],[1,0.5]];portConstraint=eastwest;" parent="PWljNEWxttzajhteRaMD-27" vertex="1">
                    <mxGeometry y="442" width="240" height="26" as="geometry"/>
                </mxCell>
                <mxCell id="PWljNEWxttzajhteRaMD-34" value="- OnlineBill: JRadioButton" style="text;strokeColor=none;fillColor=none;align=left;verticalAlign=top;spacingLeft=4;spacingRight=4;overflow=hidden;rotatable=0;points=[[0,0.5],[1,0.5]];portConstraint=eastwest;" parent="PWljNEWxttzajhteRaMD-27" vertex="1">
                    <mxGeometry y="468" width="240" height="26" as="geometry"/>
                </mxCell>
                <mxCell id="PWljNEWxttzajhteRaMD-33" value="- separatorBill: JSeparator" style="text;strokeColor=none;fillColor=none;align=left;verticalAlign=top;spacingLeft=4;spacingRight=4;overflow=hidden;rotatable=0;points=[[0,0.5],[1,0.5]];portConstraint=eastwest;" parent="PWljNEWxttzajhteRaMD-27" vertex="1">
                    <mxGeometry y="494" width="240" height="26" as="geometry"/>
                </mxCell>
                <mxCell id="PWljNEWxttzajhteRaMD-32" value="- separatorBill1: JSeparator" style="text;strokeColor=none;fillColor=none;align=left;verticalAlign=top;spacingLeft=4;spacingRight=4;overflow=hidden;rotatable=0;points=[[0,0.5],[1,0.5]];portConstraint=eastwest;" parent="PWljNEWxttzajhteRaMD-27" vertex="1">
                    <mxGeometry y="520" width="240" height="26" as="geometry"/>
                </mxCell>
                <mxCell id="PWljNEWxttzajhteRaMD-31" value="- btnCancelBill: JButton" style="text;strokeColor=none;fillColor=none;align=left;verticalAlign=top;spacingLeft=4;spacingRight=4;overflow=hidden;rotatable=0;points=[[0,0.5],[1,0.5]];portConstraint=eastwest;" parent="PWljNEWxttzajhteRaMD-27" vertex="1">
                    <mxGeometry y="546" width="240" height="26" as="geometry"/>
                </mxCell>
                <mxCell id="PWljNEWxttzajhteRaMD-52" value="- btnProceedBill: JButton" style="text;strokeColor=none;fillColor=none;align=left;verticalAlign=top;spacingLeft=4;spacingRight=4;overflow=hidden;rotatable=0;points=[[0,0.5],[1,0.5]];portConstraint=eastwest;" parent="PWljNEWxttzajhteRaMD-27" vertex="1">
                    <mxGeometry y="572" width="240" height="26" as="geometry"/>
                </mxCell>
                <mxCell id="PWljNEWxttzajhteRaMD-51" value="- borderBill: Border" style="text;strokeColor=none;fillColor=none;align=left;verticalAlign=top;spacingLeft=4;spacingRight=4;overflow=hidden;rotatable=0;points=[[0,0.5],[1,0.5]];portConstraint=eastwest;" parent="PWljNEWxttzajhteRaMD-27" vertex="1">
                    <mxGeometry y="598" width="240" height="26" as="geometry"/>
                </mxCell>
                <mxCell id="PWljNEWxttzajhteRaMD-29" value="" style="line;strokeWidth=1;fillColor=none;align=left;verticalAlign=middle;spacingTop=-1;spacingLeft=3;spacingRight=3;rotatable=0;labelPosition=right;points=[];portConstraint=eastwest;strokeColor=inherit;" parent="PWljNEWxttzajhteRaMD-27" vertex="1">
                    <mxGeometry y="624" width="240" height="8" as="geometry"/>
                </mxCell>
                <mxCell id="PWljNEWxttzajhteRaMD-53" value="+ mouseClicked(e: MouseEvent): void" style="text;strokeColor=none;fillColor=none;align=left;verticalAlign=top;spacingLeft=4;spacingRight=4;overflow=hidden;rotatable=0;points=[[0,0.5],[1,0.5]];portConstraint=eastwest;" parent="PWljNEWxttzajhteRaMD-27" vertex="1">
                    <mxGeometry y="632" width="240" height="26" as="geometry"/>
                </mxCell>
                <mxCell id="PWljNEWxttzajhteRaMD-54" value="+ App()" style="text;strokeColor=none;fillColor=none;align=left;verticalAlign=top;spacingLeft=4;spacingRight=4;overflow=hidden;rotatable=0;points=[[0,0.5],[1,0.5]];portConstraint=eastwest;" parent="PWljNEWxttzajhteRaMD-27" vertex="1">
                    <mxGeometry y="658" width="240" height="26" as="geometry"/>
                </mxCell>
                <mxCell id="EJakUDDSdxZKXWGw3saw-10" value="User" style="swimlane;fontStyle=1;align=center;verticalAlign=top;childLayout=stackLayout;horizontal=1;startSize=26;horizontalStack=0;resizeParent=1;resizeParentMax=0;resizeLast=0;collapsible=1;marginBottom=0;" parent="WIyWlLk6GJQsqaUBKTNV-1" vertex="1">
                    <mxGeometry x="1521" y="-940" width="280" height="350" as="geometry"/>
                </mxCell>
                <mxCell id="EJakUDDSdxZKXWGw3saw-11" value="+ username: String" style="text;strokeColor=none;fillColor=none;align=left;verticalAlign=top;spacingLeft=4;spacingRight=4;overflow=hidden;rotatable=0;points=[[0,0.5],[1,0.5]];portConstraint=eastwest;" parent="EJakUDDSdxZKXWGw3saw-10" vertex="1">
                    <mxGeometry y="26" width="280" height="26" as="geometry"/>
                </mxCell>
                <mxCell id="EJakUDDSdxZKXWGw3saw-17" value="+ password: String" style="text;strokeColor=none;fillColor=none;align=left;verticalAlign=top;spacingLeft=4;spacingRight=4;overflow=hidden;rotatable=0;points=[[0,0.5],[1,0.5]];portConstraint=eastwest;" parent="EJakUDDSdxZKXWGw3saw-10" vertex="1">
                    <mxGeometry y="52" width="280" height="26" as="geometry"/>
                </mxCell>
                <mxCell id="EJakUDDSdxZKXWGw3saw-16" value="+ email: String" style="text;strokeColor=none;fillColor=none;align=left;verticalAlign=top;spacingLeft=4;spacingRight=4;overflow=hidden;rotatable=0;points=[[0,0.5],[1,0.5]];portConstraint=eastwest;" parent="EJakUDDSdxZKXWGw3saw-10" vertex="1">
                    <mxGeometry y="78" width="280" height="26" as="geometry"/>
                </mxCell>
                <mxCell id="EJakUDDSdxZKXWGw3saw-15" value="+ phoneNum: String" style="text;strokeColor=none;fillColor=none;align=left;verticalAlign=top;spacingLeft=4;spacingRight=4;overflow=hidden;rotatable=0;points=[[0,0.5],[1,0.5]];portConstraint=eastwest;" parent="EJakUDDSdxZKXWGw3saw-10" vertex="1">
                    <mxGeometry y="104" width="280" height="26" as="geometry"/>
                </mxCell>
                <mxCell id="EJakUDDSdxZKXWGw3saw-14" value="+ role: String" style="text;strokeColor=none;fillColor=none;align=left;verticalAlign=top;spacingLeft=4;spacingRight=4;overflow=hidden;rotatable=0;points=[[0,0.5],[1,0.5]];portConstraint=eastwest;" parent="EJakUDDSdxZKXWGw3saw-10" vertex="1">
                    <mxGeometry y="130" width="280" height="26" as="geometry"/>
                </mxCell>
                <mxCell id="EJakUDDSdxZKXWGw3saw-12" value="" style="line;strokeWidth=1;fillColor=none;align=left;verticalAlign=middle;spacingTop=-1;spacingLeft=3;spacingRight=3;rotatable=0;labelPosition=right;points=[];portConstraint=eastwest;strokeColor=inherit;" parent="EJakUDDSdxZKXWGw3saw-10" vertex="1">
                    <mxGeometry y="156" width="280" height="8" as="geometry"/>
                </mxCell>
                <mxCell id="EJakUDDSdxZKXWGw3saw-13" value="+ User(username: String, password: String, &#10;email: String, phoneNum: String, role: String" style="text;strokeColor=none;fillColor=none;align=left;verticalAlign=top;spacingLeft=4;spacingRight=4;overflow=hidden;rotatable=0;points=[[0,0.5],[1,0.5]];portConstraint=eastwest;" parent="EJakUDDSdxZKXWGw3saw-10" vertex="1">
                    <mxGeometry y="164" width="280" height="36" as="geometry"/>
                </mxCell>
                <mxCell id="EJakUDDSdxZKXWGw3saw-18" value="+ getUsername(): String" style="text;strokeColor=none;fillColor=none;align=left;verticalAlign=top;spacingLeft=4;spacingRight=4;overflow=hidden;rotatable=0;points=[[0,0.5],[1,0.5]];portConstraint=eastwest;" parent="EJakUDDSdxZKXWGw3saw-10" vertex="1">
                    <mxGeometry y="200" width="280" height="30" as="geometry"/>
                </mxCell>
                <mxCell id="EJakUDDSdxZKXWGw3saw-19" value="+ getPassword(): String" style="text;strokeColor=none;fillColor=none;align=left;verticalAlign=top;spacingLeft=4;spacingRight=4;overflow=hidden;rotatable=0;points=[[0,0.5],[1,0.5]];portConstraint=eastwest;" parent="EJakUDDSdxZKXWGw3saw-10" vertex="1">
                    <mxGeometry y="230" width="280" height="30" as="geometry"/>
                </mxCell>
                <mxCell id="EJakUDDSdxZKXWGw3saw-20" value="+ getEmail(): String" style="text;strokeColor=none;fillColor=none;align=left;verticalAlign=top;spacingLeft=4;spacingRight=4;overflow=hidden;rotatable=0;points=[[0,0.5],[1,0.5]];portConstraint=eastwest;" parent="EJakUDDSdxZKXWGw3saw-10" vertex="1">
                    <mxGeometry y="260" width="280" height="30" as="geometry"/>
                </mxCell>
                <mxCell id="EJakUDDSdxZKXWGw3saw-21" value="+ getPhoneNum(): String" style="text;strokeColor=none;fillColor=none;align=left;verticalAlign=top;spacingLeft=4;spacingRight=4;overflow=hidden;rotatable=0;points=[[0,0.5],[1,0.5]];portConstraint=eastwest;" parent="EJakUDDSdxZKXWGw3saw-10" vertex="1">
                    <mxGeometry y="290" width="280" height="30" as="geometry"/>
                </mxCell>
                <mxCell id="EJakUDDSdxZKXWGw3saw-22" value="+ getRole(): String" style="text;strokeColor=none;fillColor=none;align=left;verticalAlign=top;spacingLeft=4;spacingRight=4;overflow=hidden;rotatable=0;points=[[0,0.5],[1,0.5]];portConstraint=eastwest;" parent="EJakUDDSdxZKXWGw3saw-10" vertex="1">
                    <mxGeometry y="320" width="280" height="30" as="geometry"/>
                </mxCell>
                <mxCell id="EJakUDDSdxZKXWGw3saw-23" value="printReceipt" style="swimlane;fontStyle=1;align=center;verticalAlign=top;childLayout=stackLayout;horizontal=1;startSize=26;horizontalStack=0;resizeParent=1;resizeParentMax=0;resizeLast=0;collapsible=1;marginBottom=0;" parent="WIyWlLk6GJQsqaUBKTNV-1" vertex="1">
                    <mxGeometry x="480" y="1590" width="260" height="188" as="geometry"/>
                </mxCell>
                <mxCell id="EJakUDDSdxZKXWGw3saw-24" value="+ item: String" style="text;strokeColor=none;fillColor=none;align=left;verticalAlign=top;spacingLeft=4;spacingRight=4;overflow=hidden;rotatable=0;points=[[0,0.5],[1,0.5]];portConstraint=eastwest;" parent="EJakUDDSdxZKXWGw3saw-23" vertex="1">
                    <mxGeometry y="26" width="260" height="26" as="geometry"/>
                </mxCell>
                <mxCell id="EJakUDDSdxZKXWGw3saw-27" value="+ price: double" style="text;strokeColor=none;fillColor=none;align=left;verticalAlign=top;spacingLeft=4;spacingRight=4;overflow=hidden;rotatable=0;points=[[0,0.5],[1,0.5]];portConstraint=eastwest;" parent="EJakUDDSdxZKXWGw3saw-23" vertex="1">
                    <mxGeometry y="52" width="260" height="26" as="geometry"/>
                </mxCell>
                <mxCell id="EJakUDDSdxZKXWGw3saw-28" value="+ paymentMethod: String" style="text;strokeColor=none;fillColor=none;align=left;verticalAlign=top;spacingLeft=4;spacingRight=4;overflow=hidden;rotatable=0;points=[[0,0.5],[1,0.5]];portConstraint=eastwest;" parent="EJakUDDSdxZKXWGw3saw-23" vertex="1">
                    <mxGeometry y="78" width="260" height="26" as="geometry"/>
                </mxCell>
                <mxCell id="EJakUDDSdxZKXWGw3saw-25" value="" style="line;strokeWidth=1;fillColor=none;align=left;verticalAlign=middle;spacingTop=-1;spacingLeft=3;spacingRight=3;rotatable=0;labelPosition=right;points=[];portConstraint=eastwest;strokeColor=inherit;" parent="EJakUDDSdxZKXWGw3saw-23" vertex="1">
                    <mxGeometry y="104" width="260" height="8" as="geometry"/>
                </mxCell>
                <mxCell id="EJakUDDSdxZKXWGw3saw-26" value="+ printReceipt(item: String, price: double, &#10;paymentMethod: String): void" style="text;strokeColor=none;fillColor=none;align=left;verticalAlign=top;spacingLeft=4;spacingRight=4;overflow=hidden;rotatable=0;points=[[0,0.5],[1,0.5]];portConstraint=eastwest;" parent="EJakUDDSdxZKXWGw3saw-23" vertex="1">
                    <mxGeometry y="112" width="260" height="38" as="geometry"/>
                </mxCell>
                <mxCell id="EJakUDDSdxZKXWGw3saw-29" value="+ print(graphocs: Graphics, &#10;pageFormat: PageFormat, pageIndex: int): int" style="text;strokeColor=none;fillColor=none;align=left;verticalAlign=top;spacingLeft=4;spacingRight=4;overflow=hidden;rotatable=0;points=[[0,0.5],[1,0.5]];portConstraint=eastwest;" parent="EJakUDDSdxZKXWGw3saw-23" vertex="1">
                    <mxGeometry y="150" width="260" height="38" as="geometry"/>
                </mxCell>
                <mxCell id="EJakUDDSdxZKXWGw3saw-30" value="Receipt" style="swimlane;fontStyle=1;align=center;verticalAlign=top;childLayout=stackLayout;horizontal=1;startSize=26;horizontalStack=0;resizeParent=1;resizeParentMax=0;resizeLast=0;collapsible=1;marginBottom=0;" parent="WIyWlLk6GJQsqaUBKTNV-1" vertex="1">
                    <mxGeometry x="470" y="1260" width="270" height="220" as="geometry"/>
                </mxCell>
                <mxCell id="EJakUDDSdxZKXWGw3saw-31" value="- bHeight: Double" style="text;strokeColor=none;fillColor=none;align=left;verticalAlign=top;spacingLeft=4;spacingRight=4;overflow=hidden;rotatable=0;points=[[0,0.5],[1,0.5]];portConstraint=eastwest;" parent="EJakUDDSdxZKXWGw3saw-30" vertex="1">
                    <mxGeometry y="26" width="270" height="26" as="geometry"/>
                </mxCell>
                <mxCell id="EJakUDDSdxZKXWGw3saw-32" value="" style="line;strokeWidth=1;fillColor=none;align=left;verticalAlign=middle;spacingTop=-1;spacingLeft=3;spacingRight=3;rotatable=0;labelPosition=right;points=[];portConstraint=eastwest;strokeColor=inherit;" parent="EJakUDDSdxZKXWGw3saw-30" vertex="1">
                    <mxGeometry y="52" width="270" height="8" as="geometry"/>
                </mxCell>
                <mxCell id="EJakUDDSdxZKXWGw3saw-33" value="+ Receipt(item: String, price: double, &#10;paymentMethod: String): void" style="text;strokeColor=none;fillColor=none;align=left;verticalAlign=top;spacingLeft=4;spacingRight=4;overflow=hidden;rotatable=0;points=[[0,0.5],[1,0.5]];portConstraint=eastwest;" parent="EJakUDDSdxZKXWGw3saw-30" vertex="1">
                    <mxGeometry y="60" width="270" height="40" as="geometry"/>
                </mxCell>
                <mxCell id="EJakUDDSdxZKXWGw3saw-36" value="+ getPageFormat(pj: PrinterJob): PageFormat" style="text;strokeColor=none;fillColor=none;align=left;verticalAlign=top;spacingLeft=4;spacingRight=4;overflow=hidden;rotatable=0;points=[[0,0.5],[1,0.5]];portConstraint=eastwest;" parent="EJakUDDSdxZKXWGw3saw-30" vertex="1">
                    <mxGeometry y="100" width="270" height="40" as="geometry"/>
                </mxCell>
                <mxCell id="EJakUDDSdxZKXWGw3saw-35" value="# cm_to_pp(cm: double): double" style="text;strokeColor=none;fillColor=none;align=left;verticalAlign=top;spacingLeft=4;spacingRight=4;overflow=hidden;rotatable=0;points=[[0,0.5],[1,0.5]];portConstraint=eastwest;" parent="EJakUDDSdxZKXWGw3saw-30" vertex="1">
                    <mxGeometry y="140" width="270" height="40" as="geometry"/>
                </mxCell>
                <mxCell id="EJakUDDSdxZKXWGw3saw-34" value="# toPPI(inch: double): double" style="text;strokeColor=none;fillColor=none;align=left;verticalAlign=top;spacingLeft=4;spacingRight=4;overflow=hidden;rotatable=0;points=[[0,0.5],[1,0.5]];portConstraint=eastwest;" parent="EJakUDDSdxZKXWGw3saw-30" vertex="1">
                    <mxGeometry y="180" width="270" height="40" as="geometry"/>
                </mxCell>
                <mxCell id="1" value="Car" style="swimlane;fontStyle=1;align=center;verticalAlign=top;childLayout=stackLayout;horizontal=1;startSize=26;horizontalStack=0;resizeParent=1;resizeParentMax=0;resizeLast=0;collapsible=1;marginBottom=0;" parent="WIyWlLk6GJQsqaUBKTNV-1" vertex="1">
                    <mxGeometry x="-620" y="-140" width="250" height="430" as="geometry"/>
                </mxCell>
                <mxCell id="2" value="- brand: String" style="text;strokeColor=none;fillColor=none;align=left;verticalAlign=top;spacingLeft=4;spacingRight=4;overflow=hidden;rotatable=0;points=[[0,0.5],[1,0.5]];portConstraint=eastwest;" parent="1" vertex="1">
                    <mxGeometry y="26" width="250" height="26" as="geometry"/>
                </mxCell>
                <mxCell id="9" value="- model: String" style="text;strokeColor=none;fillColor=none;align=left;verticalAlign=top;spacingLeft=4;spacingRight=4;overflow=hidden;rotatable=0;points=[[0,0.5],[1,0.5]];portConstraint=eastwest;" parent="1" vertex="1">
                    <mxGeometry y="52" width="250" height="26" as="geometry"/>
                </mxCell>
                <mxCell id="8" value="- plate: String" style="text;strokeColor=none;fillColor=none;align=left;verticalAlign=top;spacingLeft=4;spacingRight=4;overflow=hidden;rotatable=0;points=[[0,0.5],[1,0.5]];portConstraint=eastwest;" parent="1" vertex="1">
                    <mxGeometry y="78" width="250" height="26" as="geometry"/>
                </mxCell>
                <mxCell id="7" value="- year: String" style="text;strokeColor=none;fillColor=none;align=left;verticalAlign=top;spacingLeft=4;spacingRight=4;overflow=hidden;rotatable=0;points=[[0,0.5],[1,0.5]];portConstraint=eastwest;" parent="1" vertex="1">
                    <mxGeometry y="104" width="250" height="26" as="geometry"/>
                </mxCell>
                <mxCell id="6" value="- seat: String" style="text;strokeColor=none;fillColor=none;align=left;verticalAlign=top;spacingLeft=4;spacingRight=4;overflow=hidden;rotatable=0;points=[[0,0.5],[1,0.5]];portConstraint=eastwest;" parent="1" vertex="1">
                    <mxGeometry y="130" width="250" height="26" as="geometry"/>
                </mxCell>
                <mxCell id="5" value="- price: String" style="text;strokeColor=none;fillColor=none;align=left;verticalAlign=top;spacingLeft=4;spacingRight=4;overflow=hidden;rotatable=0;points=[[0,0.5],[1,0.5]];portConstraint=eastwest;" parent="1" vertex="1">
                    <mxGeometry y="156" width="250" height="26" as="geometry"/>
                </mxCell>
                <mxCell id="3" value="" style="line;strokeWidth=1;fillColor=none;align=left;verticalAlign=middle;spacingTop=-1;spacingLeft=3;spacingRight=3;rotatable=0;labelPosition=right;points=[];portConstraint=eastwest;" parent="1" vertex="1">
                    <mxGeometry y="182" width="250" height="8" as="geometry"/>
                </mxCell>
                <mxCell id="4" value="+ Car(brand: String, model: String, &#10;plate: String, year: String, seat: String, &#10;price: String" style="text;strokeColor=none;fillColor=none;align=left;verticalAlign=top;spacingLeft=4;spacingRight=4;overflow=hidden;rotatable=0;points=[[0,0.5],[1,0.5]];portConstraint=eastwest;" parent="1" vertex="1">
                    <mxGeometry y="190" width="250" height="60" as="geometry"/>
                </mxCell>
                <mxCell id="13" value="+ getBrand(): String" style="text;strokeColor=none;fillColor=none;align=left;verticalAlign=top;spacingLeft=4;spacingRight=4;overflow=hidden;rotatable=0;points=[[0,0.5],[1,0.5]];portConstraint=eastwest;" parent="1" vertex="1">
                    <mxGeometry y="250" width="250" height="30" as="geometry"/>
                </mxCell>
                <mxCell id="18" value="+ getModel(): String" style="text;strokeColor=none;fillColor=none;align=left;verticalAlign=top;spacingLeft=4;spacingRight=4;overflow=hidden;rotatable=0;points=[[0,0.5],[1,0.5]];portConstraint=eastwest;" parent="1" vertex="1">
                    <mxGeometry y="280" width="250" height="30" as="geometry"/>
                </mxCell>
                <mxCell id="17" value="+ getPlate(): String" style="text;strokeColor=none;fillColor=none;align=left;verticalAlign=top;spacingLeft=4;spacingRight=4;overflow=hidden;rotatable=0;points=[[0,0.5],[1,0.5]];portConstraint=eastwest;" parent="1" vertex="1">
                    <mxGeometry y="310" width="250" height="30" as="geometry"/>
                </mxCell>
                <mxCell id="16" value="+ getYear(): String" style="text;strokeColor=none;fillColor=none;align=left;verticalAlign=top;spacingLeft=4;spacingRight=4;overflow=hidden;rotatable=0;points=[[0,0.5],[1,0.5]];portConstraint=eastwest;" parent="1" vertex="1">
                    <mxGeometry y="340" width="250" height="30" as="geometry"/>
                </mxCell>
                <mxCell id="15" value="+ getSeat(): String" style="text;strokeColor=none;fillColor=none;align=left;verticalAlign=top;spacingLeft=4;spacingRight=4;overflow=hidden;rotatable=0;points=[[0,0.5],[1,0.5]];portConstraint=eastwest;" parent="1" vertex="1">
                    <mxGeometry y="370" width="250" height="30" as="geometry"/>
                </mxCell>
                <mxCell id="14" value="+ getPrice(): String" style="text;strokeColor=none;fillColor=none;align=left;verticalAlign=top;spacingLeft=4;spacingRight=4;overflow=hidden;rotatable=0;points=[[0,0.5],[1,0.5]];portConstraint=eastwest;" parent="1" vertex="1">
                    <mxGeometry y="400" width="250" height="30" as="geometry"/>
                </mxCell>
                <mxCell id="rlv50LC8XgWAVbiASQaK-18" value="Login" style="swimlane;fontStyle=1;align=center;verticalAlign=top;childLayout=stackLayout;horizontal=1;startSize=26;horizontalStack=0;resizeParent=1;resizeParentMax=0;resizeLast=0;collapsible=1;marginBottom=0;" parent="WIyWlLk6GJQsqaUBKTNV-1" vertex="1">
                    <mxGeometry x="920" y="-950" width="280" height="398" as="geometry"/>
                </mxCell>
                <mxCell id="rlv50LC8XgWAVbiASQaK-19" value="+ frame: JFrame" style="text;strokeColor=none;fillColor=none;align=left;verticalAlign=top;spacingLeft=4;spacingRight=4;overflow=hidden;rotatable=0;points=[[0,0.5],[1,0.5]];portConstraint=eastwest;" parent="rlv50LC8XgWAVbiASQaK-18" vertex="1">
                    <mxGeometry y="26" width="280" height="26" as="geometry"/>
                </mxCell>
                <mxCell id="22" value="+ pnl1: JPanel" style="text;strokeColor=none;fillColor=none;align=left;verticalAlign=top;spacingLeft=4;spacingRight=4;overflow=hidden;rotatable=0;points=[[0,0.5],[1,0.5]];portConstraint=eastwest;" parent="rlv50LC8XgWAVbiASQaK-18" vertex="1">
                    <mxGeometry y="52" width="280" height="26" as="geometry"/>
                </mxCell>
                <mxCell id="21" value="+ pnl2: JPanel" style="text;strokeColor=none;fillColor=none;align=left;verticalAlign=top;spacingLeft=4;spacingRight=4;overflow=hidden;rotatable=0;points=[[0,0.5],[1,0.5]];portConstraint=eastwest;" parent="rlv50LC8XgWAVbiASQaK-18" vertex="1">
                    <mxGeometry y="78" width="280" height="26" as="geometry"/>
                </mxCell>
                <mxCell id="20" value="+ picLogo: JLabel" style="text;strokeColor=none;fillColor=none;align=left;verticalAlign=top;spacingLeft=4;spacingRight=4;overflow=hidden;rotatable=0;points=[[0,0.5],[1,0.5]];portConstraint=eastwest;" parent="rlv50LC8XgWAVbiASQaK-18" vertex="1">
                    <mxGeometry y="104" width="280" height="26" as="geometry"/>
                </mxCell>
                <mxCell id="19" value="+ picUsername: JLabel" style="text;strokeColor=none;fillColor=none;align=left;verticalAlign=top;spacingLeft=4;spacingRight=4;overflow=hidden;rotatable=0;points=[[0,0.5],[1,0.5]];portConstraint=eastwest;" parent="rlv50LC8XgWAVbiASQaK-18" vertex="1">
                    <mxGeometry y="130" width="280" height="26" as="geometry"/>
                </mxCell>
                <mxCell id="28" value="+ picPassword: JLabel" style="text;strokeColor=none;fillColor=none;align=left;verticalAlign=top;spacingLeft=4;spacingRight=4;overflow=hidden;rotatable=0;points=[[0,0.5],[1,0.5]];portConstraint=eastwest;" parent="rlv50LC8XgWAVbiASQaK-18" vertex="1">
                    <mxGeometry y="156" width="280" height="26" as="geometry"/>
                </mxCell>
                <mxCell id="27" value="+ btnLogin: JLabel" style="text;strokeColor=none;fillColor=none;align=left;verticalAlign=top;spacingLeft=4;spacingRight=4;overflow=hidden;rotatable=0;points=[[0,0.5],[1,0.5]];portConstraint=eastwest;" parent="rlv50LC8XgWAVbiASQaK-18" vertex="1">
                    <mxGeometry y="182" width="280" height="26" as="geometry"/>
                </mxCell>
                <mxCell id="26" value="+ txtUsername: JTextField" style="text;strokeColor=none;fillColor=none;align=left;verticalAlign=top;spacingLeft=4;spacingRight=4;overflow=hidden;rotatable=0;points=[[0,0.5],[1,0.5]];portConstraint=eastwest;" parent="rlv50LC8XgWAVbiASQaK-18" vertex="1">
                    <mxGeometry y="208" width="280" height="26" as="geometry"/>
                </mxCell>
                <mxCell id="25" value="+ txtPassword: JPasswordField" style="text;strokeColor=none;fillColor=none;align=left;verticalAlign=top;spacingLeft=4;spacingRight=4;overflow=hidden;rotatable=0;points=[[0,0.5],[1,0.5]];portConstraint=eastwest;" parent="rlv50LC8XgWAVbiASQaK-18" vertex="1">
                    <mxGeometry y="234" width="280" height="26" as="geometry"/>
                </mxCell>
                <mxCell id="24" value="+ separator1: JSeparator" style="text;strokeColor=none;fillColor=none;align=left;verticalAlign=top;spacingLeft=4;spacingRight=4;overflow=hidden;rotatable=0;points=[[0,0.5],[1,0.5]];portConstraint=eastwest;" parent="rlv50LC8XgWAVbiASQaK-18" vertex="1">
                    <mxGeometry y="260" width="280" height="26" as="geometry"/>
                </mxCell>
                <mxCell id="23" value="+ separator2: JSeparator" style="text;strokeColor=none;fillColor=none;align=left;verticalAlign=top;spacingLeft=4;spacingRight=4;overflow=hidden;rotatable=0;points=[[0,0.5],[1,0.5]];portConstraint=eastwest;" parent="rlv50LC8XgWAVbiASQaK-18" vertex="1">
                    <mxGeometry y="286" width="280" height="26" as="geometry"/>
                </mxCell>
                <mxCell id="31" value="+ btnLogin1: JButton" style="text;strokeColor=none;fillColor=none;align=left;verticalAlign=top;spacingLeft=4;spacingRight=4;overflow=hidden;rotatable=0;points=[[0,0.5],[1,0.5]];portConstraint=eastwest;" parent="rlv50LC8XgWAVbiASQaK-18" vertex="1">
                    <mxGeometry y="312" width="280" height="26" as="geometry"/>
                </mxCell>
                <mxCell id="rlv50LC8XgWAVbiASQaK-20" value="" style="line;strokeWidth=1;fillColor=none;align=left;verticalAlign=middle;spacingTop=-1;spacingLeft=3;spacingRight=3;rotatable=0;labelPosition=right;points=[];portConstraint=eastwest;strokeColor=inherit;" parent="rlv50LC8XgWAVbiASQaK-18" vertex="1">
                    <mxGeometry y="338" width="280" height="8" as="geometry"/>
                </mxCell>
                <mxCell id="rlv50LC8XgWAVbiASQaK-21" value="+ Login()" style="text;strokeColor=none;fillColor=none;align=left;verticalAlign=top;spacingLeft=4;spacingRight=4;overflow=hidden;rotatable=0;points=[[0,0.5],[1,0.5]];portConstraint=eastwest;" parent="rlv50LC8XgWAVbiASQaK-18" vertex="1">
                    <mxGeometry y="346" width="280" height="26" as="geometry"/>
                </mxCell>
                <mxCell id="32" value="+ mouseClicked(e: MouseEvent): void" style="text;strokeColor=none;fillColor=none;align=left;verticalAlign=top;spacingLeft=4;spacingRight=4;overflow=hidden;rotatable=0;points=[[0,0.5],[1,0.5]];portConstraint=eastwest;" parent="rlv50LC8XgWAVbiASQaK-18" vertex="1">
                    <mxGeometry y="372" width="280" height="26" as="geometry"/>
                </mxCell>
                <mxCell id="rlv50LC8XgWAVbiASQaK-36" value="" style="endArrow=none;html=1;rounded=0;entryX=0.002;entryY=1.247;entryDx=0;entryDy=0;entryPerimeter=0;exitX=1;exitY=0.5;exitDx=0;exitDy=0;" parent="WIyWlLk6GJQsqaUBKTNV-1" source="28" target="EJakUDDSdxZKXWGw3saw-14" edge="1">
                    <mxGeometry width="50" height="50" relative="1" as="geometry">
                        <mxPoint x="1180" y="-570" as="sourcePoint"/>
                        <mxPoint x="1230" y="-620" as="targetPoint"/>
                    </mxGeometry>
                </mxCell>
                <mxCell id="rlv50LC8XgWAVbiASQaK-37" value="1 *&amp;nbsp;" style="text;html=1;align=center;verticalAlign=middle;resizable=0;points=[];autosize=1;strokeColor=none;fillColor=none;fontSize=20;" parent="WIyWlLk6GJQsqaUBKTNV-1" vertex="1">
                    <mxGeometry x="1205" y="-820" width="50" height="40" as="geometry"/>
                </mxCell>
                <mxCell id="rlv50LC8XgWAVbiASQaK-38" value="*" style="text;html=1;align=center;verticalAlign=middle;resizable=0;points=[];autosize=1;strokeColor=none;fillColor=none;fontSize=20;" parent="WIyWlLk6GJQsqaUBKTNV-1" vertex="1">
                    <mxGeometry x="1485" y="-820" width="30" height="40" as="geometry"/>
                </mxCell>
                <mxCell id="-8ezq4TVI2wedJxwx6Ep-36" value="1 *&amp;nbsp;" style="text;html=1;align=center;verticalAlign=middle;resizable=0;points=[];autosize=1;strokeColor=none;fillColor=none;fontSize=20;" parent="WIyWlLk6GJQsqaUBKTNV-1" vertex="1">
                    <mxGeometry x="920" y="-268" width="50" height="40" as="geometry"/>
                </mxCell>
                <mxCell id="-8ezq4TVI2wedJxwx6Ep-37" value="1 *&amp;nbsp;" style="text;html=1;align=center;verticalAlign=middle;resizable=0;points=[];autosize=1;strokeColor=none;fillColor=none;fontSize=20;" parent="WIyWlLk6GJQsqaUBKTNV-1" vertex="1">
                    <mxGeometry x="1100" y="-30" width="50" height="40" as="geometry"/>
                </mxCell>
                <mxCell id="-8ezq4TVI2wedJxwx6Ep-38" value="1 *&amp;nbsp;" style="text;html=1;align=center;verticalAlign=middle;resizable=0;points=[];autosize=1;strokeColor=none;fillColor=none;fontSize=20;" parent="WIyWlLk6GJQsqaUBKTNV-1" vertex="1">
                    <mxGeometry x="1390" y="-268" width="50" height="40" as="geometry"/>
                </mxCell>
                <mxCell id="-8ezq4TVI2wedJxwx6Ep-39" value="1 *&amp;nbsp;" style="text;html=1;align=center;verticalAlign=middle;resizable=0;points=[];autosize=1;strokeColor=none;fillColor=none;fontSize=20;" parent="WIyWlLk6GJQsqaUBKTNV-1" vertex="1">
                    <mxGeometry x="920" y="-140" width="50" height="40" as="geometry"/>
                </mxCell>
                <mxCell id="-8ezq4TVI2wedJxwx6Ep-40" value="1 *&amp;nbsp;" style="text;html=1;align=center;verticalAlign=middle;resizable=0;points=[];autosize=1;strokeColor=none;fillColor=none;fontSize=20;" parent="WIyWlLk6GJQsqaUBKTNV-1" vertex="1">
                    <mxGeometry x="1340" y="-30" width="50" height="40" as="geometry"/>
                </mxCell>
                <mxCell id="-8ezq4TVI2wedJxwx6Ep-44" value="" style="endArrow=none;html=1;rounded=0;elbow=vertical;entryX=0.464;entryY=1;entryDx=0;entryDy=0;entryPerimeter=0;exitX=0.5;exitY=0;exitDx=0;exitDy=0;edgeStyle=elbowEdgeStyle;" parent="WIyWlLk6GJQsqaUBKTNV-1" source="Mfn7tafHpo8cdK77_WL3-38" target="32" edge="1">
                    <mxGeometry width="50" height="50" relative="1" as="geometry">
                        <mxPoint x="1080" y="-500" as="sourcePoint"/>
                        <mxPoint x="1130" y="-550" as="targetPoint"/>
                        <Array as="points">
                            <mxPoint x="920" y="-490"/>
                        </Array>
                    </mxGeometry>
                </mxCell>
                <mxCell id="-8ezq4TVI2wedJxwx6Ep-45" value="" style="endArrow=none;html=1;rounded=0;elbow=vertical;exitX=0.5;exitY=0;exitDx=0;exitDy=0;edgeStyle=elbowEdgeStyle;" parent="WIyWlLk6GJQsqaUBKTNV-1" source="zkfFHV4jXpPFQw0GAbJ--0" edge="1">
                    <mxGeometry width="50" height="50" relative="1" as="geometry">
                        <mxPoint x="1080" y="-500" as="sourcePoint"/>
                        <mxPoint x="1050" y="-550" as="targetPoint"/>
                        <Array as="points">
                            <mxPoint x="1220" y="-490"/>
                        </Array>
                    </mxGeometry>
                </mxCell>
                <mxCell id="-8ezq4TVI2wedJxwx6Ep-46" value="1 *&amp;nbsp;" style="text;html=1;align=center;verticalAlign=middle;resizable=0;points=[];autosize=1;strokeColor=none;fillColor=none;fontSize=20;" parent="WIyWlLk6GJQsqaUBKTNV-1" vertex="1">
                    <mxGeometry x="790" y="-480" width="50" height="40" as="geometry"/>
                </mxCell>
                <mxCell id="-8ezq4TVI2wedJxwx6Ep-47" value="1 *&amp;nbsp;" style="text;html=1;align=center;verticalAlign=middle;resizable=0;points=[];autosize=1;strokeColor=none;fillColor=none;fontSize=20;" parent="WIyWlLk6GJQsqaUBKTNV-1" vertex="1">
                    <mxGeometry x="1326" y="-480" width="50" height="40" as="geometry"/>
                </mxCell>
                <mxCell id="-8ezq4TVI2wedJxwx6Ep-48" value="*" style="text;html=1;align=center;verticalAlign=middle;resizable=0;points=[];autosize=1;strokeColor=none;fillColor=none;fontSize=20;" parent="WIyWlLk6GJQsqaUBKTNV-1" vertex="1">
                    <mxGeometry x="1060" y="-540" width="30" height="40" as="geometry"/>
                </mxCell>
                <mxCell id="-8ezq4TVI2wedJxwx6Ep-50" value="" style="endArrow=none;html=1;rounded=0;elbow=vertical;exitX=1.015;exitY=0.154;exitDx=0;exitDy=0;exitPerimeter=0;entryX=0.5;entryY=0;entryDx=0;entryDy=0;edgeStyle=elbowEdgeStyle;" parent="WIyWlLk6GJQsqaUBKTNV-1" source="Mfn7tafHpo8cdK77_WL3-63" target="Mfn7tafHpo8cdK77_WL3-118" edge="1">
                    <mxGeometry width="50" height="50" relative="1" as="geometry">
                        <mxPoint x="1070" y="-110" as="sourcePoint"/>
                        <mxPoint x="1120" y="-160" as="targetPoint"/>
                        <Array as="points">
                            <mxPoint x="1010" y="-230"/>
                        </Array>
                    </mxGeometry>
                </mxCell>
                <mxCell id="-8ezq4TVI2wedJxwx6Ep-51" value="" style="endArrow=none;html=1;rounded=0;elbow=vertical;exitX=1;exitY=0.5;exitDx=0;exitDy=0;entryX=0.5;entryY=0;entryDx=0;entryDy=0;edgeStyle=elbowEdgeStyle;" parent="WIyWlLk6GJQsqaUBKTNV-1" source="Mfn7tafHpo8cdK77_WL3-58" target="Mfn7tafHpo8cdK77_WL3-71" edge="1">
                    <mxGeometry width="50" height="50" relative="1" as="geometry">
                        <mxPoint x="923.9000000000001" y="-217.9960000000001" as="sourcePoint"/>
                        <mxPoint x="1100" y="30" as="targetPoint"/>
                        <Array as="points">
                            <mxPoint x="1410" y="-89"/>
                        </Array>
                    </mxGeometry>
                </mxCell>
                <mxCell id="-8ezq4TVI2wedJxwx6Ep-52" value="" style="endArrow=none;html=1;rounded=0;elbow=vertical;exitX=0.502;exitY=1.205;exitDx=0;exitDy=0;exitPerimeter=0;entryX=0.5;entryY=0;entryDx=0;entryDy=0;edgeStyle=elbowEdgeStyle;" parent="WIyWlLk6GJQsqaUBKTNV-1" source="Mfn7tafHpo8cdK77_WL3-229" target="Mfn7tafHpo8cdK77_WL3-118" edge="1">
                    <mxGeometry width="50" height="50" relative="1" as="geometry">
                        <mxPoint x="933.9000000000001" y="-207.9960000000001" as="sourcePoint"/>
                        <mxPoint x="1110" y="40" as="targetPoint"/>
                        <Array as="points">
                            <mxPoint x="1220" y="-230"/>
                        </Array>
                    </mxGeometry>
                </mxCell>
                <mxCell id="-8ezq4TVI2wedJxwx6Ep-53" value="" style="endArrow=none;html=1;rounded=0;elbow=vertical;exitX=0.5;exitY=1.231;exitDx=0;exitDy=0;exitPerimeter=0;entryX=0.5;entryY=0;entryDx=0;entryDy=0;edgeStyle=elbowEdgeStyle;" parent="WIyWlLk6GJQsqaUBKTNV-1" source="Mfn7tafHpo8cdK77_WL3-229" target="Mfn7tafHpo8cdK77_WL3-71" edge="1">
                    <mxGeometry width="50" height="50" relative="1" as="geometry">
                        <mxPoint x="943.9000000000001" y="-197.9960000000001" as="sourcePoint"/>
                        <mxPoint x="1120" y="50" as="targetPoint"/>
                        <Array as="points">
                            <mxPoint x="1380" y="-230"/>
                        </Array>
                    </mxGeometry>
                </mxCell>
                <mxCell id="-8ezq4TVI2wedJxwx6Ep-54" value="" style="endArrow=none;html=1;rounded=0;elbow=vertical;entryX=0.485;entryY=1.051;entryDx=0;entryDy=0;entryPerimeter=0;exitX=0.5;exitY=0;exitDx=0;exitDy=0;edgeStyle=elbowEdgeStyle;" parent="WIyWlLk6GJQsqaUBKTNV-1" source="Mfn7tafHpo8cdK77_WL3-258" target="Mfn7tafHpo8cdK77_WL3-136" edge="1">
                    <mxGeometry width="50" height="50" relative="1" as="geometry">
                        <mxPoint x="1090" y="570" as="sourcePoint"/>
                        <mxPoint x="1140" y="520" as="targetPoint"/>
                        <Array as="points"/>
                    </mxGeometry>
                </mxCell>
                <mxCell id="-8ezq4TVI2wedJxwx6Ep-55" value="" style="endArrow=none;html=1;rounded=0;elbow=vertical;entryX=0.479;entryY=1.051;entryDx=0;entryDy=0;entryPerimeter=0;exitX=0.5;exitY=0;exitDx=0;exitDy=0;edgeStyle=elbowEdgeStyle;" parent="WIyWlLk6GJQsqaUBKTNV-1" source="Mfn7tafHpo8cdK77_WL3-192" target="Mfn7tafHpo8cdK77_WL3-136" edge="1">
                    <mxGeometry width="50" height="50" relative="1" as="geometry">
                        <mxPoint x="1085" y="530" as="sourcePoint"/>
                        <mxPoint x="1096.1" y="455.326" as="targetPoint"/>
                        <Array as="points">
                            <mxPoint x="1270" y="480"/>
                        </Array>
                    </mxGeometry>
                </mxCell>
                <mxCell id="-8ezq4TVI2wedJxwx6Ep-56" value="" style="endArrow=none;html=1;rounded=0;elbow=vertical;entryX=0.553;entryY=1.103;entryDx=0;entryDy=0;entryPerimeter=0;exitX=0.5;exitY=0;exitDx=0;exitDy=0;edgeStyle=elbowEdgeStyle;" parent="WIyWlLk6GJQsqaUBKTNV-1" source="Mfn7tafHpo8cdK77_WL3-258" target="Mfn7tafHpo8cdK77_WL3-86" edge="1">
                    <mxGeometry width="50" height="50" relative="1" as="geometry">
                        <mxPoint x="1095" y="540" as="sourcePoint"/>
                        <mxPoint x="1106.1" y="465.326" as="targetPoint"/>
                        <Array as="points">
                            <mxPoint x="1250" y="480"/>
                        </Array>
                    </mxGeometry>
                </mxCell>
                <mxCell id="-8ezq4TVI2wedJxwx6Ep-57" value="" style="endArrow=none;html=1;rounded=0;elbow=vertical;exitX=0.5;exitY=0;exitDx=0;exitDy=0;entryX=0.553;entryY=1.154;entryDx=0;entryDy=0;entryPerimeter=0;edgeStyle=elbowEdgeStyle;" parent="WIyWlLk6GJQsqaUBKTNV-1" source="Mfn7tafHpo8cdK77_WL3-192" target="Mfn7tafHpo8cdK77_WL3-86" edge="1">
                    <mxGeometry width="50" height="50" relative="1" as="geometry">
                        <mxPoint x="1105" y="550" as="sourcePoint"/>
                        <mxPoint x="1420" y="440" as="targetPoint"/>
                        <Array as="points">
                            <mxPoint x="1440" y="480"/>
                        </Array>
                    </mxGeometry>
                </mxCell>
                <mxCell id="-8ezq4TVI2wedJxwx6Ep-58" value="1 *&amp;nbsp;" style="text;html=1;align=center;verticalAlign=middle;resizable=0;points=[];autosize=1;strokeColor=none;fillColor=none;fontSize=20;" parent="WIyWlLk6GJQsqaUBKTNV-1" vertex="1">
                    <mxGeometry x="1035" y="444" width="50" height="40" as="geometry"/>
                </mxCell>
                <mxCell id="-8ezq4TVI2wedJxwx6Ep-59" value="1 *&amp;nbsp;" style="text;html=1;align=center;verticalAlign=middle;resizable=0;points=[];autosize=1;strokeColor=none;fillColor=none;fontSize=20;" parent="WIyWlLk6GJQsqaUBKTNV-1" vertex="1">
                    <mxGeometry x="1085" y="480" width="50" height="40" as="geometry"/>
                </mxCell>
                <mxCell id="-8ezq4TVI2wedJxwx6Ep-60" value="1 *&amp;nbsp;" style="text;html=1;align=center;verticalAlign=middle;resizable=0;points=[];autosize=1;strokeColor=none;fillColor=none;fontSize=20;" parent="WIyWlLk6GJQsqaUBKTNV-1" vertex="1">
                    <mxGeometry x="1420" y="444" width="50" height="40" as="geometry"/>
                </mxCell>
                <mxCell id="-8ezq4TVI2wedJxwx6Ep-61" value="1 *&amp;nbsp;" style="text;html=1;align=center;verticalAlign=middle;resizable=0;points=[];autosize=1;strokeColor=none;fillColor=none;fontSize=20;" parent="WIyWlLk6GJQsqaUBKTNV-1" vertex="1">
                    <mxGeometry x="1400" y="480" width="50" height="40" as="geometry"/>
                </mxCell>
                <mxCell id="-8ezq4TVI2wedJxwx6Ep-62" value="" style="endArrow=none;html=1;rounded=0;elbow=vertical;entryX=-0.002;entryY=-0.051;entryDx=0;entryDy=0;exitX=1;exitY=0.5;exitDx=0;exitDy=0;entryPerimeter=0;" parent="WIyWlLk6GJQsqaUBKTNV-1" source="PWljNEWxttzajhteRaMD-42" target="Mfn7tafHpo8cdK77_WL3-274" edge="1">
                    <mxGeometry width="50" height="50" relative="1" as="geometry">
                        <mxPoint x="800" y="680" as="sourcePoint"/>
                        <mxPoint x="850" y="630" as="targetPoint"/>
                    </mxGeometry>
                </mxCell>
                <mxCell id="-8ezq4TVI2wedJxwx6Ep-63" value="*&amp;nbsp;" style="text;html=1;align=center;verticalAlign=middle;resizable=0;points=[];autosize=1;strokeColor=none;fillColor=none;fontSize=20;" parent="WIyWlLk6GJQsqaUBKTNV-1" vertex="1">
                    <mxGeometry x="635" y="1220" width="40" height="40" as="geometry"/>
                </mxCell>
                <mxCell id="-8ezq4TVI2wedJxwx6Ep-64" value="1 *&amp;nbsp;" style="text;html=1;align=center;verticalAlign=middle;resizable=0;points=[];autosize=1;strokeColor=none;fillColor=none;fontSize=20;" parent="WIyWlLk6GJQsqaUBKTNV-1" vertex="1">
                    <mxGeometry x="860" y="530" width="50" height="40" as="geometry"/>
                </mxCell>
                <mxCell id="-8ezq4TVI2wedJxwx6Ep-65" value="" style="endArrow=none;html=1;rounded=0;elbow=vertical;entryX=0.511;entryY=1.1;entryDx=0;entryDy=0;entryPerimeter=0;exitX=0.5;exitY=0;exitDx=0;exitDy=0;" parent="WIyWlLk6GJQsqaUBKTNV-1" source="EJakUDDSdxZKXWGw3saw-23" target="EJakUDDSdxZKXWGw3saw-34" edge="1">
                    <mxGeometry width="50" height="50" relative="1" as="geometry">
                        <mxPoint x="820" y="1490" as="sourcePoint"/>
                        <mxPoint x="870" y="1440" as="targetPoint"/>
                    </mxGeometry>
                </mxCell>
                <mxCell id="-8ezq4TVI2wedJxwx6Ep-66" value="1 *&amp;nbsp;" style="text;html=1;align=center;verticalAlign=middle;resizable=0;points=[];autosize=1;strokeColor=none;fillColor=none;fontSize=20;" parent="WIyWlLk6GJQsqaUBKTNV-1" vertex="1">
                    <mxGeometry x="610" y="1480" width="50" height="40" as="geometry"/>
                </mxCell>
                <mxCell id="-8ezq4TVI2wedJxwx6Ep-67" value="*&amp;nbsp;" style="text;html=1;align=center;verticalAlign=middle;resizable=0;points=[];autosize=1;strokeColor=none;fillColor=none;fontSize=20;" parent="WIyWlLk6GJQsqaUBKTNV-1" vertex="1">
                    <mxGeometry x="565" y="1543" width="40" height="40" as="geometry"/>
                </mxCell>
                <mxCell id="-8ezq4TVI2wedJxwx6Ep-68" value="" style="endArrow=none;html=1;rounded=0;elbow=vertical;entryX=-0.015;entryY=1.077;entryDx=0;entryDy=0;entryPerimeter=0;exitX=1;exitY=0.128;exitDx=0;exitDy=0;exitPerimeter=0;" parent="WIyWlLk6GJQsqaUBKTNV-1" source="Mfn7tafHpo8cdK77_WL3-206" target="Mfn7tafHpo8cdK77_WL3-222" edge="1">
                    <mxGeometry width="50" height="50" relative="1" as="geometry">
                        <mxPoint x="1600" y="720" as="sourcePoint"/>
                        <mxPoint x="1650" y="670" as="targetPoint"/>
                    </mxGeometry>
                </mxCell>
                <mxCell id="-8ezq4TVI2wedJxwx6Ep-69" value="1 *&amp;nbsp;" style="text;html=1;align=center;verticalAlign=middle;resizable=0;points=[];autosize=1;strokeColor=none;fillColor=none;fontSize=20;" parent="WIyWlLk6GJQsqaUBKTNV-1" vertex="1">
                    <mxGeometry x="1570" y="650" width="50" height="40" as="geometry"/>
                </mxCell>
                <mxCell id="-8ezq4TVI2wedJxwx6Ep-70" value="1 *&amp;nbsp;" style="text;html=1;align=center;verticalAlign=middle;resizable=0;points=[];autosize=1;strokeColor=none;fillColor=none;fontSize=20;" parent="WIyWlLk6GJQsqaUBKTNV-1" vertex="1">
                    <mxGeometry x="1654" y="690" width="50" height="40" as="geometry"/>
                </mxCell>
                <mxCell id="-8ezq4TVI2wedJxwx6Ep-71" value="" style="endArrow=none;html=1;rounded=0;exitX=0.995;exitY=-0.051;exitDx=0;exitDy=0;exitPerimeter=0;edgeStyle=elbowEdgeStyle;" parent="WIyWlLk6GJQsqaUBKTNV-1" source="Mfn7tafHpo8cdK77_WL3-110" edge="1">
                    <mxGeometry width="50" height="50" relative="1" as="geometry">
                        <mxPoint x="560" y="-220" as="sourcePoint"/>
                        <mxPoint x="650" y="-193" as="targetPoint"/>
                        <Array as="points">
                            <mxPoint x="540" y="-360"/>
                        </Array>
                    </mxGeometry>
                </mxCell>
                <mxCell id="-8ezq4TVI2wedJxwx6Ep-72" value="" style="endArrow=none;html=1;rounded=0;elbow=vertical;entryX=0;entryY=0.5;entryDx=0;entryDy=0;exitX=0.991;exitY=0.077;exitDx=0;exitDy=0;exitPerimeter=0;" parent="WIyWlLk6GJQsqaUBKTNV-1" source="Mfn7tafHpo8cdK77_WL3-97" target="Mfn7tafHpo8cdK77_WL3-62" edge="1">
                    <mxGeometry width="50" height="50" relative="1" as="geometry">
                        <mxPoint x="330" y="-390" as="sourcePoint"/>
                        <mxPoint x="380" y="-440" as="targetPoint"/>
                    </mxGeometry>
                </mxCell>
                <mxCell id="-8ezq4TVI2wedJxwx6Ep-73" value="" style="endArrow=none;html=1;rounded=0;entryX=0;entryY=0.5;entryDx=0;entryDy=0;edgeStyle=elbowEdgeStyle;exitX=1;exitY=0.5;exitDx=0;exitDy=0;" parent="WIyWlLk6GJQsqaUBKTNV-1" source="Mfn7tafHpo8cdK77_WL3-243" target="Mfn7tafHpo8cdK77_WL3-62" edge="1">
                    <mxGeometry width="50" height="50" relative="1" as="geometry">
                        <mxPoint x="540" y="420" as="sourcePoint"/>
                        <mxPoint x="570" y="120" as="targetPoint"/>
                    </mxGeometry>
                </mxCell>
                <mxCell id="-8ezq4TVI2wedJxwx6Ep-74" value="" style="endArrow=none;html=1;rounded=0;entryX=0;entryY=0.5;entryDx=0;entryDy=0;exitX=1;exitY=0.5;exitDx=0;exitDy=0;edgeStyle=elbowEdgeStyle;" parent="WIyWlLk6GJQsqaUBKTNV-1" source="Mfn7tafHpo8cdK77_WL3-186" target="Mfn7tafHpo8cdK77_WL3-95" edge="1">
                    <mxGeometry width="50" height="50" relative="1" as="geometry">
                        <mxPoint x="120" y="-110" as="sourcePoint"/>
                        <mxPoint x="170" y="-160" as="targetPoint"/>
                        <Array as="points">
                            <mxPoint x="140" y="-80"/>
                        </Array>
                    </mxGeometry>
                </mxCell>
                <mxCell id="-8ezq4TVI2wedJxwx6Ep-75" value="" style="endArrow=none;html=1;rounded=0;entryX=0;entryY=0.5;entryDx=0;entryDy=0;exitX=1;exitY=0.5;exitDx=0;exitDy=0;edgeStyle=elbowEdgeStyle;" parent="WIyWlLk6GJQsqaUBKTNV-1" source="Mfn7tafHpo8cdK77_WL3-147" target="Mfn7tafHpo8cdK77_WL3-95" edge="1">
                    <mxGeometry width="50" height="50" relative="1" as="geometry">
                        <mxPoint x="100" y="-230" as="sourcePoint"/>
                        <mxPoint x="150" y="-280" as="targetPoint"/>
                    </mxGeometry>
                </mxCell>
                <mxCell id="-8ezq4TVI2wedJxwx6Ep-76" value="" style="endArrow=none;html=1;rounded=0;entryX=-0.011;entryY=-0.179;entryDx=0;entryDy=0;entryPerimeter=0;exitX=1.011;exitY=0.7;exitDx=0;exitDy=0;exitPerimeter=0;" parent="WIyWlLk6GJQsqaUBKTNV-1" source="4" target="Mfn7tafHpo8cdK77_WL3-181" edge="1">
                    <mxGeometry width="50" height="50" relative="1" as="geometry">
                        <mxPoint x="-430" y="450" as="sourcePoint"/>
                        <mxPoint x="-380" y="400" as="targetPoint"/>
                    </mxGeometry>
                </mxCell>
                <mxCell id="-8ezq4TVI2wedJxwx6Ep-77" value="" style="endArrow=none;html=1;rounded=0;entryX=0.475;entryY=1.115;entryDx=0;entryDy=0;entryPerimeter=0;exitX=1;exitY=0.5;exitDx=0;exitDy=0;edgeStyle=elbowEdgeStyle;" parent="WIyWlLk6GJQsqaUBKTNV-1" source="dF_DScVQPOzMR-qX4pVW-3" target="Mfn7tafHpo8cdK77_WL3-257" edge="1">
                    <mxGeometry width="50" height="50" relative="1" as="geometry">
                        <mxPoint x="170" y="960" as="sourcePoint"/>
                        <mxPoint x="220" y="910" as="targetPoint"/>
                        <Array as="points">
                            <mxPoint x="262" y="900"/>
                        </Array>
                    </mxGeometry>
                </mxCell>
                <mxCell id="-8ezq4TVI2wedJxwx6Ep-78" value="" style="endArrow=none;html=1;rounded=0;entryX=0.5;entryY=1.077;entryDx=0;entryDy=0;entryPerimeter=0;exitX=0.75;exitY=0;exitDx=0;exitDy=0;" parent="WIyWlLk6GJQsqaUBKTNV-1" source="zkfFHV4jXpPFQw0GAbJ--17" target="Mfn7tafHpo8cdK77_WL3-191" edge="1">
                    <mxGeometry width="50" height="50" relative="1" as="geometry">
                        <mxPoint x="-380" y="530" as="sourcePoint"/>
                        <mxPoint x="-330" y="480" as="targetPoint"/>
                    </mxGeometry>
                </mxCell>
                <mxCell id="-8ezq4TVI2wedJxwx6Ep-80" value="" style="endArrow=none;html=1;rounded=0;edgeStyle=orthogonalEdgeStyle;curved=1;entryX=0;entryY=0.5;entryDx=0;entryDy=0;exitX=0.007;exitY=0.033;exitDx=0;exitDy=0;exitPerimeter=0;" parent="WIyWlLk6GJQsqaUBKTNV-1" source="dF_DScVQPOzMR-qX4pVW-5" target="Mfn7tafHpo8cdK77_WL3-150" edge="1">
                    <mxGeometry width="50" height="50" relative="1" as="geometry">
                        <mxPoint x="-640" y="-290" as="sourcePoint"/>
                        <mxPoint x="-590" y="-340" as="targetPoint"/>
                        <Array as="points">
                            <mxPoint x="-760" y="1073"/>
                            <mxPoint x="-760" y="-503"/>
                        </Array>
                    </mxGeometry>
                </mxCell>
                <mxCell id="-8ezq4TVI2wedJxwx6Ep-81" value="" style="endArrow=none;html=1;rounded=0;curved=1;entryX=0.403;entryY=0.002;entryDx=0;entryDy=0;entryPerimeter=0;edgeStyle=orthogonalEdgeStyle;" parent="WIyWlLk6GJQsqaUBKTNV-1" target="Mfn7tafHpo8cdK77_WL3-101" edge="1">
                    <mxGeometry width="50" height="50" relative="1" as="geometry">
                        <mxPoint x="-450" y="-460" as="sourcePoint"/>
                        <mxPoint x="100" y="-860" as="targetPoint"/>
                        <Array as="points">
                            <mxPoint x="-450" y="-860"/>
                            <mxPoint x="321" y="-860"/>
                        </Array>
                    </mxGeometry>
                </mxCell>
                <mxCell id="-8ezq4TVI2wedJxwx6Ep-82" value="" style="endArrow=none;html=1;rounded=0;entryX=0;entryY=0.5;entryDx=0;entryDy=0;exitX=1;exitY=0.5;exitDx=0;exitDy=0;" parent="WIyWlLk6GJQsqaUBKTNV-1" source="dF_DScVQPOzMR-qX4pVW-6" target="Mfn7tafHpo8cdK77_WL3-275" edge="1">
                    <mxGeometry width="50" height="50" relative="1" as="geometry">
                        <mxPoint x="730" y="1170" as="sourcePoint"/>
                        <mxPoint x="780" y="1120" as="targetPoint"/>
                    </mxGeometry>
                </mxCell>
                <mxCell id="-8ezq4TVI2wedJxwx6Ep-83" value="" style="endArrow=none;html=1;rounded=0;entryX=0.503;entryY=1.077;entryDx=0;entryDy=0;entryPerimeter=0;exitX=0.568;exitY=-0.006;exitDx=0;exitDy=0;exitPerimeter=0;" parent="WIyWlLk6GJQsqaUBKTNV-1" source="EJakUDDSdxZKXWGw3saw-30" target="PWljNEWxttzajhteRaMD-54" edge="1">
                    <mxGeometry width="50" height="50" relative="1" as="geometry">
                        <mxPoint x="621" y="1250" as="sourcePoint"/>
                        <mxPoint x="640" y="1160" as="targetPoint"/>
                    </mxGeometry>
                </mxCell>
                <mxCell id="-8ezq4TVI2wedJxwx6Ep-84" value="1 *&amp;nbsp;" style="text;html=1;align=center;verticalAlign=middle;resizable=0;points=[];autosize=1;strokeColor=none;fillColor=none;fontSize=20;" parent="WIyWlLk6GJQsqaUBKTNV-1" vertex="1">
                    <mxGeometry x="620" y="1140" width="50" height="40" as="geometry"/>
                </mxCell>
                <mxCell id="-8ezq4TVI2wedJxwx6Ep-85" value="" style="endArrow=none;html=1;rounded=0;entryX=0.456;entryY=1.077;entryDx=0;entryDy=0;entryPerimeter=0;exitX=0.468;exitY=1.133;exitDx=0;exitDy=0;exitPerimeter=0;edgeStyle=orthogonalEdgeStyle;curved=1;" parent="WIyWlLk6GJQsqaUBKTNV-1" source="EJakUDDSdxZKXWGw3saw-5" target="Mfn7tafHpo8cdK77_WL3-212" edge="1">
                    <mxGeometry width="50" height="50" relative="1" as="geometry">
                        <mxPoint x="1430" y="1140" as="sourcePoint"/>
                        <mxPoint x="1480" y="1090" as="targetPoint"/>
                        <Array as="points">
                            <mxPoint x="-187" y="1900"/>
                            <mxPoint x="1439" y="1900"/>
                        </Array>
                    </mxGeometry>
                </mxCell>
                <mxCell id="-8ezq4TVI2wedJxwx6Ep-86" value="" style="endArrow=none;html=1;rounded=0;curved=1;entryX=0.488;entryY=1.077;entryDx=0;entryDy=0;entryPerimeter=0;edgeStyle=orthogonalEdgeStyle;" parent="WIyWlLk6GJQsqaUBKTNV-1" target="Mfn7tafHpo8cdK77_WL3-227" edge="1">
                    <mxGeometry width="50" height="50" relative="1" as="geometry">
                        <mxPoint x="1390" y="1380" as="sourcePoint"/>
                        <mxPoint x="1760" y="1080" as="targetPoint"/>
                        <Array as="points">
                            <mxPoint x="1807" y="1380"/>
                        </Array>
                    </mxGeometry>
                </mxCell>
                <mxCell id="-8ezq4TVI2wedJxwx6Ep-87" value="" style="endArrow=none;html=1;rounded=0;curved=1;entryX=1;entryY=0.5;entryDx=0;entryDy=0;edgeStyle=orthogonalEdgeStyle;" parent="WIyWlLk6GJQsqaUBKTNV-1" target="Mfn7tafHpo8cdK77_WL3-78" edge="1">
                    <mxGeometry width="50" height="50" relative="1" as="geometry">
                        <mxPoint x="1780" y="1080" as="sourcePoint"/>
                        <mxPoint x="1720" y="290" as="targetPoint"/>
                        <Array as="points">
                            <mxPoint x="2090" y="1080"/>
                            <mxPoint x="2090" y="241"/>
                        </Array>
                    </mxGeometry>
                </mxCell>
                <mxCell id="-8ezq4TVI2wedJxwx6Ep-88" value="1 *&amp;nbsp;" style="text;html=1;align=center;verticalAlign=middle;resizable=0;points=[];autosize=1;strokeColor=none;fillColor=none;fontSize=20;" parent="WIyWlLk6GJQsqaUBKTNV-1" vertex="1">
                    <mxGeometry x="-80" y="710" width="50" height="40" as="geometry"/>
                </mxCell>
                <mxCell id="-8ezq4TVI2wedJxwx6Ep-89" value="1 *&amp;nbsp;" style="text;html=1;align=center;verticalAlign=middle;resizable=0;points=[];autosize=1;strokeColor=none;fillColor=none;fontSize=20;" parent="WIyWlLk6GJQsqaUBKTNV-1" vertex="1">
                    <mxGeometry x="-430" y="1080" width="50" height="40" as="geometry"/>
                </mxCell>
                <mxCell id="-8ezq4TVI2wedJxwx6Ep-90" value="1 *&amp;nbsp;" style="text;html=1;align=center;verticalAlign=middle;resizable=0;points=[];autosize=1;strokeColor=none;fillColor=none;fontSize=20;" parent="WIyWlLk6GJQsqaUBKTNV-1" vertex="1">
                    <mxGeometry x="-180" y="1543" width="50" height="40" as="geometry"/>
                </mxCell>
                <mxCell id="-8ezq4TVI2wedJxwx6Ep-91" value="1 *&amp;nbsp;" style="text;html=1;align=center;verticalAlign=middle;resizable=0;points=[];autosize=1;strokeColor=none;fillColor=none;fontSize=20;" parent="WIyWlLk6GJQsqaUBKTNV-1" vertex="1">
                    <mxGeometry x="30" y="1020" width="50" height="40" as="geometry"/>
                </mxCell>
                <mxCell id="-8ezq4TVI2wedJxwx6Ep-92" value="1 *&amp;nbsp;" style="text;html=1;align=center;verticalAlign=middle;resizable=0;points=[];autosize=1;strokeColor=none;fillColor=none;fontSize=20;" parent="WIyWlLk6GJQsqaUBKTNV-1" vertex="1">
                    <mxGeometry x="30" y="1140" width="50" height="40" as="geometry"/>
                </mxCell>
                <mxCell id="-8ezq4TVI2wedJxwx6Ep-93" value="1 *&amp;nbsp;" style="text;html=1;align=center;verticalAlign=middle;resizable=0;points=[];autosize=1;strokeColor=none;fillColor=none;fontSize=20;" parent="WIyWlLk6GJQsqaUBKTNV-1" vertex="1">
                    <mxGeometry x="860" y="1129" width="50" height="40" as="geometry"/>
                </mxCell>
                <mxCell id="-8ezq4TVI2wedJxwx6Ep-94" value="1 *&amp;nbsp;" style="text;html=1;align=center;verticalAlign=middle;resizable=0;points=[];autosize=1;strokeColor=none;fillColor=none;fontSize=20;" parent="WIyWlLk6GJQsqaUBKTNV-1" vertex="1">
                    <mxGeometry x="1440" y="1020" width="50" height="40" as="geometry"/>
                </mxCell>
                <mxCell id="-8ezq4TVI2wedJxwx6Ep-95" value="1 *&amp;nbsp;" style="text;html=1;align=center;verticalAlign=middle;resizable=0;points=[];autosize=1;strokeColor=none;fillColor=none;fontSize=20;" parent="WIyWlLk6GJQsqaUBKTNV-1" vertex="1">
                    <mxGeometry x="1820" y="855" width="50" height="40" as="geometry"/>
                </mxCell>
                <mxCell id="-8ezq4TVI2wedJxwx6Ep-96" value="1 *&amp;nbsp;" style="text;html=1;align=center;verticalAlign=middle;resizable=0;points=[];autosize=1;strokeColor=none;fillColor=none;fontSize=20;" parent="WIyWlLk6GJQsqaUBKTNV-1" vertex="1">
                    <mxGeometry x="1540" y="250" width="50" height="40" as="geometry"/>
                </mxCell>
                <mxCell id="-8ezq4TVI2wedJxwx6Ep-97" value="1 *&amp;nbsp;" style="text;html=1;align=center;verticalAlign=middle;resizable=0;points=[];autosize=1;strokeColor=none;fillColor=none;fontSize=20;" parent="WIyWlLk6GJQsqaUBKTNV-1" vertex="1">
                    <mxGeometry x="30" y="-420" width="50" height="40" as="geometry"/>
                </mxCell>
                <mxCell id="-8ezq4TVI2wedJxwx6Ep-98" value="1 *&amp;nbsp;" style="text;html=1;align=center;verticalAlign=middle;resizable=0;points=[];autosize=1;strokeColor=none;fillColor=none;fontSize=20;" parent="WIyWlLk6GJQsqaUBKTNV-1" vertex="1">
                    <mxGeometry x="-280" y="-552" width="50" height="40" as="geometry"/>
                </mxCell>
                <mxCell id="-8ezq4TVI2wedJxwx6Ep-99" value="1 *&amp;nbsp;" style="text;html=1;align=center;verticalAlign=middle;resizable=0;points=[];autosize=1;strokeColor=none;fillColor=none;fontSize=20;" parent="WIyWlLk6GJQsqaUBKTNV-1" vertex="1">
                    <mxGeometry x="210" y="-170" width="50" height="40" as="geometry"/>
                </mxCell>
                <mxCell id="-8ezq4TVI2wedJxwx6Ep-100" value="1 *&amp;nbsp;" style="text;html=1;align=center;verticalAlign=middle;resizable=0;points=[];autosize=1;strokeColor=none;fillColor=none;fontSize=20;" parent="WIyWlLk6GJQsqaUBKTNV-1" vertex="1">
                    <mxGeometry x="30" y="-70" width="50" height="40" as="geometry"/>
                </mxCell>
                <mxCell id="-8ezq4TVI2wedJxwx6Ep-101" value="1 *&amp;nbsp;" style="text;html=1;align=center;verticalAlign=middle;resizable=0;points=[];autosize=1;strokeColor=none;fillColor=none;fontSize=20;" parent="WIyWlLk6GJQsqaUBKTNV-1" vertex="1">
                    <mxGeometry x="-260" y="44" width="50" height="40" as="geometry"/>
                </mxCell>
                <mxCell id="-8ezq4TVI2wedJxwx6Ep-102" value="1 *&amp;nbsp;" style="text;html=1;align=center;verticalAlign=middle;resizable=0;points=[];autosize=1;strokeColor=none;fillColor=none;fontSize=20;" parent="WIyWlLk6GJQsqaUBKTNV-1" vertex="1">
                    <mxGeometry x="480" y="-240" width="50" height="40" as="geometry"/>
                </mxCell>
                <mxCell id="-8ezq4TVI2wedJxwx6Ep-103" value="1 *&amp;nbsp;" style="text;html=1;align=center;verticalAlign=middle;resizable=0;points=[];autosize=1;strokeColor=none;fillColor=none;fontSize=20;" parent="WIyWlLk6GJQsqaUBKTNV-1" vertex="1">
                    <mxGeometry x="480" y="-520" width="50" height="40" as="geometry"/>
                </mxCell>
                <mxCell id="-8ezq4TVI2wedJxwx6Ep-104" value="1 *&amp;nbsp;" style="text;html=1;align=center;verticalAlign=middle;resizable=0;points=[];autosize=1;strokeColor=none;fillColor=none;fontSize=20;" parent="WIyWlLk6GJQsqaUBKTNV-1" vertex="1">
                    <mxGeometry x="430" y="290" width="50" height="40" as="geometry"/>
                </mxCell>
                <mxCell id="-8ezq4TVI2wedJxwx6Ep-105" value="1 *&amp;nbsp;" style="text;html=1;align=center;verticalAlign=middle;resizable=0;points=[];autosize=1;strokeColor=none;fillColor=none;fontSize=20;" parent="WIyWlLk6GJQsqaUBKTNV-1" vertex="1">
                    <mxGeometry x="600" y="-190" width="50" height="40" as="geometry"/>
                </mxCell>
                <mxCell id="-8ezq4TVI2wedJxwx6Ep-106" value="1 *&amp;nbsp;" style="text;html=1;align=center;verticalAlign=middle;resizable=0;points=[];autosize=1;strokeColor=none;fillColor=none;fontSize=20;" parent="WIyWlLk6GJQsqaUBKTNV-1" vertex="1">
                    <mxGeometry x="330" y="-750" width="50" height="40" as="geometry"/>
                </mxCell>
                <mxCell id="-8ezq4TVI2wedJxwx6Ep-107" value="1 *&amp;nbsp;" style="text;html=1;align=center;verticalAlign=middle;resizable=0;points=[];autosize=1;strokeColor=none;fillColor=none;fontSize=20;" parent="WIyWlLk6GJQsqaUBKTNV-1" vertex="1">
                    <mxGeometry x="270" y="803" width="50" height="40" as="geometry"/>
                </mxCell>
            </root>
        </mxGraphModel>
    </diagram>
</mxfile>